<svg width="24" height="24" viewBox="0 0 24 24" fill="none" xmlns="http://www.w3.org/2000/svg">
<path d="M9.49998 2.5C9.49998 1.119 10.619 0 12 0C13.381 0 14.5 1.119 14.5 2.5C14.5 3.525 13.882 4.403 13 4.789V6C13 6.553 12.553 7 12 7C11.447 7 11 6.553 11 6V4.789C10.118 4.403 9.49998 3.525 9.49998 2.5ZM16.809 9.462C17.013 9.462 17.219 9.4 17.397 9.271L18.247 8.652C18.617 8.868 19.041 9.001 19.501 9.001C20.882 9.001 22.001 7.882 22.001 6.501C22.001 5.12 20.882 4.001 19.501 4.001C18.12 4.001 17.001 5.12 17.001 6.501C17.001 6.687 17.024 6.866 17.063 7.04L16.22 7.654C15.774 7.979 15.675 8.605 16 9.051C16.196 9.32 16.5 9.462 16.809 9.462ZM5.75398 8.651L6.60398 9.27C6.78198 9.399 6.98798 9.461 7.19198 9.461C7.50098 9.461 7.80498 9.318 8.00198 9.05C8.32698 8.604 8.22898 7.978 7.78198 7.653L6.93898 7.039C6.97698 6.865 7.00098 6.685 7.00098 6.5C7.00098 5.119 5.88198 4 4.50098 4C3.11998 4 2.00098 5.119 2.00098 6.5C2.00098 7.881 3.11998 9 4.50098 9C4.95998 9 5.38398 8.867 5.75398 8.651ZM19.83 18.753L14.001 16.461V10.999C14.001 10.003 13.32 9.079 12.337 8.919C11.084 8.715 10.001 9.677 10.001 10.892V20.816C8.92498 19.93 7.88998 19.064 7.85598 19.032C6.93398 18.171 5.48298 18.219 4.62098 19.141C3.75798 20.064 3.80198 21.513 4.71898 22.371L6.53998 23.999H23.002V23.406C23.002 21.351 21.743 19.505 19.83 18.753Z" fill="#4169E1"/>
</svg>
