<svg width="24" height="24" viewBox="0 0 24 24" fill="none" xmlns="http://www.w3.org/2000/svg">
<g clip-path="url(#clip0_816_189)">
<path d="M0.553723 13.5899C0.0101601 12.7902 -0.0984962 11.7721 0.264082 10.8757C1.07441 9.22263 2.43186 7.90103 4.106 7.13528C5.3181 6.53252 6.63102 6.15869 7.97877 6.03245C7.39152 6.75508 6.80361 7.52608 6.21505 8.3456C5.01721 10.1595 3.99186 12.0815 3.15247 14.0866L2.79116 14.8968C1.8861 14.8219 1.06353 14.3415 0.553723 13.5899ZM1.93025 17.7941C1.0655 18.9882 0.444832 20.3411 0.103863 21.7754C-0.108715 22.7074 0.474457 23.6353 1.40647 23.8479C1.66011 23.9057 1.9235 23.9057 2.17714 23.8477C3.60927 23.5061 4.96007 22.8859 6.15247 22.0223C7.32003 20.8553 7.3205 18.9627 6.15346 17.7951C4.98646 16.6276 3.09388 16.6271 1.92632 17.7941H1.93025ZM9.8301 20.7602L9.01396 21.1225V21.4151C9.01592 22.1162 9.29666 22.7876 9.79428 23.2814C10.2676 23.7417 10.9017 23.9995 11.562 24C13.9079 23.9662 15.81 21.8302 16.8083 19.8416C17.4199 18.6108 17.795 17.2763 17.9141 15.9071C17.1842 16.5043 16.4015 17.1015 15.5661 17.6987C13.753 18.8968 11.8312 19.9218 9.82611 20.7603L9.8301 20.7602ZM23.9437 2.94499C23.8114 7.2776 20.692 11.5744 14.4066 16.0832C12.6961 17.192 10.8917 18.1485 9.01396 18.9418V18.3814C9.00467 16.4613 7.45044 14.9071 5.53035 14.8978H4.97C5.7651 13.0201 6.72327 11.2156 7.83355 9.50519C12.3313 3.23463 16.6212 0.111299 20.9468 -0.0300293C23.1027 -0.0300293 23.9437 0.847846 23.9437 2.94499ZM17.9718 8.42819C17.9718 7.05396 16.8578 5.93988 15.4835 5.93988C14.1092 5.93988 12.9952 7.05391 12.9952 8.42819C12.9952 9.80242 14.1092 10.9165 15.4835 10.9165C16.8578 10.9165 17.9718 9.80242 17.9718 8.42819Z" fill="#4169E1"/>
</g>
<defs>
<clipPath id="clip0_816_189">
<rect width="24" height="24" fill="white"/>
</clipPath>
</defs>
</svg>
