<svg width="24" height="24" viewBox="0 0 24 24" fill="none" xmlns="http://www.w3.org/2000/svg">
<g clip-path="url(#clip0_815_158)">
<path d="M22.5 18.0001C22.5 17.5401 22.411 17.1051 22.282 16.6871L23.698 15.8711L22.7 14.1381L21.289 14.9511C20.684 14.2991 19.896 13.8261 19 13.6211V12.0001H17V13.6211C16.104 13.8261 15.315 14.2991 14.711 14.9511L13.3 14.1381L12.302 15.8711L13.718 16.6871C13.589 17.1051 13.5 17.5401 13.5 18.0001C13.5 18.4601 13.589 18.8951 13.718 19.3131L12.302 20.1291L13.3 21.8621L14.711 21.0491C15.316 21.7011 16.104 22.1741 17 22.3791V24.0001H19V22.3791C19.896 22.1741 20.685 21.7011 21.289 21.0491L22.7 21.8621L23.698 20.1291L22.282 19.3131C22.411 18.8951 22.5 18.4601 22.5 18.0001ZM18 19.5001C17.173 19.5001 16.5 18.8271 16.5 18.0001C16.5 17.1731 17.173 16.5001 18 16.5001C18.827 16.5001 19.5 17.1731 19.5 18.0001C19.5 18.8271 18.827 19.5001 18 19.5001ZM8.00101 18.9981H4.87601C4.61201 17.7471 3.92501 16.5631 2.86901 15.5811C0.720009 13.5801 -0.297991 10.7521 0.0760093 7.82006C0.591009 3.78006 3.90501 0.515056 7.95701 0.0570557C10.524 -0.231944 13.087 0.579056 14.995 2.28406C16.905 3.99106 18.001 6.43806 18.001 8.99806C18.001 9.33606 17.98 9.67106 17.943 10.0031C13.557 10.0341 10.011 13.5921 10.001 17.9831V10.8141C11.162 10.4001 12.001 9.30006 12.001 7.99806H10.001C10.001 8.54906 9.55301 8.99806 9.00101 8.99806C8.44901 8.99806 8.00101 8.54906 8.00101 7.99806H6.00101C6.00101 9.30006 6.84001 10.4001 8.00101 10.8141V18.9981ZM12.719 23.9981H5.00101V20.9981H10.586C11.056 22.1601 11.794 23.1821 12.719 23.9981Z" fill="#4169E1"/>
</g>
<defs>
<clipPath id="clip0_815_158">
<rect width="24" height="24" fill="white"/>
</clipPath>
</defs>
</svg>
