<?xml version="1.0" standalone="no"?>
<!DOCTYPE svg PUBLIC "-//W3C//DTD SVG 20010904//EN"
 "http://www.w3.org/TR/2001/REC-SVG-20010904/DTD/svg10.dtd">
<svg version="1.0" xmlns="http://www.w3.org/2000/svg"
 width="512.000000pt" height="512.000000pt" viewBox="0 0 512.000000 512.000000"
 preserveAspectRatio="xMidYMid meet">
<metadata>
Created by potrace 1.14, written by Peter Selinger 2001-2017
</metadata>
<g transform="translate(0.000000,512.000000) scale(0.100000,-0.100000)"
fill="#000000" stroke="none">
<path d="M0 2560 l0 -2560 2560 0 2560 0 0 2560 0 2560 -2560 0 -2560 0 0
-2560z m3463 1563 c411 -116 698 -467 724 -883 3 -53 2 -127 -2 -165 -7 -61
-9 -67 -18 -45 -34 85 -81 178 -108 214 -67 87 -173 167 -288 215 l-86 36
-920 5 c-916 5 -920 5 -973 27 -81 33 -136 84 -174 160 -28 58 -33 77 -32 143
1 111 44 198 129 259 88 63 46 60 895 58 765 -2 776 -3 853 -24z m-2460 -912
c56 -119 167 -231 287 -290 148 -72 121 -71 1090 -71 931 0 923 0 1005 -52 76
-48 118 -108 141 -200 40 -156 -46 -319 -199 -376 -57 -22 -64 -22 -790 -22
-676 0 -739 2 -822 19 -318 66 -579 280 -708 580 -61 143 -89 325 -72 476 6
60 9 67 17 45 6 -14 28 -63 51 -109z m-29 -1252 c24 -68 108 -190 170 -246 63
-58 184 -124 276 -150 61 -17 127 -18 1140 -18 1211 0 1123 -5 1285 78 137 71
270 227 313 369 l16 53 7 -40 c13 -69 10 -219 -7 -306 -75 -395 -358 -690
-755 -786 -68 -17 -138 -18 -859 -18 -867 0 -834 -2 -1009 65 -410 158 -674
603 -614 1036 7 52 6 53 37 -37z"/>
</g>
</svg>
