<?xml version="1.0" standalone="no"?>
<!DOCTYPE svg PUBLIC "-//W3C//DTD SVG 20010904//EN"
 "http://www.w3.org/TR/2001/REC-SVG-20010904/DTD/svg10.dtd">
<svg version="1.0" xmlns="http://www.w3.org/2000/svg"
 width="512.000000pt" height="512.000000pt" viewBox="0 0 512.000000 512.000000"
 preserveAspectRatio="xMidYMid meet">
<metadata>
Created by potrace 1.14, written by Peter Selinger 2001-2017
</metadata>
<g transform="translate(0.000000,512.000000) scale(0.100000,-0.100000)"
fill="#000000" stroke="none">
<path d="M2408 5115 c-2 -1 -39 -5 -83 -9 -44 -3 -107 -10 -140 -16 -33 -5
-78 -12 -100 -15 -105 -16 -417 -106 -439 -126 -6 -5 -16 -9 -23 -9 -8 0 -49
-16 -91 -35 -352 -161 -618 -354 -877 -637 -33 -36 -71 -80 -85 -98 -14 -18
-29 -38 -35 -44 -14 -16 -50 -66 -112 -158 -44 -65 -173 -291 -173 -303 0 -2
-15 -36 -34 -77 -54 -119 -134 -356 -150 -448 -2 -14 -7 -36 -10 -50 -44 -190
-65 -557 -44 -780 21 -217 83 -475 165 -685 35 -89 122 -270 159 -332 10 -17
36 -60 57 -95 178 -297 499 -616 820 -814 278 -172 645 -310 936 -350 20 -3
79 -11 131 -18 88 -12 496 -14 560 -2 14 2 45 7 70 10 25 4 92 16 150 27 58
12 115 23 128 25 38 7 320 103 370 125 481 216 859 531 1135 945 198 299 343
668 392 1004 3 19 7 44 10 55 29 140 27 538 -4 740 -130 854 -704 1608 -1486
1951 -44 20 -89 39 -100 44 -90 40 -373 121 -470 135 -23 3 -50 7 -61 9 -12 2
-45 7 -75 11 -30 3 -67 9 -84 11 -31 6 -401 14 -407 9z"/>
</g>
</svg>
