<svg width="24" height="24" viewBox="0 0 24 24" fill="none" xmlns="http://www.w3.org/2000/svg">
<g clip-path="url(#clip0_869_331)">
<path d="M9 12C12.309 12 15 9.309 15 6C15 2.691 12.309 0 9 0C5.691 0 3 2.691 3 6C3 9.309 5.691 12 9 12ZM9 2C11.206 2 13 3.794 13 6C13 8.206 11.206 10 9 10C6.794 10 5 8.206 5 6C5 3.794 6.794 2 9 2ZM23.122 11.879C21.988 10.745 20.012 10.745 18.879 11.879L11 19.757V24H15.243L23.121 16.122C23.688 15.555 24 14.802 24 14C24 13.198 23.688 12.445 23.122 11.879ZM21.707 14.707L14.415 22H13V20.585L20.293 13.293C20.67 12.915 21.329 12.915 21.707 13.293C21.896 13.481 22 13.732 22 14C22 14.268 21.896 14.518 21.707 14.707ZM11.929 16H5C3.346 16 2 17.346 2 19V24H0V19C0 16.243 2.243 14 5 14H13C13.289 14 13.568 14.038 13.844 14.085L11.929 16Z" fill="#4169E1"/>
</g>
<defs>
<clipPath id="clip0_869_331">
<rect width="24" height="24" fill="white"/>
</clipPath>
</defs>
</svg>
