<svg width="24" height="24" viewBox="0 0 24 24" fill="none" xmlns="http://www.w3.org/2000/svg">
<path d="M0 3.5C0 2.671 0.671 2 1.5 2H22.5C23.329 2 24 2.671 24 3.5C24 4.329 23.329 5 22.5 5H1.5C0.671 5 0 4.329 0 3.5ZM22.5 19H8.5C7.671 19 7 19.671 7 20.5C7 21.329 7.671 22 8.5 22H22.5C23.329 22 24 21.329 24 20.5C24 19.671 23.329 19 22.5 19ZM22.5 10H8.5C7.671 10 7 10.671 7 11.5C7 12.329 7.671 13 8.5 13H22.5C23.329 13 24 12.329 24 11.5C24 10.671 23.329 10 22.5 10ZM1.5 10C0.671 10 0 10.671 0 11.5V20.5C0 21.329 0.671 22 1.5 22C2.329 22 3 21.329 3 20.5V11.5C3 10.671 2.329 10 1.5 10Z" fill="#4169E1"/>
</svg>
