<svg width="24" height="24" viewBox="0 0 24 24" fill="none" xmlns="http://www.w3.org/2000/svg">
<g clip-path="url(#clip0_869_326)">
<path d="M12 24C5.383 24 0 18.617 0 12C0 5.383 5.383 0 12 0C18.617 0 24 5.383 24 12C24 18.617 18.617 24 12 24ZM12 2C6.486 2 2 6.486 2 12C2 17.514 6.486 22 12 22C17.514 22 22 17.514 22 12C22 6.486 17.514 2 12 2ZM10.866 15.964L12.866 12.5C12.953 12.348 13 12.176 13 12V6C13 5.448 12.552 5 12 5C11.448 5 11 5.448 11 6V11.732L9.134 14.964C8.858 15.443 9.022 16.054 9.5 16.33C9.657 16.421 9.83 16.464 9.999 16.464C10.345 16.464 10.681 16.285 10.866 15.964Z" fill="#4169E1"/>
</g>
<defs>
<clipPath id="clip0_869_326">
<rect width="24" height="24" fill="white"/>
</clipPath>
</defs>
</svg>
