<svg width="28" height="28" viewBox="0 0 28 28" fill="none" xmlns="http://www.w3.org/2000/svg">
<g clip-path="url(#clip0_1064_1177)">
<path d="M6.8288 13.074C6.7255 12.8228 6.48345 12.6606 6.21187 12.6606C6.21166 12.6606 6.21144 12.6606 6.21122 12.6606C5.93942 12.6609 5.69732 12.8236 5.59445 13.0751C5.59276 13.0792 5.59112 13.0834 5.58959 13.0875L3.59798 18.3168C3.49046 18.599 3.63216 18.915 3.9144 19.0224C4.19664 19.1301 4.51262 18.9883 4.62009 18.7061L4.98195 17.7559H7.42692L7.78491 18.7045C7.89002 18.983 8.21087 19.1284 8.48966 19.023C8.77223 18.9165 8.91486 18.6009 8.80822 18.3183L6.83471 13.0888C6.8328 13.0839 6.83083 13.0789 6.8288 13.074ZM5.39851 16.6622L6.21002 14.5314L7.01414 16.6622H5.39851Z" fill="#F24E1E"/>
<path d="M10.0912 18.3493C10.0912 18.676 10.2997 18.9798 10.6506 18.9798C10.6946 18.9797 11.7334 18.9757 12.148 18.9684C13.639 18.9423 14.7212 17.6348 14.7212 15.8594C14.7212 13.993 13.6662 12.739 12.0958 12.739H10.6381C10.3364 12.739 10.0912 12.9917 10.0912 13.2912V18.3493ZM12.0958 13.8328C13.2251 13.8328 13.6274 14.8798 13.6274 15.8595C13.6274 16.8176 13.1585 17.8568 12.1289 17.8749C11.9156 17.8786 11.5216 17.8816 11.1935 17.8835C11.1916 17.2748 11.1887 16.3171 11.1887 15.8538C11.1887 15.4649 11.1871 14.4643 11.186 13.8329H12.0958V13.8328Z" fill="#F24E1E"/>
<path d="M24.0454 2.55187C23.9006 2.44944 23.7152 2.42335 23.5478 2.48236L18.4867 4.26364H15.4505C13.8613 4.26364 12.5683 5.55662 12.5683 7.14589C12.5683 7.82276 12.8034 8.44543 13.1955 8.93783H2.80755C1.25945 8.93778 0 10.1973 0 11.7453V19.9623C0 21.5104 1.25945 22.7699 2.80755 22.7699H5.49314V25.0027C5.49314 25.2137 5.61455 25.4059 5.80508 25.4966C5.99359 25.5862 6.22311 25.5586 6.38504 25.427L9.6524 22.7699H15.4758C17.0239 22.7699 18.2833 21.5104 18.2833 19.9623C18.2833 19.6604 18.0385 19.4155 17.7365 19.4155C17.4344 19.4155 17.1896 19.6604 17.1896 19.9623C17.1896 20.9073 16.4208 21.6761 15.4758 21.6761H9.45815C9.33248 21.6761 9.21063 21.7195 9.11307 21.7987L6.58689 23.8531V22.223C6.58689 21.921 6.34205 21.6761 6.04002 21.6761H2.80755C1.86255 21.6761 1.09375 20.9073 1.09375 19.9623V11.7453C1.09375 10.8003 1.86255 10.0315 2.80755 10.0315H14.3717L15.1767 13.1851C15.2379 13.4245 15.4598 13.5969 15.7069 13.5969H17.1896V15.1804C17.1896 15.4823 17.4344 15.7272 17.7365 15.7272C18.0385 15.7272 18.2833 15.4823 18.2833 15.1804V13.05C18.2833 13.0496 18.2833 13.0493 18.2833 13.049V10.028H18.4867L23.5478 11.8093C23.8977 11.9326 24.2762 11.6633 24.2762 11.2934V2.99817C24.2762 2.82076 24.1901 2.6544 24.0454 2.55187ZM15.4505 5.35739H18.0333V8.93433H15.4505C14.4644 8.93433 13.662 8.13201 13.662 7.14583C13.6621 6.15971 14.4644 5.35739 15.4505 5.35739ZM17.1895 12.503H16.1316L15.5 10.0281H17.1895V12.503ZM23.1825 10.5213L19.127 9.09391V5.19781L23.1825 3.77041V10.5213Z" fill="#F24E1E"/>
<path d="M27.4531 6.59949H25.8923C25.5903 6.59949 25.3455 6.84438 25.3455 7.14636C25.3455 7.44835 25.5903 7.69324 25.8923 7.69324H27.4531C27.7552 7.69324 28 7.44835 28 7.14636C28 6.84438 27.7552 6.59949 27.4531 6.59949Z" fill="#F24E1E"/>
<path d="M25.8928 5.0078C25.9805 5.0078 26.0696 4.98658 26.1522 4.94201L27.5059 4.2109C27.7716 4.06734 27.8707 3.73561 27.7272 3.46982C27.5837 3.20404 27.252 3.10506 26.9862 3.2485L25.6324 3.97962C25.3667 4.12318 25.2676 4.45491 25.4111 4.72069C25.51 4.90384 25.6983 5.0078 25.8928 5.0078Z" fill="#F24E1E"/>
<path d="M27.5059 10.0816L26.1522 9.35051C25.8864 9.2069 25.5547 9.30604 25.4111 9.57183C25.2676 9.83755 25.3667 10.1693 25.6325 10.3129L26.9862 11.044C27.2486 11.1858 27.5858 11.0845 27.7273 10.8227C27.8708 10.557 27.7717 10.2252 27.5059 10.0816Z" fill="#F24E1E"/>
<path d="M18.1913 17.2035C17.9256 16.8083 17.2953 16.9319 17.2004 17.4004C17.1542 17.6283 17.2645 17.8689 17.4671 17.9829C17.67 18.0971 17.9307 18.0696 18.1035 17.9124C18.3013 17.7324 18.3399 17.4262 18.1913 17.2035Z" fill="#F24E1E"/>
</g>
<defs>
<clipPath id="clip0_1064_1177">
<rect width="28" height="28" fill="white"/>
</clipPath>
</defs>
</svg>
