<svg width="28" height="28" viewBox="0 0 28 28" fill="none" xmlns="http://www.w3.org/2000/svg">
<g clip-path="url(#clip0_1057_708)">
<path d="M0.473151 18.9402L4.68155 21.0468C4.4178 21.5273 4.18931 22.0264 3.99788 22.5401C3.93457 22.7125 3.91375 22.8976 3.93717 23.0797C3.96059 23.2618 4.02757 23.4356 4.13242 23.5863C4.23728 23.7371 4.37693 23.8603 4.53954 23.9456C4.70215 24.0309 4.88293 24.0758 5.06655 24.0764C5.20292 24.076 5.33821 24.0522 5.46648 24.0059C5.97874 23.8147 6.47643 23.5865 6.95562 23.3232L9.06122 27.5339C9.12243 27.6549 9.21136 27.7596 9.32076 27.8397C9.43017 27.9197 9.55694 27.9728 9.69075 27.9945C9.73493 28.0012 9.77954 28.0046 9.82422 28.0048C10.0519 28.0038 10.27 27.9129 10.4309 27.7518L11.0138 27.1694C11.1041 27.0782 11.173 26.9682 11.2157 26.8471C11.2584 26.7261 11.2738 26.5971 11.2606 26.4694L10.6241 20.7537C11.4417 20.0696 12.3326 19.2604 13.3014 18.2892L16.5718 15.0188L22.5264 25.6052C22.6006 25.7377 22.7047 25.8512 22.8303 25.9366C22.9559 26.0221 23.0997 26.0772 23.2502 26.0975C23.2956 26.1034 23.3412 26.1064 23.387 26.1064C23.5159 26.1065 23.6435 26.0811 23.7626 26.0316C23.8816 25.9821 23.9896 25.9095 24.0804 25.818L24.8616 25.0363C24.9788 24.9197 25.0646 24.7754 25.111 24.6168C25.1574 24.4582 25.163 24.2904 25.1272 24.1291L24.3198 20.4518L25.7945 18.9771C26.0758 18.695 26.2337 18.3129 26.2337 17.9145C26.2337 17.5161 26.0758 17.134 25.7945 16.8519L25.4282 16.4865C25.1659 16.2257 24.8164 16.0711 24.4469 16.0525C24.0775 16.0339 23.7143 16.1526 23.4271 16.3857L23.1336 15.0473L24.3301 13.8508C24.6114 13.5687 24.7693 13.1865 24.7693 12.7882C24.7693 12.3898 24.6114 12.0077 24.3301 11.7256L23.9638 11.3602C23.7444 11.142 23.463 10.9971 23.1581 10.9451C22.8532 10.8931 22.5396 10.9367 22.2604 11.0699L21.9473 9.6433L24.6838 6.90677C27.0377 4.5529 28.804 1.5527 27.6238 0.373433C26.4436 -0.805834 23.4453 0.961433 21.0905 3.31343L18.3568 6.05277L16.9302 5.7401C17.0632 5.46092 17.1068 5.14744 17.055 4.84255C17.0031 4.53765 16.8583 4.25622 16.6404 4.03677L16.274 3.67043C15.9921 3.38897 15.61 3.23088 15.2117 3.23088C14.8133 3.23088 14.4312 3.38897 14.1493 3.67043L12.9532 4.86697L11.6144 4.57343C11.8474 4.28622 11.966 3.92298 11.9474 3.55358C11.9288 3.18418 11.7743 2.83471 11.5136 2.57237L11.1472 2.20603C10.8651 1.92491 10.4831 1.76705 10.0849 1.76705C9.6866 1.76705 9.30458 1.92491 9.02248 2.20603L7.54782 3.6807L3.87048 2.87337C3.70922 2.83731 3.54146 2.84276 3.38287 2.8892C3.22429 2.93564 3.08009 3.02155 2.96375 3.1389L2.18208 3.9201C2.07471 4.02758 1.99365 4.15845 1.94524 4.30246C1.89683 4.44647 1.88239 4.59973 1.90304 4.75025C1.92369 4.90077 1.97887 5.04447 2.06428 5.17012C2.14968 5.29578 2.26299 5.39997 2.39535 5.47457L12.9808 11.4283L9.71035 14.7001C8.74155 15.6689 7.93048 16.5598 7.24635 17.3769L1.52735 16.7366C1.40068 16.7246 1.2729 16.7407 1.15323 16.784C1.03356 16.8272 0.924971 16.8965 0.835284 16.9868L0.252884 17.5668C0.156451 17.6626 0.0842006 17.78 0.0421062 17.9092C1.17416e-05 18.0384 -0.0107175 18.1758 0.0108054 18.31C0.0323283 18.4442 0.0854851 18.5714 0.165881 18.681C0.246277 18.7905 0.351603 18.8794 0.473151 18.9402ZM10.331 26.5301L9.84662 27.014L7.76388 22.8495C8.45466 22.4189 9.12187 21.9515 9.76262 21.4495L10.331 26.5301ZM23.9638 17.1464C24.0706 17.0399 24.2152 16.9801 24.366 16.9801C24.5168 16.9801 24.6615 17.0399 24.7683 17.1464L25.1346 17.5118C25.2411 17.6187 25.3009 17.7634 25.3009 17.9143C25.3009 18.0651 25.2411 18.2099 25.1346 18.3168L24.0823 19.3691L23.6623 17.4488L23.9638 17.1464ZM22.4989 12.02C22.6056 11.9133 22.7504 11.8534 22.9014 11.8534C23.0523 11.8534 23.1971 11.9133 23.3039 12.02L23.6702 12.3854C23.7765 12.4924 23.8361 12.6371 23.8361 12.7879C23.8361 12.9387 23.7765 13.0834 23.6702 13.1904L22.896 13.9646L22.476 12.0438L22.4989 12.02ZM24.2158 24.3298C24.2175 24.3381 24.2171 24.3467 24.2147 24.3549C24.2123 24.363 24.2078 24.3704 24.2018 24.3764L23.4206 25.1581L23.3398 25.1474L17.2573 14.3333L21.1638 10.4268L24.2158 24.3298ZM14.8092 4.32983C14.9161 4.22359 15.0607 4.16397 15.2114 4.16397C15.3621 4.16397 15.5068 4.22359 15.6137 4.32983L15.98 4.69617C16.0867 4.80293 16.1467 4.94771 16.1467 5.09867C16.1467 5.24962 16.0867 5.3944 15.98 5.50117L15.9558 5.5259L14.0354 5.1059L14.8092 4.32983ZM9.68235 2.86543C9.78924 2.75894 9.93397 2.69914 10.0849 2.69914C10.2357 2.69914 10.3805 2.75894 10.4874 2.86543L10.8537 3.23177C10.9602 3.33857 11.0199 3.48323 11.0199 3.63403C11.0199 3.78484 10.9602 3.92949 10.8537 4.0363L10.5508 4.33917L8.63002 3.91917L9.68235 2.86543ZM2.85315 4.66023L2.84195 4.5795L3.62362 3.7983C3.62935 3.79189 3.63674 3.7872 3.64498 3.78473C3.65321 3.78226 3.66197 3.78211 3.67028 3.7843L17.5728 6.8363L13.6663 10.7428L2.85315 4.66023ZM10.3702 15.3586L21.7527 3.97657C23.8098 1.9195 25.766 0.925033 26.6098 0.925033C26.7381 0.91366 26.8657 0.953031 26.9654 1.0347C27.4176 1.4869 26.4744 3.79643 24.0254 6.24737L12.6434 17.6294C8.85775 21.4159 6.32328 22.6974 5.15148 23.1234C5.11346 23.1389 5.07173 23.1429 5.03146 23.1349C4.99119 23.1269 4.95416 23.1072 4.92498 23.0783C4.8958 23.0494 4.87575 23.0126 4.86732 22.9724C4.85888 22.9323 4.86244 22.8905 4.87755 22.8523C5.30315 21.6786 6.58508 19.1437 10.3702 15.3586ZM1.47042 17.669L6.55148 18.2374C6.04933 18.8779 5.58198 19.545 5.15148 20.2357L0.986017 18.1534L1.47042 17.669Z" fill="#7E30E1"/>
</g>
<defs>
<clipPath id="clip0_1057_708">
<rect width="28" height="28" fill="white"/>
</clipPath>
</defs>
</svg>
