<svg width="28" height="28" viewBox="0 0 28 28" fill="none" xmlns="http://www.w3.org/2000/svg">
<g clip-path="url(#clip0_1064_1221)">
<path d="M25.7575 14.192H26.6289C27.3846 14.192 27.9994 13.5772 27.9994 12.8214V10.6252C27.9994 9.8695 27.3846 9.25467 26.6289 9.25467H25.7575V6.80567C25.7637 6.7915 25.7691 6.7769 25.774 6.76208L27.8761 4.18795C28.1672 3.83141 27.9127 3.29522 27.4525 3.29522H21.1358V2.19479C21.1358 0.984945 20.1516 0.000671387 18.9417 0.000671387H9.05828C7.84843 0.000671387 6.86415 0.984945 6.86415 2.19479V3.29517H0.547497C0.0871593 3.29517 -0.167126 3.83146 0.123908 4.1879L2.24251 6.78231V9.25462H1.37111C0.61547 9.25462 0.00064771 9.86944 0.00064771 10.6251V12.8214C0.00064771 13.5771 0.615416 14.192 1.37111 14.192H2.24257V23.6895C1.57995 23.9021 1.09889 24.5239 1.09889 25.2562V26.9057H0.547497C0.245472 26.9057 0.00064771 27.1505 0.00064771 27.4525C0.00064771 27.7545 0.245472 27.9994 0.547497 27.9994H27.4525C27.7545 27.9994 27.9993 27.7545 27.9993 27.4525C27.9993 27.1505 27.7545 26.9057 27.4525 26.9057H26.9012V25.2562C26.9012 24.5239 26.4201 23.9021 25.7575 23.6895V14.192ZM24.6638 19.6872H21.1358V16.3883H24.6638V19.6872ZM21.1358 9.25467V7.13432H24.6638V9.25467H21.1358ZM26.2999 4.38886L24.9511 6.04057H21.1358V4.38886H26.2999ZM7.95785 2.19479C7.95785 1.58801 8.45149 1.09437 9.05828 1.09437H18.9417C19.5485 1.09437 20.0421 1.58801 20.0421 2.19479V9.80152C20.0421 10.4083 19.5485 10.9019 18.9417 10.9019H9.05828C8.45149 10.9019 7.95785 10.4083 7.95785 9.80152V2.19479ZM1.70004 4.38886H6.86415V6.04057H3.04884L1.70004 4.38886ZM3.33621 7.13427H6.86415V9.25462H3.33621V7.13427ZM1.09435 12.8214V10.6252C1.09435 10.4726 1.21854 10.3484 1.37111 10.3484H6.93317C7.17679 11.2945 8.0372 11.9956 9.05828 11.9956H18.9417C19.9628 11.9956 20.8232 11.2945 21.0668 10.3484H26.6289C26.7814 10.3484 26.9056 10.4726 26.9056 10.6252V12.8214C26.9056 12.9741 26.7814 13.0983 26.6289 13.0983H1.37111C1.21854 13.0983 1.09435 12.9741 1.09435 12.8214ZM24.6638 14.192V15.2946H20.589C20.287 15.2946 20.0421 15.5395 20.0421 15.8414V20.2341C20.0421 20.5361 20.287 20.7809 20.589 20.7809H24.6638V23.6112H18.9395V15.8414C18.9395 15.5395 18.6946 15.2946 18.3926 15.2946H9.60737C9.3054 15.2946 9.06052 15.5395 9.06052 15.8414V23.6112H3.33621V20.7809H7.411C7.71297 20.7809 7.95785 20.5361 7.95785 20.2341V15.8414C7.95785 15.5395 7.71297 15.2946 7.411 15.2946H3.33621V14.192H24.6638ZM14.5468 23.6112V16.3883H17.8458V23.6112H14.5468ZM10.1542 23.6112V16.3883H13.4531V23.6112H10.1542ZM3.33621 16.3883H6.86415V19.6872H3.33621V16.3883ZM25.8075 26.9057H2.19253V25.2562C2.19253 24.9522 2.43981 24.7049 2.74381 24.7049H25.2562C25.5602 24.7049 25.8075 24.9522 25.8075 25.2562V26.9057Z" fill="#4169E1"/>
<path d="M11.8037 18.04C11.5017 18.04 11.2568 18.2849 11.2568 18.5869V19.685C11.2568 19.987 11.5017 20.2319 11.8037 20.2319C12.1057 20.2319 12.3505 19.987 12.3505 19.685V18.5869C12.3505 18.2849 12.1057 18.04 11.8037 18.04Z" fill="#4169E1"/>
<path d="M16.1963 18.04C15.8943 18.04 15.6494 18.2849 15.6494 18.5869V19.685C15.6494 19.987 15.8943 20.2319 16.1963 20.2319C16.4982 20.2319 16.7431 19.987 16.7431 19.685V18.5869C16.7431 18.2849 16.4983 18.04 16.1963 18.04Z" fill="#4169E1"/>
<path d="M13.7456 9.7996C14.0477 9.7996 14.2927 9.55466 14.2927 9.25251C14.2927 8.95036 14.0477 8.70541 13.7456 8.70541C13.4434 8.70541 13.1985 8.95036 13.1985 9.25251C13.1985 9.55466 13.4434 9.7996 13.7456 9.7996Z" fill="#4169E1"/>
<path d="M15.9418 9.7995C16.2439 9.7995 16.4887 9.55461 16.4887 9.25252C16.4887 8.95043 16.2439 8.70554 15.9418 8.70554C15.6397 8.70554 15.3948 8.95043 15.3948 9.25252C15.3948 9.55461 15.6397 9.7995 15.9418 9.7995Z" fill="#4169E1"/>
<path d="M9.62742 3.29069H10.3173C10.6272 3.29069 10.9034 3.47607 11.0208 3.76289C11.104 3.96605 12.3077 6.91619 12.338 6.97159C12.5785 7.4106 13.0392 7.68342 13.5401 7.68342H16.2163C16.7389 7.68342 17.2087 7.39315 17.4424 6.92587L18.8617 4.08657C19.0431 3.72374 18.7791 3.29517 18.3726 3.29517H12.0102C11.712 2.6261 11.0538 2.19699 10.3173 2.19699H9.62742C9.32545 2.19699 9.08057 2.44187 9.08057 2.74384C9.08057 3.04587 9.32545 3.29069 9.62742 3.29069ZM17.4879 4.38887L16.4641 6.43671C16.4176 6.52962 16.3204 6.58967 16.2163 6.58967H13.5401C13.4464 6.58967 13.3597 6.54258 13.3088 6.46542C12.9473 5.58221 12.8236 5.27985 12.4589 4.38887H17.4879Z" fill="#4169E1"/>
</g>
<defs>
<clipPath id="clip0_1064_1221">
<rect width="28" height="28" fill="white"/>
</clipPath>
</defs>
</svg>
