<svg width="24" height="24" viewBox="0 0 24 24" fill="none" xmlns="http://www.w3.org/2000/svg">
<g clip-path="url(#clip0_836_254)">
<path d="M23.949 9.60321C23.949 7.96621 22.631 6.63221 21 6.60421V0.500214C21 0.238214 20.798 0.0212144 20.537 0.00121445C20.279 -0.0167856 20.045 0.167214 20.005 0.426214C19.523 3.65221 15.259 4.00021 13.448 4.00021H5.499C2.467 4.00021 0 6.46721 0 9.50021C0 11.1512 0.738 12.6342 1.904 13.6432L5.151 22.3562C5.38 22.9832 5.839 23.4842 6.444 23.7662C6.78 23.9222 7.138 24.0012 7.498 24.0012C7.787 24.0012 8.077 23.9502 8.356 23.8482C9.651 23.3762 10.32 21.9382 9.849 20.6442L7.803 15.0002H13.501C15.708 15.0002 19.488 15.4652 20.008 18.5822C20.049 18.8252 20.258 19.0002 20.501 19.0002C20.515 19.0002 20.529 19.0002 20.543 18.9992C20.802 18.9782 21.002 18.7612 21.002 18.5002V12.6012C22.633 12.5732 23.951 11.2392 23.951 9.60221L23.949 9.60321ZM1 9.50021C1 7.01921 3.019 5.00021 5.5 5.00021H8V14.0002H5.551C3.041 14.0002 1 11.9812 1 9.50021ZM8.909 20.9862C9.046 21.3622 9.029 21.7702 8.86 22.1322C8.691 22.4952 8.39 22.7712 8.014 22.9082C7.235 23.1922 6.374 22.7892 6.09 22.0092L3.302 14.5272C3.99 14.8302 4.751 15.0002 5.552 15.0002H6.739L8.909 20.9862ZM20 16.2492C18.771 14.7982 16.522 14.0002 13.5 14.0002H9V5.00021H13.449C16.506 5.00021 18.77 4.21221 20 2.77721V16.2492ZM21 11.6012V7.60421C22.079 7.63121 22.949 8.51721 22.949 9.60321C22.949 10.6892 22.08 11.5742 21 11.6022V11.6012Z" fill="black" fill-opacity="0.7"/>
</g>
<defs>
<clipPath id="clip0_836_254">
<rect width="24" height="24" fill="white"/>
</clipPath>
</defs>
</svg>
