<svg width="24" height="24" viewBox="0 0 24 24" fill="none" xmlns="http://www.w3.org/2000/svg">
<g clip-path="url(#clip0_836_258)">
<path d="M19.5 2H4.5C2.02 2 0 4.02 0 6.5V17.5C0 19.98 2.02 22 4.5 22H14.5C14.78 22 15 21.78 15 21.5C15 21.22 14.78 21 14.5 21H4.5C2.57 21 1 19.43 1 17.5V8H23V16.5C23 16.78 23.22 17 23.5 17C23.78 17 24 16.78 24 16.5V6.5C24 4.02 21.98 2 19.5 2ZM1 7V6.5C1 4.57 2.57 3 4.5 3H19.5C21.43 3 23 4.57 23 6.5V7H1ZM15.56 12.03C14.9 11.37 14.02 11 13.09 11H11.5C11.22 11 11 11.22 11 11.5V13.09C11 14.03 11.36 14.9 12.03 15.56L19.74 23.27C20.21 23.74 20.84 24 21.51 24C22.18 24 22.81 23.74 23.28 23.27C23.75 22.8 24.01 22.17 24.01 21.5C24.01 20.83 23.75 20.2 23.28 19.73L15.57 12.02L15.56 12.03ZM22.56 22.57C21.99 23.14 21.01 23.14 20.44 22.57L12.73 14.86C12.26 14.39 12 13.76 12 13.09V12H13.09C13.76 12 14.39 12.26 14.86 12.73L22.57 20.44C22.85 20.72 23.01 21.1 23.01 21.5C23.01 21.9 22.85 22.28 22.57 22.56L22.56 22.57Z" fill="black" fill-opacity="0.7"/>
</g>
<defs>
<clipPath id="clip0_836_258">
<rect width="24" height="24" fill="white"/>
</clipPath>
</defs>
</svg>
