<svg width="28" height="28" viewBox="0 0 28 28" fill="none" xmlns="http://www.w3.org/2000/svg">
<g clip-path="url(#clip0_1064_1253)">
<path d="M11.8125 7.43749C11.9285 7.43749 12.0398 7.3914 12.1219 7.30935C12.2039 7.22731 12.25 7.11603 12.25 6.99999V5.58249L12.5694 5.96749C12.6104 6.01704 12.6619 6.05692 12.7201 6.08429C12.7784 6.11166 12.8419 6.12585 12.9062 6.12585C12.9706 6.12585 13.0341 6.11166 13.0924 6.08429C13.1506 6.05692 13.2021 6.01704 13.2431 5.96749L13.5625 5.58249V6.99999C13.5625 7.11603 13.6086 7.22731 13.6906 7.30935C13.7727 7.3914 13.884 7.43749 14 7.43749C14.116 7.43749 14.2273 7.3914 14.3094 7.30935C14.3914 7.22731 14.4375 7.11603 14.4375 6.99999V4.37499C14.4375 4.28508 14.4097 4.19736 14.3581 4.12378C14.3064 4.05019 14.2333 3.99431 14.1488 3.96374C14.0641 3.933 13.9721 3.9291 13.8852 3.95259C13.7983 3.97608 13.7207 4.02581 13.6631 4.09499L12.9062 5.00499L12.1494 4.09499C12.0918 4.02581 12.0142 3.97608 11.9273 3.95259C11.8404 3.9291 11.7484 3.933 11.6637 3.96374C11.5792 3.99431 11.5061 4.05019 11.4544 4.12378C11.4028 4.19736 11.375 4.28508 11.375 4.37499V6.99999C11.375 7.11603 11.4211 7.22731 11.5031 7.30935C11.5852 7.3914 11.6965 7.43749 11.8125 7.43749Z" fill="#F24E1E"/>
<path d="M18.8125 7.4375H19.9062C20.0223 7.4375 20.1336 7.39141 20.2156 7.30936C20.2977 7.22731 20.3438 7.11603 20.3438 7C20.3438 6.88397 20.2977 6.77269 20.2156 6.69064C20.1336 6.60859 20.0223 6.5625 19.9062 6.5625H19.25V4.375C19.25 4.25897 19.2039 4.14769 19.1219 4.06564C19.0398 3.98359 18.9285 3.9375 18.8125 3.9375C18.6965 3.9375 18.5852 3.98359 18.5031 4.06564C18.4211 4.14769 18.375 4.25897 18.375 4.375V7C18.375 7.11603 18.4211 7.22731 18.5031 7.30936C18.5852 7.39141 18.6965 7.4375 18.8125 7.4375Z" fill="#F24E1E"/>
<path d="M21.2188 7.4375H22.3125C22.4285 7.4375 22.5398 7.39141 22.6219 7.30936C22.7039 7.22731 22.75 7.11603 22.75 7C22.75 6.88397 22.7039 6.77269 22.6219 6.69064C22.5398 6.60859 22.4285 6.5625 22.3125 6.5625H21.6562V4.375C21.6562 4.25897 21.6102 4.14769 21.5281 4.06564C21.4461 3.98359 21.3348 3.9375 21.2188 3.9375C21.1027 3.9375 20.9914 3.98359 20.9094 4.06564C20.8273 4.14769 20.7812 4.25897 20.7812 4.375V7C20.7812 7.11603 20.8273 7.22731 20.9094 7.30936C20.9914 7.39141 21.1027 7.4375 21.2188 7.4375Z" fill="#F24E1E"/>
<path d="M15.5312 7.4375C15.6473 7.4375 15.7586 7.39141 15.8406 7.30936C15.9227 7.22731 15.9688 7.11603 15.9688 7V6.5625H16.8438V7C16.8438 7.11603 16.8898 7.22731 16.9719 7.30936C17.0539 7.39141 17.1652 7.4375 17.2812 7.4375C17.3973 7.4375 17.5086 7.39141 17.5906 7.30936C17.6727 7.22731 17.7188 7.11603 17.7188 7V5.25C17.7188 4.9019 17.5805 4.56806 17.3343 4.32192C17.0882 4.07578 16.7543 3.9375 16.4062 3.9375C16.0582 3.9375 15.7243 4.07578 15.4782 4.32192C15.232 4.56806 15.0938 4.9019 15.0938 5.25V7C15.0938 7.11603 15.1398 7.22731 15.2219 7.30936C15.3039 7.39141 15.4152 7.4375 15.5312 7.4375ZM15.9688 5.25C15.9688 5.13397 16.0148 5.02269 16.0969 4.94064C16.1789 4.85859 16.2902 4.8125 16.4062 4.8125C16.5223 4.8125 16.6336 4.85859 16.7156 4.94064C16.7977 5.02269 16.8438 5.13397 16.8438 5.25V5.6875H15.9688V5.25Z" fill="#F24E1E"/>
<path d="M27.7025 17.5219L24.5 16.4544V2.625C24.5 2.50897 24.4539 2.39769 24.3719 2.31564C24.2898 2.23359 24.1785 2.1875 24.0625 2.1875H10.0625C9.94647 2.1875 9.83519 2.23359 9.75314 2.31564C9.67109 2.39769 9.625 2.50897 9.625 2.625V11.4975L6.7025 10.5219C6.63659 10.4996 6.56633 10.4934 6.49753 10.5037C6.42874 10.5141 6.3634 10.5406 6.30694 10.5813C6.25047 10.6219 6.20451 10.6754 6.17287 10.7374C6.14123 10.7993 6.12482 10.8679 6.125 10.9375V14.875H0.4375C0.321468 14.875 0.210188 14.9211 0.128141 15.0031C0.0460936 15.0852 0 15.1965 0 15.3125L0 24.9375C0 25.0535 0.0460936 25.1648 0.128141 25.2469C0.210188 25.3289 0.321468 25.375 0.4375 25.375H27.5625C27.6785 25.375 27.7898 25.3289 27.8719 25.2469C27.9539 25.1648 28 25.0535 28 24.9375V17.9375C28.0002 17.8458 27.9716 17.7563 27.9183 17.6817C27.8649 17.6071 27.7894 17.5512 27.7025 17.5219ZM6.125 24.5H3.0625V22.3125H6.125V24.5ZM6.125 21.4375H2.625C2.50897 21.4375 2.39769 21.4836 2.31564 21.5656C2.23359 21.6477 2.1875 21.759 2.1875 21.875V24.5H0.875V17.9375H6.125V21.4375ZM6.125 17.0625H0.875V15.75H6.125V17.0625ZM9.625 24.5H7V11.5456L9.625 12.4206V24.5ZM13.125 24.5H10.5V12.7094L13.125 13.5844V24.5ZM16.625 24.5H14V21.875H16.625V24.5ZM20.125 24.5H17.5V21.875H20.125V24.5ZM20.125 21H14V19.6875H20.125V21ZM14 18.8125V13.8775L16.625 14.7525V18.8125H14ZM20.125 18.8125H17.5V15.0456L20.125 15.9206V18.8125ZM23.625 24.5H21V16.1875L23.625 17.0625V24.5ZM23.625 16.1875L13.195 12.6875H23.625V16.1875ZM23.625 11.8125H10.57H10.5V9.1875H23.625V11.8125ZM23.625 8.3125H10.5V3.0625H23.625V8.3125ZM27.125 24.5H24.5V17.3775L27.125 18.2525V24.5Z" fill="#F24E1E"/>
</g>
<defs>
<clipPath id="clip0_1064_1253">
<rect width="28" height="28" fill="white"/>
</clipPath>
</defs>
</svg>
