<svg width="104" height="104" viewBox="0 0 104 104" fill="none" xmlns="http://www.w3.org/2000/svg">
<path d="M88.0555 4.66919H47.0427C40.6402 4.66919 35.4315 9.87677 35.4315 16.2814V36.9016H15.937C9.53879 36.9027 4.33337 42.1103 4.33337 48.5084V74.2918C4.33337 80.6899 9.53879 85.8986 15.937 85.8986H17.7537V93.9283C17.7537 96.109 18.9952 98.0092 20.994 98.8791C21.6895 99.1824 22.4261 99.3309 23.1563 99.3309C24.4975 99.3309 25.8213 98.8325 26.8515 97.877L39.6035 85.8986H56.9617C63.362 85.8986 68.5685 80.691 68.5685 74.2918V57.5694L77.1572 65.6154C78.1777 66.5774 79.5037 67.08 80.8481 67.08C81.5707 67.08 82.3009 66.9316 82.991 66.6337C84.9648 65.7811 86.241 63.8354 86.241 61.6829V53.6759H88.0566C94.458 53.677 99.6667 48.4684 99.6667 42.0648V16.2814C99.6667 9.87786 94.458 4.66919 88.0555 4.66919ZM56.9617 80.0378H38.4443C37.699 80.0378 36.9807 80.3238 36.438 80.8329L23.6145 92.8807V82.9682C23.6145 81.3486 22.3026 80.0378 20.6841 80.0378H15.937C12.7704 80.0378 10.1942 77.4627 10.1942 74.2918V48.5084C10.1942 45.3375 12.7704 42.7624 15.937 42.7624H35.4673C35.8313 48.841 40.8764 53.677 47.0427 53.677H62.7066V74.2918C62.7077 77.4627 60.1294 80.0378 56.9617 80.0378ZM93.8059 42.0648C93.8059 45.2357 91.2265 47.8162 88.0555 47.8162H83.3095C81.691 47.8162 80.379 49.127 80.379 50.7466V60.6082C80.379 60.6082 67.6824 48.6926 67.6585 48.6699L67.5979 48.6124L67.5903 48.6211L67.5751 48.607C67.0324 48.0979 66.3152 47.8173 65.571 47.8173H47.0427C43.8718 47.8173 41.2924 45.2357 41.2924 42.0659V42.0604H41.314L41.2924 16.2836C41.2924 13.1127 43.8718 10.5322 47.0427 10.5322H88.0555C91.2265 10.5322 93.8059 13.1138 93.8059 16.2836V42.0648Z" fill="#F24E1E"/>
<path d="M79.2697 20.202H55.8285C54.21 20.202 52.8981 21.5129 52.8981 23.1324C52.8981 24.752 54.21 26.0629 55.8285 26.0629H79.2707C80.8892 26.0629 82.2012 24.752 82.2012 23.1324C82.2012 21.5129 80.8882 20.202 79.2697 20.202Z" fill="#F24E1E"/>
<path d="M79.2697 31.9226H55.8285C54.21 31.9226 52.8981 33.2334 52.8981 34.853C52.8981 36.4726 54.21 37.7834 55.8285 37.7834H79.2707C80.8892 37.7834 82.2012 36.4726 82.2012 34.853C82.2012 33.2334 80.8882 31.9226 79.2697 31.9226Z" fill="#F24E1E"/>
<path d="M24.7563 58.5412C24.4053 58.656 24.1117 58.89 23.8192 59.1251C23.2917 59.709 22.9396 60.476 22.9396 61.2365C22.9396 61.997 23.2906 62.7586 23.8192 63.2851C24.4053 63.869 25.1084 64.167 25.87 64.167C26.2795 64.167 26.6912 64.0467 27.0422 63.9319C27.3942 63.8116 27.6867 63.5765 27.9792 63.2851C28.5068 62.7586 28.8589 61.997 28.8589 61.2365C28.8589 60.476 28.5068 59.708 27.9792 59.1251C27.1592 58.3646 25.87 58.0721 24.7563 58.5412Z" fill="#F24E1E"/>
<path d="M38.7628 58.5412C37.6492 58.0721 36.36 58.3635 35.5399 59.1251C35.0123 59.709 34.7198 60.476 34.7198 61.2365C34.7198 61.997 35.0123 62.7586 35.5399 63.2851C35.8324 63.5765 36.126 63.8116 36.477 63.9319C36.8876 64.0467 37.2386 64.1669 37.6492 64.1669C38.4118 64.1669 39.1149 63.869 39.701 63.2851C40.2286 62.7586 40.5807 61.997 40.5807 61.2365C40.5807 60.476 40.2286 59.7079 39.701 59.1251C39.4074 58.8911 39.1149 58.656 38.7628 58.5412Z" fill="#F24E1E"/>
<path d="M50.4844 58.5412C49.7813 58.2433 48.9602 58.2433 48.1986 58.5412C47.8476 58.656 47.554 58.89 47.2615 59.1251C46.7339 59.709 46.3818 60.476 46.3818 61.2365C46.3818 61.997 46.7328 62.7586 47.2615 63.2851C47.8476 63.869 48.5507 64.1669 49.3133 64.1669C49.7228 64.1669 50.1334 64.0467 50.4855 63.9319C50.8376 63.8116 51.1301 63.5765 51.4237 63.2851C51.9513 62.7586 52.2438 61.997 52.2438 61.2365C52.2438 60.476 51.9502 59.7079 51.4237 59.1251C51.129 58.8911 50.8365 58.656 50.4844 58.5412Z" fill="#F24E1E"/>
<path d="M20.0417 28.9933H25.9026C27.5211 28.9933 28.833 27.6824 28.833 26.0629C28.833 24.4433 27.5211 23.1324 25.9026 23.1324H20.0417C18.4232 23.1324 17.1113 24.4433 17.1113 26.0629C17.1102 27.6824 18.4222 28.9933 20.0417 28.9933Z" fill="#F24E1E"/>
<path d="M84.5066 75.8767H78.6458C77.0273 75.8767 75.7153 77.1875 75.7153 78.8071C75.7153 80.4267 77.0273 81.7375 78.6458 81.7375H84.5066C86.1251 81.7375 87.437 80.4267 87.437 78.8071C87.437 77.1875 86.1251 75.8767 84.5066 75.8767Z" fill="#F24E1E"/>
</svg>
