<svg width="28" height="28" viewBox="0 0 28 28" fill="none" xmlns="http://www.w3.org/2000/svg">
<g clip-path="url(#clip0_1062_1035)">
<path d="M22.2046 11.7737C23.1594 10.929 23.4227 9.49896 22.7611 8.35308C22.3953 7.71946 21.8046 7.2662 21.0979 7.07683C20.5707 6.93553 20.026 6.95385 19.5202 7.12418L15.8812 0.821189C15.4282 0.03665 14.4213 -0.233157 13.6368 0.219729C12.8843 0.654241 12.6059 1.59818 12.984 2.36686C12.7703 6.02779 10.9983 9.38971 8.10308 11.6178L3.47104 14.292C2.92558 14.607 2.53541 15.1155 2.3724 15.7238C2.26211 16.1355 2.26511 16.5594 2.3759 16.9595L1.23237 17.6198C0.86096 17.8342 0.595364 18.1804 0.484357 18.5946C0.373351 19.0088 0.43033 19.4414 0.644743 19.8128L1.77838 21.7764C2.07542 22.2908 2.61612 22.5788 3.17143 22.5788C3.44359 22.5788 3.7193 22.5096 3.97145 22.364L5.11498 21.7037C5.40611 21.9998 5.77172 22.2144 6.18338 22.3247C6.38653 22.3791 6.59263 22.406 6.79747 22.406C6.91684 22.406 7.03561 22.3957 7.15318 22.3775L10.5193 27.1325C10.9177 27.6953 11.5443 27.9999 12.1869 27.9999C12.536 27.9999 12.8899 27.9099 13.2143 27.7227C13.7119 27.4354 14.0678 26.9488 14.1907 26.3875C14.3137 25.8261 14.1937 25.2353 13.8617 24.7663L13.4964 24.2502L14.4074 23.7242C14.6652 23.5754 14.8498 23.3233 14.9139 23.0327C14.978 22.7421 14.9166 22.4357 14.7454 22.1923L13.9476 21.0577C13.6289 20.6044 13.0266 20.4715 12.5465 20.7485L11.461 21.3752L10.8077 20.4523C10.8077 20.4523 12.6552 19.3845 12.6702 19.3735C16.0286 18.0122 19.7946 18.1675 23.0481 19.8003C23.3603 20.2762 23.8852 20.5413 24.4238 20.5413C24.7023 20.5413 24.9844 20.4705 25.2425 20.3215C26.027 19.8685 26.2968 18.8616 25.8438 18.0771L22.2046 11.7737ZM20.8148 8.1332C21.2394 8.24694 21.5942 8.51926 21.8139 8.89991C22.1717 9.51963 22.0789 10.2777 21.6383 10.7929L20.0862 8.10454C20.3251 8.05965 20.573 8.0684 20.8148 8.1332ZM3.42467 21.4169C3.18029 21.558 2.86663 21.474 2.72555 21.2296L1.59191 19.266C1.52356 19.1476 1.5054 19.0097 1.54078 18.8777C1.57616 18.7457 1.66086 18.6353 1.7792 18.5669L2.857 17.9446L4.50242 20.7946L3.42467 21.4169ZM13.1224 26.1536C13.0644 26.4189 12.9028 26.6398 12.6676 26.7756C12.2382 27.0234 11.6985 26.9053 11.4121 26.5007L8.19736 21.9596L9.85666 21.0015L12.9692 25.3983C13.1261 25.62 13.1805 25.8883 13.1224 26.1536ZM13.0692 21.7097L13.8316 22.794L12.8618 23.3539L12.0957 22.2717L13.0692 21.7097ZM7.42589 21.142C7.13339 21.3108 6.7926 21.3557 6.46653 21.2684C6.14034 21.181 5.86769 20.9718 5.69883 20.6793L3.55514 16.9664C3.38628 16.6739 3.34144 16.3332 3.42882 16.007C3.51621 15.6808 3.72543 15.4082 4.01787 15.2393L8.19501 12.8276L11.603 18.7305L7.42589 21.142ZM24.6957 19.3745C24.4334 19.5259 24.0968 19.4357 23.9454 19.1733L20.1945 12.6766C20.0435 12.4151 19.7091 12.3254 19.4475 12.4765C19.186 12.6275 19.0964 12.9619 19.2474 13.2234L22.126 18.2093C19.0475 17.072 15.6676 17.0712 12.5795 18.2338L9.1063 12.2181C11.6572 10.125 13.3464 7.19757 13.9008 3.96284L16.788 8.96367C16.9389 9.22516 17.2733 9.31474 17.5349 9.16381C17.7965 9.01278 17.8861 8.67839 17.7351 8.41684L13.9826 1.91726C13.8311 1.65494 13.9214 1.31831 14.1836 1.16684C14.446 1.01553 14.7825 1.1056 14.934 1.36797L24.8968 18.624C25.0482 18.8864 24.958 19.223 24.6957 19.3745Z" fill="#7E30E1"/>
<path d="M24.1866 8.07731C24.2793 8.07731 24.3734 8.05364 24.4595 8.00393L26.8212 6.6404C27.0828 6.48942 27.1724 6.15498 27.0214 5.89343C26.8703 5.63188 26.5359 5.54215 26.2744 5.69329L23.9127 7.05682C23.6511 7.20785 23.5615 7.54224 23.7125 7.80379C23.8137 7.97921 23.9975 8.07731 24.1866 8.07731Z" fill="#7E30E1"/>
<path d="M21.3835 6.0182C21.4309 6.03089 21.4785 6.03701 21.5254 6.03701C21.7668 6.03701 21.9878 5.87586 22.0532 5.63153L22.6966 3.23029C22.7748 2.93861 22.6017 2.63878 22.31 2.56059C22.0182 2.48222 21.7184 2.65551 21.6402 2.94725L20.9968 5.34849C20.9186 5.64017 21.0917 5.94 21.3835 6.0182Z" fill="#7E30E1"/>
<path d="M27.1655 10.9703L24.7642 10.3269C24.4724 10.2487 24.1727 10.4218 24.0945 10.7135C24.0163 11.0052 24.1894 11.305 24.4811 11.3832L26.8824 12.0267C26.9298 12.0394 26.9774 12.0455 27.0243 12.0455C27.2657 12.0455 27.4867 11.8844 27.5521 11.64C27.6303 11.3483 27.4572 11.0485 27.1655 10.9703Z" fill="#7E30E1"/>
<path d="M18.4821 11.3704C18.7841 11.3704 19.029 11.1256 19.029 10.8236C19.029 10.5216 18.7841 10.2767 18.4821 10.2767C18.1801 10.2767 17.9353 10.5216 17.9353 10.8236C17.9353 11.1256 18.1801 11.3704 18.4821 11.3704Z" fill="#7E30E1"/>
</g>
<defs>
<clipPath id="clip0_1062_1035">
<rect width="28" height="28" fill="white"/>
</clipPath>
</defs>
</svg>
