<svg width="28" height="28" viewBox="0 0 28 28" fill="none" xmlns="http://www.w3.org/2000/svg">
<g clip-path="url(#clip0_1057_561)">
<path d="M27.9983 0.514057C27.9882 0.380784 27.9341 0.247839 27.8452 0.158534C27.6966 0.00929247 27.4486 -0.0427152 27.252 0.0376206L0.341032 10.9762C0.147548 11.0548 0.0157509 11.2367 0.00131341 11.4451C-0.0131241 11.6534 0.0923679 11.8517 0.273219 11.9563L5.05334 14.7205C5.05334 14.7205 9.12815 23.5214 9.13039 23.5262C9.29604 23.884 9.80644 23.9458 10.0531 23.6386C10.0544 23.6369 10.056 23.6354 10.0573 23.6337L13.3023 19.4905C13.3023 19.4905 18.4265 22.4537 18.4326 22.4573C18.7063 22.6155 19.0863 22.5002 19.2128 22.1906C19.2128 22.1906 27.9607 0.759877 27.9643 0.751072C27.9939 0.678666 28.0044 0.596307 27.9983 0.514057ZM1.78817 11.5687L22.0024 3.35222L5.57358 13.7577L1.78817 11.5687ZM10.0427 16.8039C9.9606 16.8842 9.89793 17.0076 9.88272 17.124L9.3294 21.3526L6.22228 14.6417L23.3546 3.7906C23.3546 3.7906 10.0495 16.7972 10.0427 16.8039ZM10.4357 21.3764L10.8762 18.0876L12.3458 18.9375L10.4357 21.3764ZM18.4371 21.1963L11.3228 17.0823L18.7151 9.85576L25.9554 2.77806L18.4371 21.1963Z" fill="#4169E1"/>
<path d="M6.70423 21.2963C6.59874 21.1908 6.45814 21.1382 6.31754 21.1382C6.17688 21.1382 6.03622 21.191 5.93084 21.2963C5.93084 21.2963 1.7548 25.472 1.7536 25.4732C1.54644 25.6803 1.54037 26.0333 1.7536 26.2465C1.96469 26.4576 2.31644 26.4571 2.52704 26.2465L6.70423 22.0697C6.91757 21.8564 6.91757 21.5097 6.70423 21.2963Z" fill="#4169E1"/>
<path d="M0.59337 26.8596C0.299808 26.8596 0.0463867 27.115 0.0463867 27.4065C0.0463867 27.6991 0.292316 27.9534 0.593315 27.9535C0.890924 27.9535 1.1403 27.7036 1.1403 27.4066C1.14035 27.1177 0.88201 26.8597 0.59337 26.8596Z" fill="#4169E1"/>
<path d="M14.2798 22.8004C14.1744 22.6949 14.0338 22.6423 13.8932 22.6423C13.7524 22.6423 13.6118 22.6951 13.5064 22.8004L10.7989 25.5077C10.5856 25.7211 10.5856 26.0677 10.7988 26.2811C11.006 26.4883 11.3662 26.4873 11.5723 26.2811L14.2798 23.5738C14.4931 23.3605 14.4931 23.0138 14.2798 22.8004Z" fill="#4169E1"/>
<path d="M4.16074 16.3466C3.952 16.1378 3.59495 16.1389 3.3873 16.3466C3.3873 16.3466 1.84123 17.892 1.83992 17.8933C1.62877 18.1044 1.62899 18.4562 1.83992 18.6671C1.94355 18.7708 2.08514 18.8221 2.22667 18.822C2.36864 18.8219 2.51055 18.77 2.61397 18.6672L4.16074 17.1199C4.37408 16.9066 4.37408 16.5599 4.16074 16.3466Z" fill="#4169E1"/>
<path d="M9.62671 28C9.92874 28 10.1736 27.7552 10.1736 27.4531C10.1736 27.1511 9.92874 26.9062 9.62671 26.9062C9.32468 26.9062 9.07983 27.1511 9.07983 27.4531C9.07983 27.7552 9.32468 28 9.62671 28Z" fill="#4169E1"/>
<path d="M0.656249 20.3979C0.958279 20.3979 1.20312 20.1531 1.20312 19.8511C1.20312 19.549 0.958279 19.3042 0.656249 19.3042C0.354219 19.3042 0.109375 19.549 0.109375 19.8511C0.109375 20.1531 0.354219 20.3979 0.656249 20.3979Z" fill="#4169E1"/>
</g>
<defs>
<clipPath id="clip0_1057_561">
<rect width="28" height="28" fill="white"/>
</clipPath>
</defs>
</svg>
