<svg width="28" height="28" viewBox="0 0 28 28" fill="none" xmlns="http://www.w3.org/2000/svg">
<g clip-path="url(#clip0_1064_1238)">
<path d="M2.73437 24.7187C2.43253 24.7187 2.1875 24.9637 2.1875 25.2656C2.1875 25.5674 2.43253 25.8125 2.73437 25.8125C3.03622 25.8125 3.28125 25.5674 3.28125 25.2656C3.28125 24.9637 3.03622 24.7187 2.73437 24.7187Z" fill="#7E30E1"/>
<path d="M27.9999 8.20698V8.20313C27.9999 8.00831 27.8931 7.82438 27.7235 7.72782L14.2704 0.0715865C14.1029 -0.0239028 13.8972 -0.0239028 13.7295 0.0715865L0.276428 7.72782C0.0860899 7.83613 0.0123901 7.99592 0 8.20698V9.29688C0 10.2016 0.736144 10.9375 1.64062 10.9375H2.51562V11.4844C2.51562 12.1972 2.97299 12.8052 3.60937 13.031V20.4377C2.97299 20.6635 2.51562 21.2715 2.51562 21.9844V22.5312H1.64062C1.38962 22.5312 1.17087 22.7021 1.1102 22.9454L0.0164489 27.3204C-0.024353 27.4839 0.0121765 27.6569 0.115783 27.7898C0.219604 27.9224 0.378539 28 0.546874 28H27.4531C27.6214 28 27.7806 27.9224 27.8842 27.7895C27.9878 27.6569 28.0245 27.4839 27.9837 27.3204L26.89 22.9454C26.8291 22.7021 26.6103 22.5312 26.3593 22.5312H25.4843V21.9844C25.4843 21.2715 25.0272 20.6635 24.3906 20.4377V13.031C25.0272 12.8052 25.4843 12.1974 25.4843 11.4844V10.9375H26.3593C27.264 10.9375 27.9999 10.2016 27.9999 9.29688C27.9999 9.29688 27.9999 8.2074 27.9999 8.20698ZM14 1.17623L25.3865 7.65626H2.61346L14 1.17623ZM7.98436 10.9375V11.4844C7.98436 11.786 7.73912 12.0312 7.43749 12.0312H4.15624C3.85482 12.0312 3.60937 11.786 3.60937 11.4844V10.9375H7.98436ZM10.7187 10.9375V11.4844C10.7187 12.1972 11.1761 12.8052 11.8125 13.031V20.4377C11.1761 20.6635 10.7187 21.2715 10.7187 21.9844V22.5312H9.07811V21.9844C9.07811 21.2715 8.62096 20.6635 7.98436 20.4377V13.031C8.62096 12.8052 9.07811 12.1974 9.07811 11.4844V10.9375H10.7187ZM16.1875 10.9375V11.4844C16.1875 11.786 15.9422 12.0312 15.6406 12.0312H12.3594C12.0579 12.0312 11.8125 11.786 11.8125 11.4844V10.9375H16.1875ZM18.9218 10.9375V11.4844C18.9218 12.1972 19.3792 12.8052 20.0156 13.031V20.4377C19.3792 20.6635 18.9218 21.2715 18.9218 21.9844V22.5312H17.2812V21.9844C17.2812 21.2715 16.8241 20.6635 16.1875 20.4377V13.031C16.8241 12.8052 17.2812 12.1974 17.2812 11.4844V10.9375H18.9218ZM23.2968 13.125V20.3437H21.1093V13.125H23.2968ZM11.8125 22.5312V21.9844C11.8125 21.6827 12.0579 21.4375 12.3594 21.4375H15.6406C15.9422 21.4375 16.1875 21.6827 16.1875 21.9844V22.5312H11.8125ZM15.0937 13.125V20.3437H12.9062V13.125H15.0937ZM4.70312 20.3437V13.125H6.89061V20.3437H4.70312ZM3.60937 21.9844C3.60937 21.6827 3.85482 21.4375 4.15624 21.4375H7.43749C7.73912 21.4375 7.98436 21.6827 7.98436 21.9844V22.5312H3.60937V21.9844ZM26.7526 26.9062H1.24734L2.06765 23.625H25.9325L26.7526 26.9062ZM20.0156 22.5312V21.9844C20.0156 21.6827 20.261 21.4375 20.5625 21.4375H23.8437C24.1453 21.4375 24.3906 21.6827 24.3906 21.9844V22.5312H20.0156ZM24.3906 11.4844C24.3906 11.786 24.1453 12.0312 23.8437 12.0312H20.5625C20.261 12.0312 20.0156 11.786 20.0156 11.4844V10.9375H24.3906V11.4844ZM26.3593 9.84375H1.64062C1.3392 9.84375 1.09375 9.59851 1.09375 9.29688V8.75001H26.9062V9.29688C26.9062 9.59851 26.661 9.84375 26.3593 9.84375Z" fill="#7E30E1"/>
<path d="M14 3.28128C13.0955 3.28128 12.3594 4.01721 12.3594 4.9219C12.3594 5.82659 13.0955 6.56252 14 6.56252C14.9047 6.56252 15.6406 5.82659 15.6406 4.9219C15.6406 4.01721 14.9047 3.28128 14 3.28128ZM14 5.46878C13.6986 5.46878 13.4531 5.22354 13.4531 4.9219C13.4531 4.62027 13.6986 4.37503 14 4.37503C14.3016 4.37503 14.5469 4.62027 14.5469 4.9219C14.5469 5.22354 14.3016 5.46878 14 5.46878Z" fill="#7E30E1"/>
<path d="M4.375 25.2656C4.375 25.5677 4.62003 25.8125 4.92187 25.8125H25.2656C25.5676 25.8125 25.8125 25.5677 25.8125 25.2656C25.8125 24.9635 25.5676 24.7187 25.2656 24.7187H4.92187C4.62003 24.7187 4.375 24.9635 4.375 25.2656Z" fill="#7E30E1"/>
</g>
<defs>
<clipPath id="clip0_1064_1238">
<rect width="28" height="28" fill="white"/>
</clipPath>
</defs>
</svg>
