<svg width="28" height="28" viewBox="0 0 28 28" fill="none" xmlns="http://www.w3.org/2000/svg">
<path d="M26.3905 5.94703H15.2656L18.3999 2.81272C18.6135 2.59917 18.6135 2.25288 18.3999 2.03928C18.1864 1.82578 17.8401 1.82578 17.6265 2.03928L14 5.66577L11.4009 3.06669C11.1874 2.85319 10.8411 2.85319 10.6275 3.06669C10.4139 3.28024 10.4139 3.62653 10.6275 3.84013L12.7344 5.94703H1.60945C0.721984 5.94703 0 6.66901 0 7.55648V24.5114C0 25.3989 0.721984 26.1209 1.60945 26.1209H26.3905C27.278 26.1209 28 25.3989 28 24.5114V7.55648C28 6.66901 27.278 5.94703 26.3905 5.94703ZM26.9062 24.5114C26.9062 24.7957 26.6749 25.0271 26.3905 25.0271H1.60945C1.32508 25.0271 1.09375 24.7958 1.09375 24.5114V7.55648C1.09375 7.27216 1.32508 7.04078 1.60945 7.04078H26.3905C26.6749 7.04078 26.9062 7.2721 26.9062 7.55648V24.5114Z" fill="#4169E1"/>
<path d="M19.7423 8.56372H3.20459C2.90255 8.56372 2.65771 8.80861 2.65771 9.1106V22.9573C2.65771 23.2593 2.90255 23.5042 3.20459 23.5042H19.7423C20.0443 23.5042 20.2892 23.2593 20.2892 22.9573V9.1106C20.2892 8.80856 20.0443 8.56372 19.7423 8.56372ZM19.1954 22.4104H3.75146V9.65747H19.1954V22.4104Z" fill="#4169E1"/>
<path d="M23.9765 19.0848C22.8455 19.0848 21.9255 20.0049 21.9255 21.1358C21.9255 22.2667 22.8456 23.1868 23.9765 23.1868C25.1074 23.1868 26.0274 22.2667 26.0274 21.1358C26.0274 20.0049 25.1074 19.0848 23.9765 19.0848ZM23.9765 22.093C23.4487 22.093 23.0193 21.6636 23.0193 21.1358C23.0193 20.608 23.4487 20.1786 23.9765 20.1786C24.5043 20.1786 24.9337 20.608 24.9337 21.1358C24.9337 21.6636 24.5043 22.093 23.9765 22.093Z" fill="#4169E1"/>
<path d="M25.4804 15.4871H22.4722C22.1701 15.4871 21.9253 15.732 21.9253 16.0339C21.9253 16.3359 22.1701 16.5808 22.4722 16.5808H25.4804C25.7824 16.5808 26.0272 16.3359 26.0272 16.0339C26.0272 15.732 25.7824 15.4871 25.4804 15.4871Z" fill="#4169E1"/>
<path d="M25.4804 13.202H22.4722C22.1701 13.202 21.9253 13.4469 21.9253 13.7489C21.9253 14.0509 22.1701 14.2958 22.4722 14.2958H25.4804C25.7824 14.2958 26.0272 14.0509 26.0272 13.7489C26.0272 13.4469 25.7824 13.202 25.4804 13.202Z" fill="#4169E1"/>
<path d="M25.4804 10.917H22.4722C22.1701 10.917 21.9253 11.1619 21.9253 11.4639C21.9253 11.7659 22.1701 12.0107 22.4722 12.0107H25.4804C25.7824 12.0107 26.0272 11.7659 26.0272 11.4639C26.0272 11.1619 25.7824 10.917 25.4804 10.917Z" fill="#4169E1"/>
<path d="M7.41368 18.7053C7.69619 18.8123 8.01185 18.6702 8.11893 18.3878L8.38728 17.68H10.2258L10.4911 18.3862C10.5735 18.6056 10.7818 18.7409 11.0031 18.7409C11.067 18.7409 11.132 18.7296 11.1954 18.7058C11.4781 18.5996 11.6212 18.2843 11.515 18.0015L9.91476 13.7422C9.91284 13.7372 9.91093 13.7322 9.90891 13.7272C9.80926 13.484 9.57531 13.327 9.3127 13.327H9.31199C9.04911 13.3274 8.81516 13.485 8.71595 13.7286C8.71426 13.7326 8.71267 13.7367 8.71108 13.741L7.09622 18.0001C6.98914 18.2824 7.13127 18.5982 7.41368 18.7053ZM9.31073 15.2445L9.81484 16.5863H8.80198L9.31073 15.2445Z" fill="#4169E1"/>
<path d="M12.3998 18.5178C12.5023 18.6197 12.6409 18.6769 12.7853 18.6769H12.7874C12.8231 18.6767 13.6661 18.6734 14.0031 18.6676C15.2709 18.6453 16.1911 17.5377 16.1911 16.0339C16.1911 14.4531 15.2941 13.391 13.9589 13.391H12.7769C12.6316 13.391 12.4924 13.4488 12.3898 13.5516C12.2872 13.6544 12.2297 13.7938 12.23 13.939L12.2385 18.1311C12.2388 18.2763 12.2968 18.4155 12.3998 18.5178ZM13.9589 14.4847C15.0425 14.4847 15.0974 15.7753 15.0974 16.0339C15.0974 16.7908 14.7531 17.5605 13.984 17.574C13.8335 17.5767 13.5718 17.5787 13.3311 17.5803L13.3249 14.4847H13.9589Z" fill="#4169E1"/>
</svg>
