<svg width="28" height="28" viewBox="0 0 28 28" fill="none" xmlns="http://www.w3.org/2000/svg">
<g clip-path="url(#clip0_1057_782)">
<path d="M8.95017 13.6365C8.73634 13.8496 8.73634 14.1959 8.95017 14.4098C9.16401 14.623 9.51008 14.623 9.72349 14.4098C9.93732 14.1959 9.93732 13.8496 9.72349 13.6365C9.51008 13.4226 9.16401 13.4226 8.95017 13.6365Z" fill="#F24E1E"/>
<path d="M11.3528 23.5848L12.7322 21.2853L13.5903 22.1435C13.6281 22.1813 13.67 22.2118 13.7144 22.2362L14.2096 25.7011C14.2737 26.1493 14.821 26.3268 15.1376 26.0105L19.7779 21.3702C19.8657 21.2824 19.9208 21.1674 19.9347 21.044L20.4937 16.0142L23.5863 12.921C24.9443 11.563 26.0257 9.66406 26.8007 7.27704C27.9064 3.87083 27.9966 0.694046 27.9998 0.560318C28.0034 0.410782 27.9457 0.266159 27.8398 0.160203C27.734 0.0542458 27.5903 -0.00385957 27.4397 0.000199258C27.3061 0.00361722 24.1294 0.0935523 20.7229 1.19926C18.3359 1.97429 16.437 3.05586 15.079 4.41386L11.9866 7.50626L6.95602 8.06531C6.83255 8.07898 6.71762 8.13431 6.62982 8.22211L1.98951 12.8624C1.84296 13.009 1.79191 13.2256 1.85749 13.4219C1.92286 13.6184 2.09376 13.7611 2.29884 13.7904L5.76379 14.2856C5.83109 14.4084 5.83685 14.3791 6.71463 15.2678L4.41519 16.647C4.27079 16.7337 4.17444 16.8819 4.15393 17.0492C4.13321 17.2163 4.19089 17.3837 4.30988 17.5027L10.4972 23.6901C10.7474 23.9402 11.1689 23.8913 11.3528 23.5848ZM15.1376 24.4636L14.7507 21.7566L19.2556 17.2521L18.8687 20.7325L15.1376 24.4636ZM26.0201 6.07456L21.9254 1.97984C24.0142 1.39985 25.9379 1.19649 26.8725 1.12749C26.8037 2.0623 26.6001 3.98597 26.0201 6.07456ZM15.8523 5.18717C17.0277 4.01182 18.6732 3.05714 20.7447 2.34599L25.6542 7.25525C24.9428 9.32675 23.9882 10.9723 22.8128 12.1476L15.5242 19.4362L11.2708 15.1828C11.0571 14.9694 10.7109 14.9694 10.4972 15.1828C10.2836 15.3964 10.2836 15.7427 10.4972 15.9563L14.7507 20.2098L13.9772 20.9835L7.01669 14.023L12.6241 8.41586L15.8523 5.18717ZM7.26748 9.13129L10.7485 8.74442L6.24338 13.2493L3.53635 12.8624L7.26748 9.13129ZM7.51187 16.0651L11.9349 20.4881L10.7754 22.4214L5.5788 17.2248L7.51187 16.0651Z" fill="#F24E1E"/>
<path d="M0.933531 27.8397L6.62978 22.1435C6.8434 21.9301 6.8434 21.5838 6.62978 21.3702C6.41616 21.1566 6.07009 21.1566 5.85646 21.3702L0.160217 27.0664C-0.0534057 27.28 -0.0534057 27.6263 0.160217 27.84C0.37384 28.0534 0.719908 28.0534 0.933531 27.8397Z" fill="#F24E1E"/>
<path d="M8.17712 22.9168C7.96349 22.7032 7.61721 22.7032 7.40359 22.9168L4.02728 26.2931C3.81366 26.5067 3.81366 26.853 4.02728 27.0666C4.24091 27.2801 4.58697 27.2801 4.8006 27.0666L8.17712 23.6901C8.39052 23.4765 8.39052 23.1302 8.17712 22.9168Z" fill="#F24E1E"/>
<path d="M4.30984 19.8231L0.933532 23.1994C0.71991 23.413 0.71991 23.7593 0.933532 23.9729C1.14716 24.1863 1.49322 24.1863 1.70685 23.9729L5.08337 20.5964C5.29677 20.383 5.29677 20.0367 5.08337 19.8231C4.86974 19.6094 4.52346 19.6094 4.30984 19.8231Z" fill="#F24E1E"/>
<path d="M20.106 12.5345C21.3849 11.2553 21.3849 9.17374 20.1058 7.89393C18.8262 6.61497 16.7446 6.61518 15.4654 7.89414C14.1837 9.17609 14.1824 11.2521 15.4654 12.5345C16.7474 13.8168 18.8232 13.817 20.106 12.5345ZM16.239 8.66745C17.0915 7.81489 18.4794 7.81489 19.3324 8.66745C20.185 9.52045 20.1852 10.9084 19.3324 11.7609C18.4775 12.6158 17.0939 12.6165 16.239 11.7609C15.3841 10.9064 15.3836 9.52259 16.239 8.66745Z" fill="#F24E1E"/>
</g>
<defs>
<clipPath id="clip0_1057_782">
<rect width="28" height="28" fill="white"/>
</clipPath>
</defs>
</svg>
