<svg width="50" height="50" viewBox="0 0 50 50" fill="none" xmlns="http://www.w3.org/2000/svg">
<g clip-path="url(#clip0_236_92)">
<path d="M50 22.875C50 19.6208 48.3354 16.5792 45.6125 14.7771C45.6333 14.575 45.6438 14.3708 45.6438 14.1646C45.6438 10.0979 42.9875 6.84375 39.4042 6.36459C38.6958 2.76042 35.5042 0.0541687 31.7708 0.0541687C28.8792 0.0541687 26.3521 1.63125 25 3.97292C23.6479 1.63125 21.1208 0.0541687 18.2292 0.0541687C14.4979 0.0541687 11.3063 2.75834 10.5958 6.35834C7.03333 6.81459 4.35417 10.0792 4.35417 14.1625C4.35417 14.3708 4.36458 14.575 4.38542 14.775C1.6625 16.5771 0 19.6188 0 22.8729C0 24.8208 0.5875 26.6875 1.70417 28.3188C0.585417 29.95 0 31.8167 0 33.7646C0 37.1854 1.81458 40.3375 4.76875 42.1021C6.06458 46.8063 10.2896 50.0521 15.2 50.0521C19.5208 50.0521 23.2604 47.5104 25.0021 43.8438C26.7438 47.5104 30.4813 50.0521 34.8042 50.0521C39.7146 50.0521 43.9396 46.8063 45.2354 42.1021C48.1875 40.3375 50.0042 37.1854 50.0042 33.7646C50.0042 31.8167 49.4167 29.95 48.3 28.3188C49.4188 26.6875 50.0042 24.8208 50.0042 22.8729L50 22.875ZM15.1979 47.9708C11.1083 47.9708 7.60417 45.1792 6.68333 41.1833L6.57708 40.7229L6.16042 40.5C3.64583 39.1542 2.08333 36.5729 2.08333 33.7688C2.08333 32.0354 2.68125 30.3792 3.81458 28.9771L4.34167 28.3229L3.81458 27.6688C2.68333 26.2667 2.08333 24.6104 2.08333 22.8771C2.08333 20.1354 3.59375 17.5833 6.025 16.2188L6.67083 15.8563C6.67083 15.8563 6.43958 14.4958 6.43958 14.1646C6.43958 11.325 8.31667 8.38959 11.5125 8.38959H12.4771L12.5521 7.42917C12.7813 4.46459 15.275 2.13959 18.2313 2.13959C21.3917 2.13959 23.9604 4.70834 23.9604 7.86875V18.7521H17.5792C17.1146 16.9563 15.4833 15.6271 13.5438 15.6271C11.2458 15.6271 9.37708 17.4958 9.37708 19.7938C9.37708 22.0917 11.2458 23.9604 13.5438 23.9604C15.4813 23.9604 17.1146 22.6313 17.5792 20.8354H23.9604V33.3354H17.5792C17.1146 31.5396 15.4833 30.2104 13.5438 30.2104C11.2458 30.2104 9.37708 32.0792 9.37708 34.3771C9.37708 36.675 11.2458 38.5438 13.5438 38.5438C15.4813 38.5438 17.1146 37.2146 17.5792 35.4188H23.9604V39.2125C23.9604 44.0417 20.0313 47.9729 15.2 47.9729L15.1979 47.9708ZM15.625 19.7917C15.625 20.9396 14.6896 21.875 13.5417 21.875C12.3938 21.875 11.4583 20.9396 11.4583 19.7917C11.4583 18.6438 12.3938 17.7083 13.5417 17.7083C14.6896 17.7083 15.625 18.6438 15.625 19.7917ZM15.625 34.375C15.625 35.5229 14.6896 36.4583 13.5417 36.4583C12.3938 36.4583 11.4583 35.5229 11.4583 34.375C11.4583 33.2271 12.3938 32.2917 13.5417 32.2917C14.6896 32.2917 15.625 33.2271 15.625 34.375ZM46.1854 28.975C47.3167 30.3771 47.9167 32.0333 47.9167 33.7667C47.9167 36.5729 46.3542 39.1521 43.8396 40.4979L43.4229 40.7208L43.3167 41.1813C42.3938 45.1771 38.8917 47.9688 34.8021 47.9688C29.9729 47.9688 26.0417 44.0396 26.0417 39.2083V31.2479H37.5V23.825C39.2958 23.3604 40.625 21.7292 40.625 19.7896C40.625 17.4917 38.7563 15.6229 36.4583 15.6229C34.1604 15.6229 32.2917 17.4917 32.2917 19.7896C32.2917 21.7271 33.6208 23.3604 35.4167 23.825V29.1646H26.0417V7.86667C26.0417 4.70625 28.6104 2.1375 31.7708 2.1375C34.7271 2.1375 37.2208 4.46042 37.45 7.42709L37.5771 8.3875H38.5417C41.6833 8.3875 43.5604 11.325 43.5604 14.1625C43.5604 14.4938 43.3313 15.8542 43.3313 15.8542L43.975 16.2167C46.4063 17.5813 47.9167 20.1333 47.9167 22.875C47.9167 24.6083 47.3188 26.2646 46.1854 27.6667L45.6583 28.3208L46.1854 28.975ZM36.4583 21.875C35.3104 21.875 34.375 20.9396 34.375 19.7917C34.375 18.6438 35.3104 17.7083 36.4583 17.7083C37.6063 17.7083 38.5417 18.6438 38.5417 19.7917C38.5417 20.9396 37.6063 21.875 36.4583 21.875Z" fill="white"/>
</g>
<defs>
<clipPath id="clip0_236_92">
<rect width="50" height="50" fill="white"/>
</clipPath>
</defs>
</svg>
