<svg width="903" height="128" viewBox="0 0 903 145" fill="none" xmlns="http://www.w3.org/2000/svg">
<path d="M0.877344 72.6C0.877344 58.7333 3.87734 46.4 9.87734 35.6C15.8773 24.6667 24.2107 16.2 34.8773 10.2C45.6773 4.06666 57.8773 0.999992 71.4773 0.999992C88.144 0.999992 102.411 5.39999 114.277 14.2C126.144 23 134.077 35 138.077 50.2H100.477C97.6774 44.3333 93.6774 39.8667 88.4773 36.8C83.4107 33.7333 77.6107 32.2 71.0773 32.2C60.544 32.2 52.0107 35.8667 45.4773 43.2C38.944 50.5333 35.6773 60.3333 35.6773 72.6C35.6773 84.8667 38.944 94.6667 45.4773 102C52.0107 109.333 60.544 113 71.0773 113C77.6107 113 83.4107 111.467 88.4773 108.4C93.6774 105.333 97.6774 100.867 100.477 95H138.077C134.077 110.2 126.144 122.2 114.277 131C102.411 139.667 88.144 144 71.4773 144C57.8773 144 45.6773 141 34.8773 135C24.2107 128.867 15.8773 120.4 9.87734 109.6C3.87734 98.8 0.877344 86.4667 0.877344 72.6ZM203.221 116.6H248.021V143H169.021V2.6H203.221V116.6ZM308.534 2.6V143H274.334V2.6H308.534ZM377.518 30V58.4H423.318V84.8H377.518V115.6H429.318V143H343.318V2.6H429.318V30H377.518ZM587.121 143H552.921L495.721 56.4V143H461.521V2.6H495.721L552.921 89.6V2.6H587.121V143ZM722.912 2.6V30H685.712V143H651.512V30H614.312V2.6H722.912ZM800.876 144.4C790.609 144.4 781.409 142.733 773.276 139.4C765.142 136.067 758.609 131.133 753.676 124.6C748.876 118.067 746.342 110.2 746.076 101H782.476C783.009 106.2 784.809 110.2 787.876 113C790.942 115.667 794.942 117 799.876 117C804.942 117 808.942 115.867 811.876 113.6C814.809 111.2 816.276 107.933 816.276 103.8C816.276 100.333 815.076 97.4667 812.676 95.2C810.409 92.9333 807.542 91.0667 804.076 89.6C800.742 88.1333 795.942 86.4667 789.676 84.6C780.609 81.8 773.209 79 767.476 76.2C761.742 73.4 756.809 69.2667 752.676 63.8C748.542 58.3333 746.476 51.2 746.476 42.4C746.476 29.3333 751.209 19.1333 760.676 11.8C770.142 4.33333 782.476 0.599998 797.676 0.599998C813.142 0.599998 825.609 4.33333 835.076 11.8C844.542 19.1333 849.609 29.4 850.276 42.6H813.276C813.009 38.0667 811.342 34.5333 808.276 32C805.209 29.3333 801.276 28 796.476 28C792.342 28 789.009 29.1333 786.476 31.4C783.942 33.5333 782.676 36.6667 782.676 40.8C782.676 45.3333 784.809 48.8667 789.076 51.4C793.342 53.9333 800.009 56.6667 809.076 59.6C818.142 62.6667 825.476 65.6 831.076 68.4C836.809 71.2 841.742 75.2667 845.876 80.6C850.009 85.9333 852.076 92.8 852.076 101.2C852.076 109.2 850.009 116.467 845.876 123C841.876 129.533 836.009 134.733 828.276 138.6C820.542 142.467 811.409 144.4 800.876 144.4Z" fill="#F7F7F7"/>
</svg>
