<svg width="50" height="50" viewBox="0 0 50 50" fill="none" xmlns="http://www.w3.org/2000/svg">
<g clip-path="url(#clip0_236_84)">
<path d="M45.8333 37.8583V12.1417C48.2583 11.2812 50 8.96667 50 6.25C50 2.80417 47.1958 0 43.75 0C41.0333 0 38.7188 1.74167 37.8583 4.16667H12.1417C11.2812 1.74167 8.96667 0 6.25 0C2.80417 0 0 2.80417 0 6.25C0 8.96667 1.74167 11.2812 4.16667 12.1417V37.8583C1.74167 38.7188 0 41.0333 0 43.75C0 47.1958 2.80417 50 6.25 50C8.96667 50 11.2812 48.2583 12.1417 45.8333H37.8583C38.7188 48.2583 41.0333 50 43.75 50C47.1958 50 50 47.1958 50 43.75C50 41.0333 48.2583 38.7188 45.8333 37.8583ZM43.75 2.08333C46.0479 2.08333 47.9167 3.95208 47.9167 6.25C47.9167 8.54792 46.0479 10.4167 43.75 10.4167C41.4521 10.4167 39.5833 8.54792 39.5833 6.25C39.5833 3.95208 41.4521 2.08333 43.75 2.08333ZM2.08333 6.25C2.08333 3.95208 3.95208 2.08333 6.25 2.08333C8.54792 2.08333 10.4167 3.95208 10.4167 6.25C10.4167 8.54792 8.54792 10.4167 6.25 10.4167C3.95208 10.4167 2.08333 8.54792 2.08333 6.25ZM6.25 47.9167C3.95208 47.9167 2.08333 46.0479 2.08333 43.75C2.08333 41.4521 3.95208 39.5833 6.25 39.5833C8.54792 39.5833 10.4167 41.4521 10.4167 43.75C10.4167 46.0479 8.54792 47.9167 6.25 47.9167ZM12.5 43.75C12.5 40.3042 9.69583 37.5 6.25 37.5V12.5C9.69583 12.5 12.5 9.69583 12.5 6.25H37.5C37.5 9.69583 40.3042 12.5 43.75 12.5V37.5C40.3042 37.5 37.5 40.3042 37.5 43.75H12.5ZM43.75 47.9167C41.4521 47.9167 39.5833 46.0479 39.5833 43.75C39.5833 41.4521 41.4521 39.5833 43.75 39.5833C46.0479 39.5833 47.9167 41.4521 47.9167 43.75C47.9167 46.0479 46.0479 47.9167 43.75 47.9167ZM29.0854 22.9583V18.7917C29.0854 16.4938 27.2167 14.625 24.9187 14.625H16.5854C14.2875 14.625 12.4187 16.4938 12.4187 18.7917V22.9583C12.4187 25.2563 14.2875 27.125 16.5854 27.125H24.9187C27.2167 27.125 29.0854 25.2563 29.0854 22.9583ZM14.5021 22.9583V18.7917C14.5021 17.6417 15.4375 16.7083 16.5854 16.7083H24.9187C26.0667 16.7083 27.0021 17.6417 27.0021 18.7917V22.9583C27.0021 24.1083 26.0667 25.0417 24.9187 25.0417H16.5854C15.4375 25.0417 14.5021 24.1083 14.5021 22.9583ZM37.4187 27.125V31.2917C37.4187 33.5896 35.55 35.4583 33.2521 35.4583H24.9187C23.1313 35.4583 21.5437 34.3208 20.9708 32.6271C20.7875 32.0812 21.0792 31.4917 21.6229 31.3062C22.1667 31.1271 22.7583 31.4146 22.9437 31.9583C23.2312 32.8042 24.025 33.375 24.9187 33.375H33.2521C34.4 33.375 35.3354 32.4417 35.3354 31.2917V27.125C35.3354 26.2687 34.8 25.4875 34 25.1792C33.4625 24.9729 33.1937 24.3708 33.4 23.8333C33.6062 23.2958 34.2083 23.0292 34.7458 23.2333C36.3437 23.8458 37.4167 25.4104 37.4167 27.1229L37.4187 27.125Z" fill="white"/>
</g>
<defs>
<clipPath id="clip0_236_84">
<rect width="50" height="50" fill="white"/>
</clipPath>
</defs>
</svg>
