<svg width="50" height="50" viewBox="0 0 50 50" fill="none" xmlns="http://www.w3.org/2000/svg">
<g clip-path="url(#clip0_236_86)">
<path d="M49.8938 20.0067C49.8938 16.5963 47.1479 13.8171 43.75 13.7588V1.04211C43.75 0.49628 43.3292 0.0441968 42.7854 0.00253009C42.2479 -0.0349699 41.7604 0.348363 41.6771 0.887947C40.6729 7.60878 31.7896 8.33378 28.0167 8.33378H11.4563C5.13958 8.33378 0 13.4734 0 19.7921C0 23.2317 1.5375 26.3213 3.96667 28.4234L10.7313 46.5754C11.2083 47.8817 12.1646 48.9254 13.425 49.5129C14.125 49.8379 14.8708 50.0025 15.6208 50.0025C16.2229 50.0025 16.8271 49.8963 17.4083 49.6838C20.1063 48.7004 21.5 45.7046 20.5188 43.0088L16.2563 31.2504H28.1271C32.725 31.2504 40.6 32.2192 41.6833 38.7129C41.7688 39.2192 42.2042 39.5838 42.7104 39.5838C42.7396 39.5838 42.7688 39.5838 42.7979 39.5817C43.3375 39.5379 43.7542 39.0859 43.7542 38.5421V26.2525C47.1521 26.1942 49.8979 23.415 49.8979 20.0046L49.8938 20.0067ZM2.08333 19.7921C2.08333 14.6234 6.28958 10.4171 11.4583 10.4171H16.6667V29.1671H11.5646C6.33542 29.1671 2.08333 24.9609 2.08333 19.7921ZM18.5604 43.7213C18.8458 44.5046 18.8104 45.3546 18.4583 46.1088C18.1063 46.865 17.4792 47.44 16.6958 47.7254C15.0729 48.3171 13.2792 47.4775 12.6875 45.8525L6.87917 30.265C8.3125 30.8963 9.89792 31.2504 11.5667 31.2504H14.0396L18.5604 43.7213ZM41.6667 33.8525C39.1063 30.8296 34.4208 29.1671 28.125 29.1671H18.75V10.4171H28.0188C34.3875 10.4171 39.1042 8.77545 41.6667 5.78586V33.8525ZM43.75 24.1692V15.8421C45.9979 15.8984 47.8104 17.7442 47.8104 20.0067C47.8104 22.2692 46 24.1129 43.75 24.1713V24.1692Z" fill="white"/>
</g>
<defs>
<clipPath id="clip0_236_86">
<rect width="50" height="50" fill="white"/>
</clipPath>
</defs>
</svg>
