<svg xmlns="http://www.w3.org/2000/svg" width="1358" height="145" fill="none"><path fill="#F7F7F7" d="M34.612 30v28.4h45.8v26.4h-45.8v30.8h51.8V143h-86V2.6h86V30h-51.8Zm155.603 113-29.2-53h-8.2v53h-34.2V2.6h57.4c11.067 0 20.467 1.933 28.2 5.8 7.867 3.867 13.733 9.2 17.6 16 3.867 6.667 5.8 14.133 5.8 22.4 0 9.333-2.667 17.667-8 25-5.2 7.333-12.933 12.533-23.2 15.6l32.4 55.6h-38.6Zm-37.4-77.2h21.2c6.267 0 10.933-1.533 14-4.6 3.2-3.067 4.8-7.4 4.8-13 0-5.333-1.6-9.533-4.8-12.6-3.067-3.067-7.733-4.6-14-4.6h-21.2v34.8ZM293.284 30v28.4h45.8v26.4h-45.8v30.8h51.8V143h-86V2.6h86V30h-51.8Zm170.003 113-28.6-43-25.2 43h-38.8l45-71.4-46-69h39.8l28.2 42.4 24.8-42.4h38.8l-44.6 70.8 46.4 69.6h-39.8Zm170.151 1.4c-10.266 0-19.466-1.667-27.6-5-8.133-3.333-14.666-8.267-19.6-14.8-4.8-6.533-7.333-14.4-7.6-23.6h36.4c.534 5.2 2.334 9.2 5.4 12 3.067 2.667 7.067 4 12 4 5.067 0 9.067-1.133 12-3.4 2.934-2.4 4.4-5.667 4.4-9.8 0-3.467-1.2-6.333-3.6-8.6-2.266-2.267-5.133-4.133-8.6-5.6-3.333-1.467-8.133-3.133-14.4-5-9.066-2.8-16.466-5.6-22.2-8.4-5.733-2.8-10.666-6.933-14.8-12.4-4.133-5.467-6.2-12.6-6.2-21.4 0-13.067 4.734-23.267 14.2-30.6 9.467-7.467 21.8-11.2 37-11.2 15.467 0 27.934 3.733 37.4 11.2 9.467 7.333 14.534 17.6 15.2 30.8h-37c-.266-4.533-1.933-8.067-5-10.6-3.066-2.667-7-4-11.8-4-4.133 0-7.466 1.133-10 3.4-2.533 2.133-3.8 5.267-3.8 9.4 0 4.533 2.134 8.067 6.4 10.6 4.267 2.533 10.934 5.267 20 8.2 9.067 3.067 16.4 6 22 8.8 5.734 2.8 10.667 6.867 14.8 12.2 4.134 5.333 6.2 12.2 6.2 20.6 0 8-2.066 15.267-6.2 21.8-4 6.533-9.866 11.733-17.6 15.6-7.733 3.867-16.866 5.8-27.4 5.8ZM816.685 2.6V30h-37.2v113h-34.2V30h-37.2V2.6h108.6Zm60.764 0v84c0 8.4 2.067 14.867 6.2 19.4 4.134 4.533 10.2 6.8 18.2 6.8s14.134-2.267 18.4-6.8c4.267-4.533 6.4-11 6.4-19.4v-84h34.2v83.8c0 12.533-2.666 23.133-8 31.8-5.333 8.667-12.533 15.2-21.6 19.6-8.933 4.4-18.933 6.6-30 6.6-11.066 0-21-2.133-29.8-6.4-8.666-4.4-15.533-10.933-20.6-19.6-5.066-8.8-7.6-19.467-7.6-32V2.6h34.2Zm170.011 0c14.8 0 27.74 2.933 38.8 8.8 11.07 5.867 19.6 14.133 25.6 24.8 6.14 10.533 9.2 22.733 9.2 36.6 0 13.733-3.06 25.933-9.2 36.6-6 10.667-14.6 18.933-25.8 24.8-11.06 5.867-23.93 8.8-38.6 8.8h-52.595V2.6h52.595Zm-2.2 110.8c12.94 0 23-3.533 30.2-10.6 7.2-7.067 10.8-17.067 10.8-30s-3.6-23-10.8-30.2c-7.2-7.2-17.26-10.8-30.2-10.8h-16.2v81.6h16.2ZM1184.38 2.6V143h-34.2V2.6h34.2Zm101.18 141.8c-13.2 0-25.33-3.067-36.4-9.2-10.93-6.133-19.66-14.667-26.2-25.6-6.4-11.067-9.6-23.467-9.6-37.2 0-13.733 3.2-26.067 9.6-37 6.54-10.933 15.27-19.467 26.2-25.6 11.07-6.133 23.2-9.2 36.4-9.2s25.27 3.067 36.2 9.2c11.07 6.133 19.74 14.667 26 25.6 6.4 10.933 9.6 23.267 9.6 37s-3.2 26.133-9.6 37.2c-6.4 10.933-15.06 19.467-26 25.6-10.93 6.133-23 9.2-36.2 9.2Zm0-31.2c11.2 0 20.14-3.733 26.8-11.2 6.8-7.467 10.2-17.333 10.2-29.6 0-12.4-3.4-22.267-10.2-29.6-6.66-7.467-15.6-11.2-26.8-11.2-11.33 0-20.4 3.667-27.2 11-6.66 7.333-10 17.267-10 29.8 0 12.4 3.34 22.333 10 29.8 6.8 7.333 15.87 11 27.2 11Z"/></svg>