<svg width="30" height="30" viewBox="0 0 30 30" fill="none" xmlns="http://www.w3.org/2000/svg">
<g clip-path="url(#clip0_276_107)">
<path d="M2.50875 30H0.00875092V20C0.0110644 17.0185 1.19587 14.1597 3.30326 12.0507C5.41065 9.94164 8.26854 8.75461 11.25 8.74998L17.3038 8.55748V0.539978L28.9125 12.1562C29.6155 12.8595 30.0105 13.8131 30.0105 14.8075C30.0105 15.8018 29.6155 16.7555 28.9125 17.4587L17.3063 29.075V21.0575L11.25 21.25C8.93148 21.2543 6.70929 22.1778 5.07066 23.8181C3.43204 25.4583 2.51073 27.6815 2.50875 30ZM11.2588 18.75L19.8113 18.5575V23.04L27.1538 15.6912C27.3881 15.4568 27.5197 15.1389 27.5197 14.8075C27.5197 14.476 27.3881 14.1581 27.1538 13.9237L19.805 6.57498V11.0575L11.25 11.25C8.92997 11.252 6.70552 12.1745 5.06501 13.815C3.4245 15.4555 2.50199 17.6799 2.5 20V22.9362C3.55264 21.6286 4.88517 20.5737 6.39948 19.8492C7.91379 19.1247 9.57131 18.7491 11.25 18.75H11.2588Z" fill="#4169E1"/>
</g>
<defs>
<clipPath id="clip0_276_107">
<rect width="30" height="30" fill="white"/>
</clipPath>
</defs>
</svg>
