<svg width="48" height="48" viewBox="0 0 48 48" fill="none" xmlns="http://www.w3.org/2000/svg">
<g clip-path="url(#clip0_24_94)">
<path d="M19 12H16C13.794 12 12 13.794 12 16V19C12 20.654 13.346 22 15 22H20V23C20 25.758 17.758 28 15 28C14.448 28 14 28.448 14 29C14 29.552 14.448 30 15 30C18.86 30 22 26.86 22 23V15C22 13.346 20.654 12 19 12ZM14 19V16C14 14.896 14.896 14 16 14H19C19.55 14 20 14.45 20 15V20H15C14.45 20 14 19.55 14 19ZM33 12H30C27.794 12 26 13.794 26 16V19C26 20.654 27.346 22 29 22H34V23C34 25.758 31.758 28 29 28C28.448 28 28 28.448 28 29C28 29.552 28.448 30 29 30C32.86 30 36 26.86 36 23V15C36 13.346 34.654 12 33 12ZM28 19V16C28 14.896 28.896 14 30 14H33C33.55 14 34 14.45 34 15V20H29C28.45 20 28 19.55 28 19ZM41 0H7C3.14 0 0 3.14 0 7V33C0 36.86 3.14 40 7 40H14.21L22.006 46.566C22.576 47.074 23.296 47.326 24.008 47.326C24.712 47.326 25.412 47.08 25.964 46.59L33.934 40H40.998C44.858 40 47.998 36.86 47.998 33V7C47.998 3.14 44.86 0 41 0ZM46 33C46 35.758 43.758 38 41 38H33.576C33.344 38 33.118 38.082 32.94 38.228L24.664 45.07C24.286 45.406 23.716 45.41 23.316 45.052L15.22 38.234C15.04 38.084 14.812 38 14.576 38H7C4.242 38 2 35.758 2 33V7C2 4.242 4.242 2 7 2H41C43.758 2 46 4.242 46 7V33Z" fill="#4169E1"/>
</g>
<defs>
<clipPath id="clip0_24_94">
<rect width="48" height="48" fill="white"/>
</clipPath>
</defs>
</svg>
