<svg width="463" height="496" viewBox="0 0 463 496" fill="none" xmlns="http://www.w3.org/2000/svg">
<path d="M111.659 376.441C92.2954 378.93 72.6814 373.107 58.1967 360.015C46.0622 349.047 38.5908 334.242 57.2478 318.893C101.898 282.158 98.3609 252.476 77.7642 231.47C57.1664 210.464 4.8119 167.977 37.0407 130.291C69.2707 92.6051 155.663 133.784 168.679 90.1328C181.697 46.4812 197.381 12.1057 238.218 2.67951C279.054 -6.74667 327.445 11.9057 336.746 54.477C345.956 96.6367 293.32 94.2842 343.168 162.307C372.484 202.311 323.791 288.011 279.747 270.418C235.703 252.825 181.841 279.846 179.952 329.516C178.708 362.271 138.738 372.96 111.659 376.441Z" fill="#E5E5E5"/>
<path d="M384.725 128.916C387.378 124.454 388.154 119.08 386.683 114.102C385.19 109.054 381.401 103.964 372.218 103.8C353.851 103.471 355.217 139.65 364.692 145.031C371.559 148.931 380.386 136.211 384.725 128.916Z" fill="#E5E5E5"/>
<path d="M144.315 72.8063C147.3 68.5595 148.483 63.2604 147.394 58.1844C146.29 53.0376 142.9 47.6745 133.754 46.8116C115.464 45.0871 114.077 81.265 123.115 87.3503C129.666 91.761 139.434 79.7509 144.315 72.8063Z" fill="#E5E5E5"/>
<path d="M0.915174 190.914C1.41055 194.108 3.16997 196.998 5.85154 198.804C8.57032 200.636 12.4089 201.576 16.8848 198.012C25.8354 190.883 12.4752 175.105 5.79107 176.281C0.94541 177.132 0.103494 185.689 0.915174 190.914Z" fill="#E5E5E5"/>
<path d="M362.737 176.177C362.065 179.34 362.683 182.665 364.548 185.307C366.439 187.986 369.692 190.229 375.142 188.487C386.041 185.004 377.993 163.939 371.327 162.662C366.497 161.736 363.836 171.006 362.737 176.177Z" fill="#E5E5E5"/>
<path d="M349.529 205.583C349.512 205.501 349.49 205.398 349.467 205.286C349.492 205.381 349.512 205.481 349.529 205.583Z" fill="#FD8471"/>
<path d="M223.849 432.575C282.385 405.773 323.983 371.26 316.762 355.489C309.541 339.718 256.234 348.661 197.698 375.463C139.162 402.265 97.5634 436.778 104.785 452.549C112.006 468.32 165.312 459.377 223.849 432.575Z" fill="#E5E5E5"/>
<path d="M290.622 66.0511L275.789 73.7016L273.996 74.626L272.181 56.0679L272.212 56.0853C272.218 56.0876 272.22 56.0911 272.226 56.0934L290.622 66.0511Z" fill="#18285D"/>
<path d="M275.789 62.6576V355.979C275.789 358.781 274.289 361.374 271.854 362.768L138.45 439.249C133.233 442.242 126.728 438.475 126.728 432.46V142.706C126.728 139.619 127.965 136.709 130.092 134.581C130.782 133.891 131.564 133.284 132.427 132.78L264.014 55.9013C266.759 54.2954 269.877 54.5792 272.212 56.0862C272.218 56.0886 272.22 56.092 272.226 56.0944C274.322 57.4549 275.789 59.8016 275.789 62.6576Z" fill="#001350"/>
<path d="M132.627 440.047L153.387 445.809V426.672L132.627 440.047Z" fill="#18285D"/>
<path d="M290.622 66.0508L275.789 73.7013V82.2565L158.035 150.288L130.092 134.581C130.782 133.891 131.564 133.284 132.427 132.78L264.014 55.9013C266.759 54.2954 269.877 54.5792 272.212 56.0862C272.218 56.0886 272.22 56.092 272.226 56.0944L290.622 66.0508Z" fill="#26246C"/>
<path d="M296.014 75.1177V362.628C296.014 366.331 294.032 369.751 290.819 371.591L162.419 445.202C155.532 449.15 146.952 444.18 146.952 436.242V150.136C146.952 146.466 148.901 143.071 152.072 141.218L280.472 66.2008C287.357 62.1762 296.014 67.1439 296.014 75.1177Z" fill="#3B3E7D"/>
<path d="M280.03 94.526V356.174C280.03 358.141 278.977 359.956 277.273 360.934L171.147 421.774C169.811 422.54 168.353 422.673 167.042 422.327C164.768 421.728 162.935 419.689 162.935 417.017V156.529C162.935 154.58 163.97 152.776 165.653 151.791L221.8 118.987L271.778 89.7885C272.107 89.599 272.442 89.442 272.782 89.3257C276.223 88.1408 280.03 90.6711 280.03 94.526Z" fill="white"/>
<path d="M188.799 365.11C188.077 365.11 187.376 364.736 186.989 364.066C186.412 363.067 186.754 361.79 187.753 361.213L265.747 316.184C266.745 315.607 268.023 315.949 268.6 316.948C269.177 317.947 268.835 319.223 267.836 319.8L189.841 364.83C189.512 365.02 189.154 365.11 188.799 365.11Z" fill="#E5E5E5"/>
<path d="M188.799 380.161C188.077 380.161 187.376 379.787 186.989 379.117C186.412 378.118 186.754 376.841 187.753 376.264L265.969 331.105C266.967 330.529 268.245 330.871 268.822 331.869C269.399 332.868 269.057 334.145 268.058 334.722L189.841 379.881C189.512 380.071 189.154 380.161 188.799 380.161Z" fill="#E5E5E5"/>
<path d="M188.799 395.213C188.077 395.213 187.376 394.838 186.989 394.168C186.412 393.17 186.754 391.893 187.753 391.316L265.969 346.157C266.967 345.58 268.245 345.922 268.822 346.921C269.399 347.92 269.057 349.197 268.058 349.774L189.841 394.932C189.512 395.122 189.154 395.213 188.799 395.213Z" fill="#E5E5E5"/>
<path d="M188.799 184.422C188.077 184.422 187.376 184.048 186.989 183.378C186.412 182.379 186.754 181.102 187.753 180.525L265.747 135.496C266.745 134.919 268.023 135.261 268.6 136.26C269.177 137.259 268.835 138.535 267.836 139.112L189.841 184.142C189.512 184.331 189.154 184.422 188.799 184.422Z" fill="#E5E5E5"/>
<path d="M190.104 137.304V151.394C190.104 153.443 192.328 154.72 194.098 153.687L249.806 121.169C250.621 120.693 251.122 119.82 251.122 118.876V101.762L190.104 137.304Z" fill="#3B3E7D"/>
<path d="M198.797 143.616C197.994 143.616 197.213 143.202 196.779 142.459C196.129 141.346 196.505 139.917 197.617 139.267L231.771 119.321C232.885 118.674 234.313 119.047 234.964 120.16C235.614 121.274 235.238 122.703 234.126 123.353L199.972 143.298C199.601 143.512 199.195 143.616 198.797 143.616Z" fill="#586197"/>
<path d="M244.148 116.415C244.148 117.983 243.099 119.255 241.806 119.255C240.513 119.255 239.464 117.983 239.464 116.415C239.464 114.846 240.513 113.574 241.806 113.574C243.099 113.574 244.148 114.846 244.148 116.415Z" fill="#586197"/>
<path opacity="0.3" d="M296.013 162.958V286.925L257.843 308.677L194.145 344.977C191.466 346.504 188.137 344.569 188.137 341.485V227.54C188.137 226.103 188.903 224.777 190.146 224.059L296.013 162.958Z" fill="#18285D"/>
<path d="M341.335 130.783V244.742C341.335 246.322 340.493 247.78 339.131 248.569L272.734 286.408L209.639 322.364C208.751 322.869 207.801 323.03 206.902 322.914C204.82 322.648 203.027 320.894 203.027 318.52V205.503C203.027 203.923 203.87 202.462 205.24 201.674L334.701 126.954C337.65 125.251 341.335 127.378 341.335 130.783Z" fill="#3C80FB"/>
<path d="M305.901 222.889C310.216 209.655 303.817 195.7 291.608 191.719C279.399 187.738 266.003 195.239 261.688 208.472C257.373 221.706 263.772 235.661 275.981 239.642C288.19 243.623 301.586 236.122 305.901 222.889Z" fill="#6EB4FA"/>
<path d="M341.335 214.442V244.742C341.335 246.322 340.493 247.78 339.131 248.569L272.734 286.408L296.745 213.754L307.527 182.628L330.267 204.125L341.335 214.442Z" fill="#18285D"/>
<path d="M330.268 204.125L325.574 212.701L313.296 210.107L308.386 218.552L296.744 213.753L307.526 182.628L330.268 204.125Z" fill="white"/>
<path d="M316.737 261.331L272.733 286.408L209.638 322.364C208.75 322.869 207.8 323.03 206.901 322.914L237.035 235.913L250.062 198.306L277.541 224.282L316.737 261.331Z" fill="#3B3E7D"/>
<path d="M277.542 224.282L271.871 234.644L257.035 231.51L251.102 241.713L237.036 235.914L250.064 198.307L277.542 224.282Z" fill="white"/>
<path d="M191.307 194.192V223.802L196.426 226.758L195.981 196.912L191.307 194.192Z" fill="#0041C6"/>
<path d="M222.496 181.604V211.707L196.426 226.758L195.981 196.911L222.496 181.604Z" fill="#2E60E0"/>
<path d="M211.056 213.615C210.024 214.141 209.176 213.587 209.161 212.379L208.982 197.888C208.967 196.679 209.791 195.273 210.822 194.747C211.853 194.222 212.701 194.775 212.716 195.985L212.895 210.475C212.911 211.683 212.087 213.089 211.056 213.615Z" fill="white"/>
<path d="M218.987 200.077C219.002 201.286 218.178 202.692 217.147 203.218L204.783 209.522C203.751 210.047 202.904 209.494 202.889 208.286C202.874 207.077 203.698 205.67 204.728 205.145L217.092 198.841C218.124 198.315 218.972 198.869 218.987 200.077Z" fill="white"/>
<path d="M191.307 194.192L217.82 178.884L222.496 181.604L195.981 196.912L191.307 194.192Z" fill="#3C80FB"/>
<path d="M413.757 395.298C438.611 395.298 458.76 390.835 458.76 385.33C458.76 379.825 438.611 375.362 413.757 375.362C388.902 375.362 368.754 379.825 368.754 385.33C368.754 390.835 388.902 395.298 413.757 395.298Z" fill="#E5E5E5"/>
<path d="M439.219 366.177C440.418 366.571 441.279 367.653 441.466 368.924C441.63 370.035 441.762 371.624 441.697 373.731C441.553 378.433 441.493 380.351 441.493 380.351C441.493 380.351 440.075 382.832 435.995 383.505L434.795 383.674C434.795 383.674 425.563 389.223 421.251 389.65C415.625 390.207 409.876 387.619 414.529 382.147C418.923 376.978 425.385 374.907 427.295 370.766C427.517 370.283 428.959 369.253 429.326 368.874C432.444 365.648 434.842 364.735 439.219 366.177Z" fill="#3C80FB"/>
<path d="M429.792 376.111C429.589 376.111 429.395 375.991 429.31 375.794C429.303 375.779 428.591 374.166 427.266 373.724C425.996 373.299 424.633 374.405 424.619 374.417C424.396 374.601 424.065 374.569 423.881 374.347C423.696 374.125 423.726 373.795 423.948 373.61C424.021 373.548 425.768 372.119 427.597 372.729C429.374 373.32 430.238 375.296 430.274 375.38C430.388 375.646 430.265 375.954 429.998 376.068C429.932 376.097 429.861 376.111 429.792 376.111Z" fill="white"/>
<path d="M427.956 377.422C427.753 377.422 427.56 377.302 427.474 377.104C427.467 377.089 426.755 375.476 425.429 375.034C424.16 374.61 422.797 375.716 422.783 375.728C422.559 375.911 422.229 375.88 422.044 375.658C421.859 375.436 421.89 375.105 422.112 374.921C422.185 374.859 423.93 373.43 425.761 374.039C427.538 374.631 428.402 376.607 428.438 376.69C428.552 376.957 428.428 377.265 428.162 377.379C428.096 377.408 428.026 377.422 427.956 377.422Z" fill="white"/>
<path d="M425.863 378.596C425.66 378.596 425.465 378.476 425.381 378.278C425.374 378.263 424.662 376.65 423.336 376.208C422.066 375.784 420.704 376.89 420.69 376.901C420.466 377.085 420.136 377.054 419.951 376.832C419.766 376.609 419.797 376.279 420.019 376.094C420.092 376.033 421.838 374.602 423.668 375.213C425.445 375.805 426.309 377.78 426.343 377.864C426.457 378.13 426.334 378.439 426.068 378.553C426.003 378.582 425.933 378.596 425.863 378.596Z" fill="white"/>
<path d="M438.623 357.03L439.1 368.648C439.1 368.648 436.172 371.632 431.619 369.656L430.491 357.11C430.491 357.11 435.407 355.358 438.623 357.03Z" fill="#FCB38F"/>
<path d="M406.765 366.333C407.964 366.727 408.826 367.809 409.013 369.08C409.177 370.191 409.309 371.78 409.244 373.887C409.099 378.588 409.039 380.569 409.039 380.569C409.039 380.569 407.621 382.986 403.543 383.661L401.979 383.913C401.979 383.913 393.11 389.379 388.799 389.805C383.173 390.362 377.424 387.775 382.077 382.303C386.471 377.134 392.933 375.063 394.843 370.922C395.065 370.439 396.507 369.409 396.874 369.03C399.992 365.804 402.39 364.891 406.765 366.333Z" fill="#3C80FB"/>
<path d="M397.129 376.373C396.925 376.373 396.731 376.253 396.646 376.055C396.639 376.04 395.928 374.427 394.602 373.986C393.332 373.561 391.969 374.667 391.955 374.679C391.732 374.862 391.402 374.831 391.217 374.609C391.032 374.387 391.062 374.056 391.284 373.872C391.357 373.81 393.104 372.38 394.933 372.99C396.709 373.582 397.574 375.558 397.609 375.641C397.723 375.908 397.6 376.216 397.333 376.33C397.267 376.359 397.197 376.373 397.129 376.373Z" fill="white"/>
<path d="M395.292 377.685C395.089 377.685 394.895 377.565 394.81 377.368C394.803 377.352 394.091 375.74 392.766 375.298C391.496 374.873 390.133 375.979 390.119 375.991C389.896 376.174 389.565 376.143 389.381 375.921C389.197 375.699 389.226 375.369 389.448 375.184C389.521 375.122 391.267 373.693 393.097 374.302C394.874 374.894 395.738 376.87 395.773 376.954C395.887 377.22 395.763 377.528 395.497 377.642C395.432 377.671 395.361 377.685 395.292 377.685Z" fill="white"/>
<path d="M393.199 378.858C392.996 378.858 392.802 378.739 392.717 378.541C392.71 378.526 391.998 376.913 390.673 376.471C389.403 376.046 388.04 377.152 388.026 377.164C387.803 377.348 387.472 377.316 387.287 377.094C387.103 376.872 387.133 376.542 387.355 376.357C387.428 376.295 389.175 374.865 391.004 375.476C392.781 376.067 393.645 378.043 393.68 378.127C393.794 378.393 393.67 378.701 393.404 378.815C393.339 378.844 393.268 378.858 393.199 378.858Z" fill="white"/>
<path d="M406.171 357.186L406.648 368.804C406.648 368.804 403.72 371.788 399.167 369.812L398.039 357.266C398.039 357.266 402.955 355.515 406.171 357.186Z" fill="#FCB38F"/>
<path d="M440.539 238.334L396.735 230.167C393.968 245.694 387.538 280.39 389.654 295.206C393.064 319.072 397.259 365.752 397.259 365.752C401.007 366.572 403.983 366.368 407.749 364.965C407.749 364.965 412.208 312.777 408.274 295.992C405.903 285.875 411.461 268.397 414.418 253.452C414.418 253.452 415.342 251.067 416.905 251.128C419.098 251.213 418.755 254.973 419.047 256.014C420.126 269.757 421.272 283.103 422.508 293.596C424.955 314.356 430.041 365.488 430.041 365.488C433.789 366.308 435.978 366.104 439.744 364.701C439.744 364.701 443.632 304.909 441.318 292.844C437.647 273.701 440.26 252.277 440.539 238.334Z" fill="#3B3E7D"/>
<path d="M405.144 364.072C405.136 364.072 405.128 364.072 405.119 364.072C404.79 364.058 404.534 363.78 404.548 363.451C404.569 362.955 406.646 313.756 406.275 307.072C406.119 304.254 405.637 302.426 405.128 300.49C404.432 297.843 403.712 295.107 403.822 289.73C404.009 280.588 410.357 253.177 410.627 252.014C410.702 251.693 411.023 251.494 411.344 251.568C411.665 251.643 411.865 251.964 411.79 252.285C411.724 252.568 405.2 280.736 405.015 289.755C404.908 294.964 405.606 297.619 406.282 300.187C406.784 302.095 407.303 304.068 407.465 307.006C407.84 313.748 405.826 361.473 405.74 363.501C405.727 363.821 405.462 364.072 405.144 364.072Z" fill="#001350"/>
<path d="M437.868 364.073C437.864 364.073 437.862 364.073 437.859 364.073C437.53 364.068 437.266 363.797 437.271 363.468C437.299 361.342 437.962 311.36 438.355 307.595C438.757 303.753 437.509 289.954 436.285 282.458C435.416 277.147 436.034 252.175 436.06 251.113C436.069 250.789 436.334 250.532 436.657 250.532C436.662 250.532 436.667 250.532 436.672 250.532C437.001 250.54 437.262 250.814 437.254 251.143C437.248 251.402 436.613 277.065 437.463 282.265C438.699 289.828 439.953 303.797 439.542 307.718C439.154 311.429 438.471 362.963 438.464 363.483C438.459 363.811 438.193 364.073 437.868 364.073Z" fill="#001350"/>
<path d="M429.09 361.724C429.09 361.724 435.66 362.423 440.635 361.113C441.019 363.068 440.808 365.12 440.351 366.234C440.351 366.234 434.416 367.776 429.643 366.61C429.088 365.15 428.668 363.432 429.09 361.724Z" fill="#586197"/>
<path d="M396.561 361.724C396.561 361.724 403.306 362.423 408.413 361.113C408.808 363.068 408.591 365.12 408.123 366.234C408.123 366.234 402.03 367.776 397.129 366.61C396.559 365.15 396.129 363.432 396.561 361.724Z" fill="#586197"/>
<path d="M403.122 172.331C400.864 183.599 391.013 192.121 391.013 192.121L382.567 184.607C383.095 184.267 383.695 183.587 384.345 182.641C384.561 182.334 384.778 181.996 385.001 181.632C390.903 172.011 400.144 144.147 400.144 144.147C400.144 144.147 405.378 161.064 403.122 172.331Z" fill="#3C80FB"/>
<path d="M392.044 190.415C392.044 190.415 390.138 195.749 383.06 194.916C375.983 194.084 358.619 173.66 358.619 173.66C360.979 173.658 362.955 173.071 366.137 171.939C366.137 171.939 374.079 179.732 381.836 181.631C389.593 183.53 392.044 190.415 392.044 190.415Z" fill="#3C80FB"/>
<path d="M388.923 187.709C388.842 187.746 388.759 187.763 388.675 187.763C388.448 187.763 388.233 187.635 388.132 187.414C387.114 185.201 385.443 183.553 384.345 182.641C384.561 182.334 384.778 181.996 385.001 181.632C386.192 182.602 388.062 184.413 389.213 186.915C389.352 187.218 389.224 187.572 388.923 187.709Z" fill="#2E60E0"/>
<path d="M348.413 152.948L349.776 152.354L349.464 153.241L348.413 152.948Z" fill="#18285D"/>
<path d="M360.618 153.842L369.842 169.225C370.438 170.212 369.948 171.336 368.967 171.231L365.554 170.863L359.685 170.232C359.24 170.182 358.806 169.88 358.537 169.435L349.41 154.299C348.822 153.326 349.285 152.206 350.251 152.284L359.439 153.039C359.895 153.077 360.342 153.384 360.618 153.842Z" fill="#18285D"/>
<path d="M369.518 171.146L368.429 171.807L367.942 171.277L369.347 170.479L369.518 171.146Z" fill="#18285D"/>
<path d="M348.156 154.852L357.346 170.094C357.617 170.543 358.053 170.849 358.496 170.898L367.803 171.933C368.784 172.042 369.27 170.914 368.672 169.916L359.383 154.427C359.107 153.965 358.655 153.656 358.202 153.616L348.994 152.829C348.027 152.746 347.562 153.867 348.156 154.852Z" fill="#3B3E7D"/>
<path d="M358.987 162.561C359.661 163.679 359.766 164.853 359.219 165.182C358.674 165.511 357.684 164.871 357.01 163.752C356.336 162.634 356.232 161.46 356.777 161.131C357.323 160.802 358.312 161.442 358.987 162.561Z" fill="#18285D"/>
<path d="M350.575 160.12C350.579 160.125 350.576 160.122 350.575 160.12C350.515 159.961 349.653 157.672 350.468 157.246C350.774 157.087 351.211 157.507 351.65 158.107C351.65 158.107 351.65 158.107 351.654 158.109C352.294 158.989 352.926 160.253 353.118 160.649L353.119 160.658C353.127 160.672 353.133 160.686 353.141 160.698C353.125 160.655 353.101 160.598 353.07 160.525C353.069 160.516 353.067 160.504 353.06 160.496C353.028 160.413 352.987 160.31 352.944 160.195C352.941 160.18 352.935 160.166 352.927 160.152C352.485 158.986 351.669 156.537 352.339 155.927C352.82 155.49 353.911 157.083 354.809 158.633C355.516 159.851 356.098 161.039 356.172 161.189C356.154 161.141 356.105 160.984 356.038 160.76C356.033 160.749 356.027 160.737 356.026 160.729C355.736 159.724 355.167 157.426 356.011 156.878C356.662 156.458 357.658 158.571 358.354 160.344V160.347C358.826 161.549 359.161 162.594 359.161 162.594C359.161 162.594 358.846 159.395 359.825 159.489C360.807 159.584 361.43 164.982 362.645 166.532C363.863 168.081 366.237 170.049 366.132 171.727C366.077 172.602 364.529 174.734 360.488 174.54C359.039 174.471 357.692 173.783 356.76 172.669C353.927 169.279 350.929 163.16 350.577 160.125" fill="#FCB38F"/>
<path d="M354.769 164.191C354.681 164.099 353.256 162.574 352.826 161.44C352.382 160.265 351.65 158.106 351.65 158.106C351.65 158.106 351.65 158.106 351.654 158.108C352.293 158.989 352.926 160.253 353.118 160.648L353.119 160.657C353.231 160.949 354.151 163.31 354.769 164.191Z" fill="#FD8471"/>
<path d="M357.262 164.165C357.181 164.041 355.893 162.022 355.367 160.83C355.012 160.016 354.867 159.137 354.809 158.633C355.516 159.851 356.098 161.039 356.172 161.189C356.172 161.189 357.012 163.565 357.262 164.165Z" fill="#FD8471"/>
<path d="M359.508 164.724C359.508 164.724 358.117 161.788 358.356 160.347C358.828 161.548 359.163 162.594 359.163 162.594" fill="#FD8471"/>
<path d="M440.539 238.334C430.931 245.715 392.965 236.985 395.761 227.161C397.519 220.989 403.675 194.369 402.768 186.109C401.846 177.864 395.56 172.831 399.621 163.555C402.035 158.041 401.834 152.614 400.408 147.557C399.241 143.428 400.713 141.594 404.867 141.001C406.703 140.738 409.857 140.631 412.623 141.043C418.486 141.895 425.156 142.998 430.847 144.247C435.126 145.187 438.872 146.217 441.263 147.275C451.334 151.727 437.532 172.921 435.4 185.296C433.266 197.685 445.654 234.405 440.539 238.334Z" fill="#579DFF"/>
<path d="M419.72 186.583C409.019 186.583 403.285 183.519 403.001 183.363C402.712 183.205 402.607 182.842 402.765 182.553C402.923 182.264 403.286 182.158 403.575 182.315C403.655 182.359 411.746 186.66 426.431 184.999C426.757 184.962 427.054 185.198 427.09 185.525C427.127 185.853 426.891 186.148 426.564 186.184C424.096 186.466 421.813 186.583 419.72 186.583Z" fill="#3C80FB"/>
<path d="M417.188 164.948C417.13 164.948 417.072 164.94 417.014 164.922C410.324 162.887 408.812 158.3 408.751 158.106C408.652 157.792 408.826 157.457 409.141 157.358C409.453 157.26 409.789 157.432 409.889 157.746C409.945 157.921 411.309 161.941 417.362 163.782C417.677 163.878 417.855 164.211 417.758 164.526C417.68 164.783 417.444 164.948 417.188 164.948Z" fill="#3C80FB"/>
<path d="M424.79 227.757C410.088 227.757 401.772 219.667 401.426 219.323C401.192 219.092 401.191 218.714 401.422 218.48C401.654 218.246 402.032 218.245 402.266 218.476C402.348 218.558 410.603 226.564 424.79 226.564C425.117 226.557 425.39 226.829 425.39 227.161C425.39 227.49 425.123 227.757 424.793 227.757H424.79Z" fill="#3C80FB"/>
<path d="M423.089 225.004C423.084 225.004 423.078 225.004 423.074 225.004C417.592 224.87 410.688 220.444 410.397 220.256C410.12 220.077 410.041 219.708 410.22 219.431C410.399 219.155 410.768 219.075 411.046 219.255C411.115 219.299 417.96 223.686 423.104 223.812C423.433 223.82 423.693 224.093 423.685 224.423C423.677 224.746 423.412 225.004 423.089 225.004Z" fill="#3C80FB"/>
<path d="M430.845 144.161C429.217 152.719 415.487 160.383 412.102 155.125C409.235 150.673 411.554 143.672 412.621 141.021C418.485 141.857 425.155 142.937 430.845 144.161Z" fill="white"/>
<path d="M446.574 227.708C444.283 226.071 442.839 223.391 441.911 220.089C441.911 220.089 449.661 211.077 451.502 195.023C451.535 194.755 451.565 194.484 451.592 194.212C451.592 194.212 451.588 194.065 451.577 193.791C451.463 191.279 450.542 178.033 443.43 167.913C443.43 167.913 433.325 159.868 442.69 148.138C442.69 148.138 458.317 163.054 462.317 187.183C465.541 206.624 446.574 227.708 446.574 227.708Z" fill="#579DFF"/>
<path d="M457.646 193.951C457.628 194.282 457.347 194.535 457.019 194.515C454.805 194.401 452.573 194.795 451.502 195.022C451.535 194.753 451.565 194.482 451.592 194.21C451.592 194.21 451.588 194.063 451.576 193.789C452.794 193.545 454.923 193.21 457.08 193.324C457.409 193.342 457.663 193.623 457.646 193.951Z" fill="#3C80FB"/>
<path d="M440.241 220.575L441.911 220.087C442.985 223.514 444.382 226.346 446.575 227.706C446.575 227.706 444.937 230.332 443.407 230.332C441.879 230.332 440.241 220.575 440.241 220.575Z" fill="#FD8471"/>
<path d="M437.99 218.765C437.99 218.765 431.297 221.872 432.619 223.462C433.075 224.011 438.442 222.291 438.442 222.291L438.623 223.19C438.623 223.19 432.963 225.497 432.737 227.318C432.511 229.139 439.192 226.02 439.192 226.02L439.421 227.159C439.421 227.159 434.901 228.923 434.561 230.503C434.222 232.085 440.757 229.587 440.757 229.587L440.935 230.472C440.935 230.472 438.409 231.851 437.868 233.407C437.326 234.963 441.767 232.935 443.41 231.618C445.053 230.302 444.225 229.023 443.781 228.454C443.781 228.454 443.954 225.853 442.417 224.912C442.417 224.912 442.959 222.698 441.3 221.814C441.3 221.814 441.365 217.516 437.99 218.765Z" fill="#FCB38F"/>
<path d="M440.241 219.755C440.241 219.755 440.582 214.589 437.866 214.118L438.826 219.258L440.241 219.755Z" fill="#FCB38F"/>
<path d="M405.64 121.373C405.64 121.373 405.64 130.516 407.86 136.663C409.89 142.285 406.826 147.184 406.826 147.184C406.826 147.184 408.338 142.542 405.798 137.554C403.258 132.567 401.001 121.749 401.455 112.613L405.64 121.373Z" fill="#18285D"/>
<path d="M426.28 133.37C426.28 133.37 434.158 130.471 435.73 122.391C437.302 114.31 436.84 102.443 425.812 98.9536C414.784 95.4639 404.591 98.8118 402.133 108.989C402.133 108.989 410.591 129.258 426.28 133.37Z" fill="#18285D"/>
<path d="M413.907 137.231L414.507 142.823L414.842 146.093C421.219 148.84 427.752 144.726 427.681 144.146C426.983 141.666 426.454 137.412 426.28 133.369C426.168 133.291 426.047 133.226 425.917 133.175C422.554 131.714 413.907 137.231 413.907 137.231Z" fill="#FCB38F"/>
<path d="M413.907 137.231L414.507 142.823C420.878 140.568 424.364 135.874 425.917 133.176C422.554 131.714 413.907 137.231 413.907 137.231Z" fill="#FD8471"/>
<path d="M404.053 119.544C404.053 119.544 401.569 116.595 399.994 119.239C398.421 121.883 401.276 129.269 405.377 127.194L404.053 119.544Z" fill="#FD8471"/>
<path d="M402.853 125.981C402.804 126.273 402.527 126.471 402.234 126.422C401.942 126.373 401.744 126.096 401.793 125.803C401.842 125.51 402.119 125.314 402.412 125.362C402.704 125.412 402.901 125.689 402.853 125.981Z" fill="white"/>
<path d="M404.327 124.921C404.171 124.93 404.023 124.835 403.97 124.68C403.186 122.395 400.727 121.589 400.702 121.581C400.515 121.522 400.412 121.322 400.471 121.134C400.53 120.947 400.73 120.844 400.917 120.902C401.033 120.938 403.742 121.817 404.644 124.449C404.708 124.635 404.61 124.837 404.424 124.901C404.391 124.914 404.358 124.92 404.327 124.921Z" fill="#F25339"/>
<path d="M401.832 123.889C401.765 123.893 401.698 123.879 401.636 123.844C401.465 123.747 401.405 123.53 401.502 123.359C401.519 123.331 401.907 122.656 402.776 122.208C402.95 122.117 403.165 122.185 403.256 122.36C403.347 122.534 403.278 122.749 403.104 122.839C402.433 123.187 402.126 123.703 402.123 123.709C402.059 123.818 401.949 123.882 401.832 123.889Z" fill="#F25339"/>
<path d="M402.044 123.239C402.105 124.068 402.191 124.845 402.305 125.547C403.354 131.883 408.92 144.748 420.067 138.194C422.74 136.62 424.728 135.066 426.28 133.37C427.451 132.093 428.376 130.736 429.166 129.234C429.472 128.653 429.61 128.001 429.809 127.378C429.845 127.269 429.878 127.156 429.91 127.046C429.929 126.984 429.949 126.924 429.968 126.86C430.523 125.043 430.943 123.205 431.27 121.457C431.677 119.273 431.936 117.238 432.094 115.562C432.388 112.483 431.031 109.481 428.529 107.66C421.757 102.726 413.942 103.376 408.688 104.736C405.041 105.678 402.412 108.85 402.165 112.602C402.044 114.383 401.948 116.413 401.919 118.428C401.901 120.09 401.93 121.748 402.044 123.239Z" fill="#FCB38F"/>
<path d="M406.728 117.164C406.717 116.836 406.44 116.582 406.112 116.593C405.24 116.622 404.144 116.738 403.151 117.078C401.077 117.787 400.794 118.378 400.794 118.378C400.794 118.378 401.052 118.623 403.77 118.071C404.468 117.929 405.392 117.872 406.193 117.795C406.509 117.765 406.74 117.492 406.728 117.175C406.729 117.172 406.728 117.168 406.728 117.164Z" fill="#18285D"/>
<path d="M414.293 116.745C414.231 116.358 414.497 115.996 414.885 115.933C415.915 115.767 417.227 115.652 418.471 115.823C421.069 116.179 421.535 116.807 421.535 116.807C421.535 116.807 421.288 117.153 417.972 117.13C417.121 117.124 416.022 117.269 415.065 117.362C414.688 117.4 414.354 117.131 414.294 116.758C414.295 116.754 414.294 116.75 414.293 116.745Z" fill="#18285D"/>
<path d="M412.488 128.126C412.457 128.12 412.424 128.112 412.394 128.1L410.066 127.195L411.012 121.538C411.055 121.279 411.302 121.103 411.561 121.146C411.821 121.189 411.996 121.436 411.953 121.695L411.134 126.587L412.739 127.21C412.985 127.306 413.107 127.583 413.011 127.828C412.928 128.043 412.707 128.163 412.488 128.126Z" fill="#FD8471"/>
<path d="M425.374 126.865C425.374 126.865 426.532 129.107 429.166 129.234C429.398 128.622 429.61 128.001 429.809 127.378C428.537 127.607 426.589 127.753 425.374 126.865Z" fill="#FD8471"/>
<path d="M426.28 133.37C427.451 132.093 428.376 130.736 429.166 129.234C429.472 128.653 429.61 128.001 429.809 127.378C429.845 127.268 429.878 127.156 429.91 127.046C429.64 127.058 429.2 127.145 428.477 127.378C428.477 127.378 425.492 130.795 426.28 133.37Z" fill="#18285D"/>
<path d="M408.767 130.889C409.316 132.496 410.812 135.388 414.487 134.896C418.17 134.404 418.831 131.49 418.931 129.529L408.767 130.889Z" fill="white"/>
<path d="M416.048 121.657C416.098 122.55 416.599 123.247 417.167 123.216C417.735 123.183 418.155 122.433 418.105 121.54C418.053 120.647 417.552 119.949 416.985 119.982C416.416 120.012 415.996 120.763 416.048 121.657Z" fill="#18285D"/>
<path d="M404.479 122.32C404.531 123.213 405.032 123.911 405.599 123.879C406.167 123.847 406.587 123.097 406.537 122.203C406.487 121.31 405.984 120.613 405.417 120.644C404.848 120.677 404.428 121.427 404.479 122.32Z" fill="#18285D"/>
<path d="M428.69 120.196C428.69 120.196 431.235 117.588 432.536 120.188C433.837 122.788 431.249 129.238 426.726 127.363L428.69 120.196Z" fill="#FCB38F"/>
<path d="M429.645 126.894C429.596 127.186 429.319 127.384 429.026 127.335C428.733 127.286 428.537 127.009 428.585 126.716C428.634 126.423 428.911 126.227 429.204 126.276C429.496 126.326 429.694 126.602 429.645 126.894Z" fill="white"/>
<path d="M428.062 125.245C428.208 125.264 428.354 125.185 428.415 125.043C429.31 122.943 431.684 122.353 431.708 122.348C431.888 122.305 432 122.123 431.957 121.943C431.914 121.763 431.732 121.651 431.552 121.693C431.442 121.72 428.828 122.362 427.796 124.78C427.723 124.951 427.803 125.149 427.974 125.221C428.003 125.234 428.032 125.242 428.062 125.245Z" fill="#FD8471"/>
<path d="M430.485 124.444C430.546 124.452 430.611 124.443 430.672 124.413C430.839 124.334 430.911 124.133 430.831 123.966C430.818 123.938 430.497 123.276 429.71 122.794C429.552 122.696 429.345 122.746 429.247 122.905C429.15 123.063 429.2 123.27 429.358 123.368C429.966 123.741 430.219 124.249 430.222 124.255C430.275 124.361 430.375 124.43 430.485 124.444Z" fill="#FD8471"/>
<path d="M431.66 119.13C430.553 118.943 429.767 119.014 429.155 119.296C428.73 119.493 428.387 119.786 428.079 120.166C428.015 120.243 427.953 120.324 427.89 120.41C427.752 120.354 427.62 120.276 427.496 120.182C427.215 119.972 426.966 119.671 426.747 119.321C426.166 118.393 425.473 117.705 425.26 116.84C424.934 115.522 423.497 114.318 423.497 114.318C412.264 117.814 403.374 108.132 403.374 108.132C406.849 97.4355 425.74 102.531 430.615 105.12C435.486 107.706 437.182 120.054 431.66 119.13Z" fill="#18285D"/>
<path d="M425.26 116.839C425.26 116.839 427.875 120.684 425.817 126.099C423.758 131.513 422.262 140.079 427.359 142.823C427.359 142.823 424.921 136.907 425.917 133.176C427.101 128.739 429.205 124.338 428.451 121.133C427.697 117.929 426.357 116.129 425.26 116.839Z" fill="#18285D"/>
<path d="M405.91 108.885C405.91 108.885 406.87 116.319 401.758 118.937C401.758 118.937 399.556 103.857 405.91 108.885Z" fill="#18285D"/>
<path d="M413.628 122.093C413.48 119.393 415.557 117.075 418.257 116.927C420.957 116.78 423.275 118.857 423.422 121.557C423.57 124.257 421.493 126.574 418.793 126.722C416.094 126.87 413.776 124.793 413.628 122.093ZM414.392 122.051C414.516 124.33 416.472 126.084 418.752 125.958C421.032 125.834 422.785 123.877 422.66 121.597C422.535 119.318 420.578 117.565 418.299 117.69C416.02 117.815 414.267 119.771 414.392 122.051Z" fill="white"/>
<path d="M400.243 122.825C400.095 120.125 402.171 117.807 404.871 117.66C407.571 117.512 409.889 119.588 410.037 122.289C410.184 124.989 408.108 127.307 405.407 127.455C402.707 127.602 400.391 125.525 400.243 122.825ZM401.006 122.783C401.13 125.063 403.086 126.816 405.367 126.691C407.646 126.566 409.4 124.609 409.274 122.33C409.148 120.051 407.194 118.297 404.913 118.423C402.634 118.548 400.882 120.504 401.006 122.783Z" fill="white"/>
<path d="M426.747 119.319C425.884 119.397 423.303 119.933 422.82 120.036C422.886 120.311 423.204 121.332 423.154 121.061C423.119 120.873 424.789 120.511 424.79 120.536C425.352 120.416 426.349 120.235 427.496 120.182C427.686 120.173 427.881 120.167 428.079 120.165C428.387 119.786 428.73 119.492 429.155 119.295C428.313 119.228 427.483 119.253 426.747 119.319Z" fill="white"/>
<path d="M409.708 121.204C409.716 121.193 410.555 119.916 411.747 119.851C412.928 119.786 413.815 120.966 413.823 120.977L414.439 120.525C414.394 120.464 413.303 118.999 411.706 119.088C410.118 119.175 409.105 120.726 409.063 120.793L409.708 121.204Z" fill="white"/>
<path d="M436.751 113.904C436.751 113.904 440.8 102.881 434.044 98.5772C426.658 93.8723 411.837 90.5279 404.954 102.8L436.751 113.904Z" fill="#579DFF"/>
<path d="M436.164 119.59C436.164 119.59 431.235 113.709 419.897 110.01C408.559 106.311 401.664 108.338 401.664 108.338C401.664 108.338 401.142 104.567 403.488 102.036C405.833 99.5073 419.009 101.174 426.112 104.453C434.799 108.464 438.211 113.47 438.211 113.47C438.211 113.47 438.755 117.821 436.164 119.59Z" fill="#3C80FB"/>
<path d="M50.8974 484.323C76.902 484.323 97.9829 478.852 97.9829 472.103C97.9829 465.354 76.902 459.882 50.8974 459.882C24.8927 459.882 3.81177 465.354 3.81177 472.103C3.81177 478.852 24.8927 484.323 50.8974 484.323Z" fill="#E5E5E5"/>
<path d="M55.118 478.685C55.118 478.685 58.1217 480.972 61.3673 479.706L62.7325 479.119L63.8488 478.57C63.8488 478.57 77.1625 472.806 81.3441 469.446C85.5258 466.085 89.0307 459.803 83.2489 457.24C77.4672 454.677 68.5596 460.813 65.4885 459.235C65.4885 459.235 55.8541 459.135 55.903 464.291C55.2483 469.726 54.6587 472.201 55.118 478.685Z" fill="#3C80FB"/>
<path d="M76.3718 461.972C76.1636 461.898 76.009 461.705 75.9939 461.47C75.9927 461.451 75.8543 459.538 74.6589 458.6C73.5135 457.7 71.7122 458.332 71.6936 458.339C71.3971 458.446 71.0703 458.293 70.9633 457.997C70.8563 457.702 71.0075 457.375 71.3029 457.267C71.4005 457.231 73.7146 456.407 75.3647 457.702C76.9672 458.96 77.1276 461.301 77.1346 461.4C77.1544 461.715 76.9148 461.985 76.5997 462.005C76.5195 462.009 76.4427 461.998 76.3718 461.972Z" fill="white"/>
<path d="M74.5332 462.53C74.3251 462.456 74.1704 462.263 74.1564 462.028C74.1553 462.009 74.0169 460.096 72.8215 459.158C71.6761 458.258 69.8736 458.89 69.8562 458.897C69.5596 459.004 69.2329 458.851 69.1259 458.556C69.0189 458.26 69.1701 457.933 69.4655 457.825C69.5631 457.789 71.8761 456.965 73.5273 458.26C75.1298 459.518 75.2902 461.859 75.2972 461.958C75.317 462.273 75.0774 462.543 74.7623 462.563C74.6809 462.567 74.6041 462.556 74.5332 462.53Z" fill="white"/>
<path d="M72.4738 463.075C72.2657 463 72.111 462.807 72.0959 462.572C72.0947 462.554 71.9564 460.641 70.7609 459.702C69.6155 458.802 67.8142 459.435 67.7956 459.442C67.4991 459.549 67.1723 459.395 67.0653 459.1C66.9584 458.805 67.1095 458.478 67.4049 458.37C67.5026 458.334 69.8155 457.509 71.4668 458.805C73.0692 460.063 73.2297 462.404 73.2367 462.503C73.2564 462.818 73.0169 463.087 72.7018 463.107C72.6204 463.112 72.5436 463.1 72.4738 463.075Z" fill="white"/>
<path d="M58.4381 448.261L57.552 463.418C57.552 463.418 60.2312 465.171 65.6874 463.622L69.119 449.713C69.119 449.713 62.3325 446.859 58.4381 448.261Z" fill="#FCB38F"/>
<path d="M33.0576 316.99L65.0166 315.285C65.0166 315.285 70.2775 371.397 71.2322 384.655C72.1869 397.913 68.0738 454.669 68.0738 454.669C61.5862 458.241 55.9021 454.57 55.9021 454.57C55.9021 454.57 55.8335 433.221 55.53 427.136C55.2253 421.052 52.7624 398.064 53.3787 392.317C53.3787 392.317 45.7003 348.634 44.8188 346.358C43.9374 344.082 33.0588 343.261 33.0588 343.261L33.0576 316.99Z" fill="#3B3E7D"/>
<path d="M66.8305 455.086C66.8224 455.086 66.8154 455.086 66.8073 455.086C66.4852 455.074 66.234 454.803 66.2468 454.481C66.2677 453.921 68.3946 398.379 68.4085 391.085C68.4225 383.809 64.1304 338.845 64.0873 338.391C64.0571 338.07 64.292 337.785 64.6129 337.753C64.9385 337.729 65.2176 337.958 65.249 338.279C65.4258 340.132 69.5888 383.753 69.5761 391.086C69.5621 398.401 67.4352 453.964 67.4131 454.525C67.4003 454.84 67.1422 455.086 66.8305 455.086Z" fill="#001350"/>
<path d="M55.2227 451.118C55.2227 451.118 62.9162 452.526 68.905 451.419C69.1841 453.76 68.7538 456.165 68.1154 457.44C68.1154 457.44 60.9731 458.733 55.4402 456.934C54.9157 455.161 54.5738 453.096 55.2227 451.118Z" fill="#586197"/>
<path d="M11.7329 478.339C11.7329 478.339 14.7133 480.656 17.9717 479.422L19.3427 478.849L20.4648 478.311C20.4648 478.311 33.8355 472.68 38.0497 469.361C42.2651 466.042 45.8316 459.795 40.0766 457.176C34.3215 454.556 25.3524 460.601 22.2975 458.993C22.2975 458.993 12.6643 458.797 12.662 463.954C11.9527 469.381 11.3375 471.851 11.7329 478.339Z" fill="#3C80FB"/>
<path d="M33.1519 461.839C32.9438 461.762 32.7914 461.568 32.7798 461.333C32.7786 461.315 32.6589 459.4 31.4727 458.45C30.3366 457.539 28.5284 458.154 28.5098 458.16C28.2121 458.263 27.8865 458.106 27.783 457.811C27.6783 457.514 27.833 457.189 28.1295 457.084C28.2272 457.049 30.5494 456.248 32.1867 457.56C33.7764 458.834 33.9148 461.176 33.9194 461.275C33.9357 461.59 33.6938 461.858 33.3787 461.874C33.2996 461.877 33.2228 461.866 33.1519 461.839Z" fill="white"/>
<path d="M31.3075 462.379C31.0994 462.303 30.9471 462.107 30.9354 461.872C30.9343 461.854 30.8145 459.94 29.6284 458.99C28.4922 458.078 26.684 458.693 26.6654 458.699C26.3677 458.802 26.0433 458.645 25.9386 458.349C25.8339 458.052 25.9898 457.727 26.2851 457.622C26.3828 457.587 28.7039 456.786 30.3424 458.098C31.932 459.372 32.0704 461.714 32.075 461.813C32.0913 462.128 31.8494 462.396 31.5343 462.412C31.4552 462.418 31.3785 462.405 31.3075 462.379Z" fill="white"/>
<path d="M29.2435 462.903C29.0353 462.826 28.883 462.631 28.8713 462.396C28.8702 462.377 28.7504 460.463 27.5643 459.513C26.4282 458.601 24.6199 459.217 24.6013 459.222C24.3036 459.326 23.9792 459.169 23.8745 458.872C23.7699 458.576 23.9245 458.25 24.221 458.146C24.3187 458.111 26.641 457.308 28.2783 458.621C29.8679 459.896 30.0063 462.238 30.011 462.337C30.0272 462.652 29.7854 462.919 29.4702 462.935C29.39 462.941 29.3132 462.928 29.2435 462.903Z" fill="white"/>
<path d="M15.3564 447.949L14.3191 463.098C14.3191 463.098 16.9809 464.877 22.4522 463.383L26.0222 449.509C26.0222 449.509 19.2636 446.586 15.3564 447.949Z" fill="#FCB38F"/>
<path d="M38.5997 324.172C38.5997 324.172 36.1484 372.643 35.7181 385.929C35.2878 399.214 25.2872 455.234 25.2872 455.234C18.4635 458.111 13.1922 453.869 13.1922 453.869C13.1922 453.869 15.347 432.628 15.6773 426.546C16.0075 420.465 14.3179 400.733 17.1623 391.692C17.1623 391.692 14.0737 347.446 13.4341 345.091C13.4341 345.091 13.362 340.822 13.1481 334.692C12.9946 330.304 13.1481 325.302 13.1481 325.302L38.5997 324.172Z" fill="#3B3E7D"/>
<path d="M24.0677 455.524C24.0398 455.524 24.0119 455.522 23.984 455.518C23.6654 455.473 23.4433 455.176 23.4898 454.858C23.57 454.303 31.4671 399.285 32.2404 392.032C33.0113 384.796 33.4242 344.637 33.4288 344.232C33.4323 343.91 33.6986 343.638 34.0184 343.654C34.3405 343.658 34.5998 343.92 34.5963 344.244C34.58 345.899 34.1789 384.864 33.4009 392.155C32.6264 399.431 24.7259 454.469 24.6457 455.024C24.6027 455.314 24.3538 455.524 24.0677 455.524Z" fill="#001350"/>
<path d="M12.8763 450.365C12.8763 450.365 20.3814 452.566 26.4527 452.089C26.4876 454.446 25.8085 456.794 25.041 457.994C25.041 457.994 17.8022 458.537 12.4879 456.171C12.1495 454.355 12.0239 452.265 12.8763 450.365Z" fill="#586197"/>
<path d="M64.7713 281.799C65.3271 303.856 69.0355 330.775 69.0355 330.775C69.0355 330.775 26.2735 344.218 12.1667 329.557C12.1667 329.557 16.4519 236.794 18.2102 226.238C18.216 226.197 18.2253 226.158 18.2311 226.116C18.8044 222.682 18.6974 223.145 19.1323 220.989C19.5742 218.812 22.0499 216.256 24.5699 215.14C25.7409 214.62 26.9258 214.414 27.9178 214.707C40.8174 218.49 63.0723 224.55 67.3087 228.533C70.3216 231.363 69.1634 241.6 67.5563 253.233C67.4819 253.774 67.4075 254.315 67.3296 254.86C66.04 264.122 64.5771 274.083 64.7713 281.799Z" fill="#579DFF"/>
<path d="M43.7908 311.993C43.7606 311.993 43.7303 311.991 43.7001 311.986C27.8874 309.585 17.8275 293.957 17.7275 293.799C17.5507 293.52 17.6345 293.151 17.9124 292.975C18.1915 292.798 18.5601 292.882 18.7369 293.159C18.8334 293.313 28.6131 308.486 43.8803 310.805C44.2059 310.855 44.4304 311.158 44.3815 311.485C44.335 311.782 44.0803 311.993 43.7908 311.993Z" fill="#3C80FB"/>
<path d="M67.5576 253.232C67.4831 253.773 67.4087 254.314 67.3308 254.859C63.8073 250.649 61.5351 245.692 61.413 245.424C61.2758 245.123 61.4072 244.77 61.7084 244.632C62.0095 244.495 62.3619 244.63 62.4991 244.927C62.5258 244.988 64.5027 249.3 67.5576 253.232Z" fill="#3C80FB"/>
<path d="M37.2208 284.921C37.0696 284.921 36.9196 284.864 36.8033 284.75C27.0178 275.164 23.6176 252.925 23.4769 251.982C23.428 251.656 23.6536 251.352 23.9804 251.303C24.3071 251.256 24.6107 251.48 24.6583 251.807C24.6921 252.034 28.1411 274.592 37.6394 283.896C37.8755 284.126 37.879 284.505 37.6487 284.74C37.5301 284.86 37.3754 284.921 37.2208 284.921Z" fill="#3C80FB"/>
<path d="M66.9443 198.653C66.9443 198.653 67.6734 203.694 67.6734 205.012C67.6734 205.668 65.0779 206.004 65.0779 206.004C65.0779 206.004 65.9779 199.882 66.9443 198.653Z" fill="#FCB38F"/>
<path d="M44.4639 221.718C46.0815 222.313 49.2421 222.812 52.3191 222.312L52.6714 219.962L52.7633 219.377L53.5168 214.521L53.6098 213.915C53.6098 213.915 44.4941 207.474 40.7625 208.891C40.6183 208.94 40.4823 209.004 40.359 209.082C40.0985 211.954 39.3252 215.721 38.8101 218.171C38.9798 219.25 41.1881 220.511 44.4639 221.718Z" fill="#FCB38F"/>
<path d="M53.5182 214.522L52.7647 219.378C48.9144 217.36 45.7898 213.572 45.7898 213.572L53.5182 214.522Z" fill="#FD8471"/>
<path d="M67.2736 194.076C67.2073 195.884 67.0887 197.683 66.8887 199.3C66.784 200.197 66.6503 201.039 66.4887 201.794C66.327 202.549 66.1003 203.39 65.8119 204.273C65.8119 204.273 65.8084 204.279 65.8061 204.288C65.7793 204.443 65.5316 205.706 65.1084 207.334C65.0991 207.372 65.0874 207.412 65.0781 207.45C64.7118 208.855 64.2223 210.511 63.6315 211.942C63.5931 212.038 63.5536 212.131 63.5152 212.223C62.9512 213.538 62.307 214.63 61.6035 215.119C57.9939 217.635 45.792 213.572 45.792 213.572L44.5931 213.085C43.1883 212.722 42.9941 212.104 42.3022 211.418C41.4487 210.648 40.694 209.87 40.0288 209.068C38.8241 207.621 37.8834 206.097 37.1019 204.422C36.8007 203.778 36.6844 203.059 36.4995 202.373C36.467 202.253 36.4344 202.129 36.4077 202.009C36.3902 201.941 36.3693 201.874 36.3507 201.807C35.8437 199.799 35.4832 197.782 35.2146 195.865C34.8832 193.469 34.7076 191.243 34.6238 189.415C34.4599 186.054 36.0914 182.861 38.902 181.009C46.5153 175.994 54.9786 177.101 60.6174 178.85C64.5339 180.058 67.2283 183.644 67.3062 187.737C67.3422 189.672 67.3422 191.886 67.2736 194.076Z" fill="#FCB38F"/>
<path d="M66.1225 197.644C66.0272 198.565 65.6388 199.279 65.2574 199.239C64.8748 199.199 64.6434 198.42 64.7387 197.5C64.8341 196.579 65.2213 195.865 65.6039 195.906C65.9865 195.945 66.2191 196.725 66.1225 197.644Z" fill="#18285D"/>
<path d="M67.3658 191.651C65.8936 191.444 64.1167 191.425 62.5201 192.036C62.3701 192.093 62.2852 192.254 62.3131 192.411L62.5027 193.471C62.5352 193.653 62.7062 193.776 62.8876 193.746C63.5748 193.631 65.2773 193.414 67.2855 193.657C67.4856 193.682 67.6646 193.532 67.6681 193.331C67.6763 192.877 67.6739 192.424 67.653 191.971C67.6472 191.808 67.5263 191.674 67.3658 191.651Z" fill="#18285D"/>
<path d="M54.7857 198.463C54.6857 200.584 58.4336 199.528 58.5871 196.299C58.7394 193.07 58.5813 189.889 62.2803 189.879C65.9794 189.867 65.7573 184.772 69.404 182.632C73.0496 180.492 73.7078 176.353 71.9751 173.887C70.2425 171.422 66.1585 176.314 66.1585 176.314C66.1585 176.314 67.7749 171.459 66.0096 169.68C64.2444 167.902 60.3244 174.512 60.3244 174.512C60.3244 174.512 62.0698 168.299 60.6372 167.885C59.2057 167.472 57.9091 167.9 55.2066 173.094C55.2066 173.094 42.3035 174.231 38.3718 178.222C38.3718 178.222 34.8704 176.377 32.9168 178.597C30.9632 180.817 34.5018 181.214 34.5018 181.214C34.5018 181.214 29.9748 182.156 30.6388 184.423C31.3028 186.689 33.7436 185.572 33.7436 185.572C33.7436 185.572 32.8401 195.715 35.1298 199.504C35.1298 199.504 32.7156 206.828 34.8669 208.246C36.7008 209.456 38.3404 207.375 38.3404 207.375C38.3404 207.375 35.5554 212.971 39.3649 212.972C41.0045 212.972 43.7559 208.553 43.7559 208.553C43.7559 208.553 41.2371 214.564 44.4094 214.29C48.2608 213.956 51.1796 203.702 50.39 203.158C50.39 203.158 46.4747 202.481 46.9584 197.345C47.4689 191.924 50.9133 192.087 52.6948 192.942C55.0938 194.091 54.7857 198.463 54.7857 198.463Z" fill="#18285D"/>
<path d="M52.0424 200.905C51.9005 200.831 51.8203 200.669 51.854 200.505C52.3692 198.075 50.6249 196.065 50.6074 196.046C50.4737 195.894 50.4877 195.663 50.6388 195.529C50.79 195.396 51.0214 195.408 51.1552 195.56C51.2377 195.653 53.1646 197.859 52.5704 200.658C52.5285 200.855 52.3343 200.982 52.1366 200.94C52.1029 200.932 52.0715 200.92 52.0424 200.905Z" fill="#FD8471"/>
<path d="M50.3865 198.677C50.3261 198.646 50.2749 198.597 50.2388 198.533C50.1388 198.357 50.2005 198.134 50.3761 198.034C50.4051 198.018 51.104 197.628 52.1064 197.691C52.3076 197.703 52.4622 197.877 52.4494 198.079C52.4367 198.28 52.2634 198.434 52.0622 198.422C51.2866 198.375 50.7435 198.669 50.7377 198.672C50.6249 198.734 50.4923 198.733 50.3865 198.677Z" fill="#FD8471"/>
<path d="M65.1072 207.334C65.0979 207.372 65.0862 207.412 65.0769 207.45C64.7106 208.855 64.2211 210.511 63.6303 211.942C61.5337 210.728 61.1244 208.459 61.0918 206.772V206.599L61.3627 206.65L65.1072 207.334Z" fill="white"/>
<path d="M54.4159 232.938C54.4159 232.938 52.2925 240.25 38.1428 239.835C25.5326 239.465 20.0556 231.722 18.2322 226.117C18.8043 222.683 18.6973 223.147 19.1334 220.989C19.5741 218.815 22.0499 216.257 24.5698 215.141C28.6166 218.782 44.706 232.693 54.4159 232.938Z" fill="#3C80FB"/>
<path d="M38.9743 213.824C38.9743 213.824 34.838 208.779 27.9503 210.911C23.4001 212.319 18.5451 222.979 22.4163 228.39C26.2875 233.801 39.0127 240.337 49.3901 236.481C58.0825 233.252 57.2394 223.571 57.2394 223.571C56.7836 221.548 55.287 220.113 52.2507 219.549C52.2507 219.549 41.7047 218.502 38.9743 213.824Z" fill="#579DFF"/>
<path d="M67.3085 228.533C67.3085 228.533 92.0578 255.801 98.885 256.154L94.9743 267.818C94.9743 267.818 73.7299 262.284 66.6434 251.98C59.7557 241.965 67.3085 228.533 67.3085 228.533Z" fill="#579DFF"/>
<path d="M116.128 235.194C116.128 235.194 110.231 261.54 103.999 266.157C97.7676 270.773 93.0824 266.766 93.0824 266.766C93.0824 266.766 92.0195 260.869 95.8558 255.395C96.0826 255.073 96.3244 254.75 96.5907 254.431C97.0001 253.93 97.4594 253.434 97.9676 252.95C104.268 246.96 107.565 235.064 107.565 235.064C110.081 235.627 113.414 236.048 116.128 235.194Z" fill="#579DFF"/>
<path d="M101.664 203.554L102.834 204.236L102.976 204.319L103.201 202.822L103.198 202.823H103.197L101.664 203.554Z" fill="#18285D"/>
<path d="M102.88 203.341L101.647 227.118C101.635 227.345 101.745 227.562 101.937 227.684L112.43 234.445C112.84 234.71 113.383 234.431 113.409 233.944L114.628 210.456C114.64 210.206 114.553 209.964 114.389 209.783C114.336 209.725 114.275 209.671 114.208 209.627L103.864 202.842C103.648 202.7 103.394 202.71 103.199 202.822L103.198 202.823C103.021 202.926 102.892 203.109 102.88 203.341Z" fill="#001350"/>
<path d="M112.899 234.534L111.192 234.914L111.272 233.362L112.899 234.534Z" fill="#18285D"/>
<path d="M101.664 203.553L102.834 204.236L102.798 204.929L112.057 210.939L114.388 209.783C114.335 209.725 114.274 209.671 114.207 209.627L103.863 202.842C103.647 202.7 103.393 202.71 103.198 202.822L103.197 202.823L101.664 203.553Z" fill="#26246C"/>
<path d="M101.188 204.266L99.9789 227.572C99.9637 227.872 100.109 228.158 100.363 228.321L110.461 234.829C111.003 235.178 111.719 234.811 111.753 234.167L112.956 210.975C112.972 210.677 112.829 210.395 112.579 210.231L102.486 203.609C101.944 203.253 101.222 203.62 101.188 204.266Z" fill="#3B3E7D"/>
<path d="M102.402 205.905L101.302 227.115C101.294 227.274 101.372 227.425 101.506 227.513L109.853 232.891C109.958 232.958 110.075 232.976 110.183 232.953C110.37 232.913 110.527 232.756 110.539 232.54L111.634 211.424C111.643 211.266 111.566 211.116 111.434 211.029L107.021 208.134L103.093 205.557C103.068 205.54 103.041 205.525 103.014 205.515C102.738 205.404 102.419 205.593 102.402 205.905Z" fill="white"/>
<path d="M109.512 209.751L109.453 210.893C109.445 211.06 109.259 211.154 109.119 211.062L104.74 208.192C104.676 208.15 104.639 208.077 104.643 208L104.716 206.613L109.512 209.751Z" fill="#3B3E7D"/>
<path d="M107.204 234.679C107.204 234.679 105.39 232.594 105.105 230.061C104.82 227.528 103.548 222.923 105.105 222.348C106.662 221.772 106.448 225.917 108.282 227.183C110.116 228.449 114.122 223.564 114.065 221.295C114.019 219.417 114.322 216.337 114.322 216.337C114.322 216.337 119.096 217.857 120.016 223.152C120.937 228.448 116.126 235.193 116.126 235.193C116.126 235.193 109.888 237.963 107.204 234.679Z" fill="#FCB38F"/>
<path d="M98.8783 258.087C98.7678 258.171 98.6422 258.21 98.5143 258.21C98.3352 258.21 98.1585 258.129 98.0399 257.977C97.3259 257.042 96.577 256.173 95.8572 255.394C96.0839 255.072 96.3258 254.749 96.5921 254.43C97.3805 255.272 98.205 256.222 98.9899 257.252C99.1888 257.514 99.1376 257.887 98.8783 258.087Z" fill="#3C80FB"/>
<path d="M95.4118 230.533C95.4118 230.533 90.0906 239.138 83.1599 244.728C79.5376 241.305 75.9664 237.687 73.136 234.74C78.141 232.399 84.9123 228.717 90.0312 224.014L95.4118 230.533Z" fill="#2E60E0"/>
<path d="M104.19 227.402C103.07 228.08 101.849 228.728 100.986 229.284C98.8455 230.669 96.0837 230.589 96.0837 230.589C91.8404 230.592 90.031 224.014 90.031 224.014C90.031 224.014 92.1986 216.017 96.878 213.371C98.1827 212.634 99.6258 212.314 100.776 212.24L100.29 221.617C100.286 221.626 100.285 221.693 100.285 221.702C100.258 221.98 100.242 222.278 100.242 222.538C100.246 223.786 100.399 224.772 101.2 225.006C103.341 225.621 106.411 222.829 106.954 224.396C107.275 225.332 105.848 226.399 104.19 227.402Z" fill="#FCB38F"/>
<path d="M345.787 404.038C356.006 404.038 364.29 401.685 364.29 398.783C364.29 395.881 356.006 393.528 345.787 393.528C335.569 393.528 327.285 395.881 327.285 398.783C327.285 401.685 335.569 404.038 345.787 404.038Z" fill="#E5E5E5"/>
<path d="M364.119 370.072L356.362 396.018C356.043 397.31 355.162 398.388 353.971 398.983C348.097 401.918 342.224 401.919 336.354 398.983C335.163 398.388 334.284 397.311 333.964 396.019L326.085 370.324L345.163 367.392L364.119 370.072Z" fill="#3B3E7D"/>
<path d="M345.164 378.833C355.727 378.833 364.291 374.303 364.291 368.715C364.291 363.127 355.727 358.597 345.164 358.597C334.6 358.597 326.037 363.127 326.037 368.715C326.037 374.303 334.6 378.833 345.164 378.833Z" fill="#26246C"/>
<path d="M358.391 368.714C358.391 371.976 352.469 374.621 345.164 374.621C337.859 374.621 331.938 371.976 331.938 368.714C331.938 365.452 337.859 362.808 345.164 362.808C352.468 362.808 358.391 365.452 358.391 368.714Z" fill="#001350"/>
<path d="M370.541 327.721C362.521 325.608 350.266 342.257 346.543 358.489V334.839C348.414 331.522 351.981 326.529 358.458 321.256C368.529 313.053 377.801 302.527 369.766 300.41C362.236 298.427 350.974 312.98 346.544 328.199V297.829C347.842 295.815 349.968 293.172 353.366 290.404C359.713 285.235 365.556 278.6 360.492 277.266C356.097 276.109 349.685 283.887 346.543 292.661V282.817C347.063 279.772 347.797 275.424 349.811 270.978C354.48 260.676 357.001 250.063 350.846 250.853C344.685 251.643 340.69 269.99 344.059 284.076V289.141C341.784 278.833 333.976 268.158 328.879 269.5C323.815 270.834 329.658 277.468 336.005 282.638C340.837 286.573 343.098 290.256 344.059 292.238V316.161C340.409 299.849 328.068 283.01 320.004 285.135C311.969 287.251 321.24 297.778 331.312 305.98C338.923 312.179 342.516 317.987 344.06 321.147V349.836C340.159 333.821 328.133 317.659 320.223 319.743C312.187 321.859 319.079 329.553 330.397 338.857C338.089 345.181 342.209 351.853 344.06 355.481V368.995C344.958 369.246 345.799 369.245 346.543 368.995V363.618C348.118 360.434 351.716 354.692 359.234 348.569C369.305 340.364 378.577 329.838 370.541 327.721Z" fill="#3C80FB"/>
<path d="M333.742 114.506L329.672 123.413V116.856L333.742 114.506Z" fill="#2E60E0"/>
<path d="M329.675 123.413L327.658 122.247V118.019L329.672 116.856L329.675 123.413Z" fill="#0041C6"/>
<path d="M309.522 92.9849V122.595L314.642 125.551L314.198 95.7048L309.522 92.9849Z" fill="#0041C6"/>
<path d="M340.711 80.396V110.499L314.642 125.55L314.198 95.704L340.711 80.396Z" fill="#2E60E0"/>
<path d="M334.328 96.9355C334.347 98.2112 333.965 99.7357 333.178 101.202L327.806 111.209L322.239 107.986C321.424 107.514 321.005 106.486 320.986 105.209C320.968 103.934 321.349 102.409 322.135 100.945C323.603 98.2112 325.884 97.1262 327.63 99.1252C329.286 95.0168 331.558 93.2794 333.078 94.1597C333.891 94.6319 334.309 95.6598 334.328 96.9355Z" fill="white"/>
<path d="M309.522 92.9842L336.036 77.6763L340.711 80.3962L314.198 95.7042L309.522 92.9842Z" fill="#3C80FB"/>
<path d="M240.018 42.3005C239.974 45.6845 238.77 49.4382 236.866 52.7605C234.962 56.0828 232.357 58.9737 229.513 60.6308L154.943 104.066C149.253 107.38 144.67 104.556 144.759 97.7878C144.777 96.3517 145.006 94.8446 145.407 93.3399C145.952 91.2932 146.817 89.2373 147.911 87.3278C149.325 84.8614 151.125 82.6322 153.123 80.9693C153.942 61.1273 167.624 37.6607 184.168 28.024C194.992 21.719 204.417 22.8644 209.726 29.7846C211.255 28.324 212.879 27.0728 214.564 26.0913C215.086 25.7878 215.598 25.5192 216.102 25.282C224.175 21.4945 230.393 25.9123 230.265 35.771C230.265 35.7757 230.265 35.7757 230.265 35.7815C235.753 32.8534 240.104 35.7071 240.018 42.3005Z" fill="#2E60E0"/>
<path d="M241.996 34.8438L236.632 34.3345L235.189 36.5358C235.189 36.5358 236.101 37.3451 237.988 36.6137C239.876 35.8811 241.996 34.8438 241.996 34.8438Z" fill="#2E60E0"/>
<path d="M222.239 23.9492L230.151 24.1678L226.491 26.882C226.491 26.882 223.19 26.0528 222.239 23.9492Z" fill="#2E60E0"/>
<path d="M149.915 105.441L157.339 105.625L154.753 103.375C154.753 103.375 150.13 104.378 149.915 105.441Z" fill="#2E60E0"/>
<path d="M247.579 42.5085C247.535 45.8925 246.331 49.6462 244.427 52.9685C242.523 56.2908 239.918 59.1817 237.074 60.8388L162.504 104.274C156.814 107.588 152.231 104.763 152.32 97.9958C152.338 96.5597 152.567 95.0526 152.968 93.5478C153.513 91.5012 154.378 89.4453 155.472 87.5358C156.886 85.0694 158.686 82.8402 160.684 81.1773C161.503 61.3353 175.185 37.8687 191.729 28.232C202.553 21.927 211.978 23.0724 217.287 29.9926C218.816 28.5321 220.44 27.2808 222.125 26.2994C222.647 25.9958 223.159 25.7272 223.663 25.49C231.736 21.7025 237.954 26.1203 237.826 35.979C237.826 35.9837 237.826 35.9837 237.826 35.9895C243.314 33.0626 247.665 35.9162 247.579 42.5085Z" fill="#3C80FB"/>
<path d="M213.31 42.2185L208.171 39.0509L204.082 36.5298L203.595 37.3752L201.14 41.658L199.865 43.8872L194.561 53.1378C193.398 55.1705 193.369 57.3788 194.497 58.0777C195.627 58.7707 197.486 57.6881 198.649 55.6589L200.972 51.6075L200.749 68.6167C200.724 70.5459 202.019 71.3436 203.64 70.3994C205.261 69.4552 206.598 67.1248 206.622 65.1967L206.844 48.1922L209.092 49.5783C209.657 49.9225 210.404 49.8271 211.157 49.3887C211.907 48.9515 212.662 48.1736 213.246 47.1595C214.408 45.1257 214.438 42.9174 213.31 42.2185Z" fill="white"/>
<path d="M107.243 186.972L111.313 195.877V189.321L107.243 186.972Z" fill="#2E60E0"/>
<path d="M111.309 195.878L113.328 194.712V190.484L111.313 189.321L111.309 195.878Z" fill="#0041C6"/>
<path d="M130.223 164.766V194.376L125.103 197.332L125.548 167.487L130.223 164.766Z" fill="#0041C6"/>
<path d="M99.0339 152.177V182.28L125.103 197.331L125.548 167.486L99.0339 152.177Z" fill="#2E60E0"/>
<path d="M130.223 164.765L103.709 149.458L99.0339 152.177L125.548 167.487L130.223 164.765Z" fill="#3C80FB"/>
<path d="M103.662 169.59C103.592 174.182 107.407 180.236 112.165 183.084C116.922 185.932 120.85 184.512 120.92 179.92C120.99 175.328 117.176 169.274 112.417 166.426C107.659 163.578 103.732 164.998 103.662 169.59ZM108.458 175.564C108.189 174.489 108.05 173.416 108.041 172.369L111.942 174.704L111.897 177.623L108.458 175.564ZM110.425 181.176C108.24 179.387 106.397 176.93 105.315 174.358L107.943 175.931C108.289 177.134 108.78 178.328 109.402 179.483C109.717 180.067 110.06 180.635 110.425 181.176ZM111.887 178.293L111.828 182.199C111.568 181.893 110.75 180.88 109.938 179.365C109.418 178.394 108.996 177.389 108.683 176.375L111.887 178.293ZM108.991 168.642C109.942 167.225 111.314 166.825 111.751 166.729C111.854 166.783 111.957 166.839 112.06 166.896L112.007 170.446L108.991 168.642ZM105.655 166.646C106.786 165.632 108.547 165.47 110.538 166.193C110.142 166.358 109.768 166.575 109.426 166.839C108.954 167.203 108.553 167.657 108.233 168.189L105.655 166.646ZM108.055 171.702C108.111 170.73 108.328 169.869 108.698 169.142L111.995 171.116L111.951 174.033L108.055 171.702ZM104.382 169.504C104.468 168.524 104.76 167.709 105.251 167.079L107.962 168.703C107.616 169.45 107.415 170.319 107.361 171.288L104.382 169.504ZM107.347 171.954C107.354 172.993 107.484 174.06 107.736 175.131L104.978 173.481C104.571 172.306 104.362 171.191 104.356 170.164L107.347 171.954ZM117.149 177.822L120.22 179.66C120.184 180.662 119.945 181.509 119.51 182.18L116.672 180.483C116.951 179.727 117.112 178.832 117.149 177.822ZM112.7 170.862L112.753 167.312C112.827 167.358 112.9 167.406 112.973 167.455C113.269 167.877 113.985 168.95 114.695 170.394C115.06 171.137 115.377 171.884 115.635 172.619L112.7 170.862ZM115.907 173.458C116.249 174.615 116.435 175.716 116.461 176.734L112.645 174.45L112.689 171.532L115.907 173.458ZM116.392 173.072C116.093 172.169 115.713 171.247 115.261 170.33C114.926 169.652 114.558 168.984 114.166 168.341C116.188 170.002 117.95 172.28 119.05 174.662L116.392 173.072ZM116.456 177.407C116.416 178.428 116.247 179.316 115.952 180.05L112.592 178.038L112.636 175.119L116.456 177.407ZM117.156 177.15C117.133 176.136 116.961 175.043 116.643 173.898L119.435 175.569C119.899 176.771 120.161 177.917 120.215 178.981L117.156 177.15ZM119.154 182.642C118.008 183.886 116.042 184.101 113.824 183.233C114.209 183.135 114.571 182.983 114.905 182.777C115.55 182.379 116.068 181.788 116.444 181.02L119.154 182.642ZM115.704 180.577C114.709 182.404 113.053 182.564 112.523 182.566L112.581 178.708L115.704 180.577Z" fill="white"/>
<path d="M292.898 477.578C319.941 467.404 338.121 449.211 333.506 436.942C328.89 424.673 303.226 422.974 276.183 433.148C249.141 443.322 230.96 461.515 235.576 473.784C240.192 486.053 265.856 487.752 292.898 477.578Z" fill="#E5E5E5"/>
<path d="M322.735 397.561L275.611 424.769L244.196 406.631L291.031 379.258L322.735 397.561Z" fill="#586197"/>
<mask id="mask0_761_412" style="mask-type:luminance" maskUnits="userSpaceOnUse" x="251" y="357" width="65" height="64">
<path d="M252.363 406.608L275.611 420.031L314.531 397.561L315.233 369.181L292.942 357.259L251.281 379.157L252.363 406.608Z" fill="white"/>
</mask>
<g mask="url(#mask0_761_412)">
<path d="M314.531 397.561L291.044 384.002L252.363 406.609L275.611 420.032L314.531 397.561Z" fill="#001350"/>
</g>
<mask id="mask1_761_412" style="mask-type:luminance" maskUnits="userSpaceOnUse" x="251" y="357" width="65" height="64">
<path d="M252.363 406.608L275.611 420.031L314.531 397.561L315.233 369.181L292.942 357.259L251.281 379.157L252.363 406.608Z" fill="white"/>
</mask>
<g mask="url(#mask1_761_412)">
<path d="M295.952 365.354V395.853C295.952 396.276 295.726 396.666 295.362 396.878L277.591 407.005L260.704 416.629C260.467 416.764 260.212 416.807 259.971 416.777C259.414 416.706 258.934 416.236 258.934 415.601V385.353C258.934 384.929 259.16 384.539 259.526 384.327L294.176 364.328C294.965 363.872 295.952 364.442 295.952 365.354Z" fill="#2E60E0"/>
<path d="M286.82 388.17C286.606 391.868 283.629 394.824 280.169 394.771C276.71 394.719 274.078 391.678 274.292 387.98C274.506 384.281 277.483 381.326 280.942 381.379C284.402 381.431 287.033 384.472 286.82 388.17Z" fill="#6EB4FA"/>
<path d="M295.951 387.743V395.853C295.951 396.277 295.726 396.666 295.362 396.878L277.591 407.005L284.017 387.56L286.903 379.229L292.99 384.983L295.951 387.743Z" fill="#18285D"/>
<path d="M292.99 384.983L291.733 387.278L288.446 386.584L287.132 388.844L284.017 387.56L286.902 379.229L292.99 384.983Z" fill="white"/>
<path d="M289.367 400.293L277.59 407.005L260.703 416.629C260.466 416.763 260.211 416.806 259.97 416.776L268.036 393.491L271.522 383.425L278.877 390.378L289.367 400.293Z" fill="#3B3E7D"/>
<path d="M278.877 390.377L277.36 393.15L273.388 392.312L271.801 395.042L268.036 393.49L271.523 383.425L278.877 390.377Z" fill="white"/>
</g>
<mask id="mask2_761_412" style="mask-type:luminance" maskUnits="userSpaceOnUse" x="251" y="357" width="65" height="64">
<path d="M252.363 406.608L275.611 420.031L314.531 397.561L315.233 369.181L292.942 357.259L251.281 379.157L252.363 406.608Z" fill="white"/>
</mask>
<g mask="url(#mask2_761_412)">
<path d="M309.602 372.483V402.984C309.602 403.407 309.377 403.796 309.013 404.008L291.242 414.135L274.355 423.759C274.118 423.894 273.863 423.937 273.622 423.907C273.065 423.836 272.585 423.366 272.585 422.731V392.483C272.585 392.06 272.811 391.669 273.177 391.457L307.827 371.459C308.616 371.002 309.602 371.572 309.602 372.483Z" fill="#3C80FB"/>
<path d="M300.471 395.301C300.257 399 297.28 401.955 293.82 401.902C290.361 401.85 287.73 398.809 287.943 395.111C288.157 391.413 291.134 388.457 294.593 388.509C298.053 388.562 300.684 391.603 300.471 395.301Z" fill="#6EB4FA"/>
<path d="M309.602 394.874V402.984C309.602 403.407 309.377 403.797 309.013 404.008L291.242 414.136L297.668 394.69L300.554 386.359L306.641 392.113L309.602 394.874Z" fill="#18285D"/>
<path d="M306.641 392.113L305.383 394.409L302.097 393.714L300.783 395.974L297.668 394.69L300.553 386.359L306.641 392.113Z" fill="white"/>
<path d="M303.018 407.424L291.241 414.136L274.354 423.759C274.116 423.894 273.862 423.937 273.621 423.907L281.687 400.622L285.173 390.556L292.528 397.509L303.018 407.424Z" fill="#3B3E7D"/>
<path d="M292.528 397.508L291.01 400.281L287.039 399.443L285.452 402.173L281.687 400.621L285.174 390.556L292.528 397.508Z" fill="white"/>
</g>
<path d="M322.735 397.562V451.975L275.611 479.183V424.769L322.735 397.562Z" fill="#3B3E7D"/>
<path d="M301.1 421.405C292.705 426.43 285.975 437.109 286.097 445.212C286.22 453.315 293.149 455.82 301.544 450.795C309.939 445.771 316.669 435.09 316.546 426.987C316.424 418.884 309.494 416.38 301.1 421.405ZM302.016 441.16L301.938 436.011L308.82 431.892C308.805 433.737 308.558 435.631 308.085 437.527L302.016 441.16ZM306.417 444.444C307.514 442.405 308.38 440.297 308.992 438.177L313.629 435.401C311.72 439.939 308.468 444.273 304.614 447.43C305.258 446.475 305.863 445.473 306.417 444.444ZM307.687 438.957C307.135 440.747 306.391 442.52 305.473 444.233C304.042 446.905 302.595 448.694 302.138 449.232L302.033 442.341L307.687 438.957ZM301.824 428.498L301.729 422.234C301.91 422.133 302.091 422.035 302.274 421.941C303.045 422.109 305.465 422.816 307.142 425.316L301.824 428.498ZM308.48 424.514C307.916 423.576 307.208 422.775 306.374 422.132C305.771 421.667 305.113 421.284 304.414 420.993C307.928 419.717 311.035 420.001 313.029 421.791L308.48 424.514ZM301.921 434.829L301.843 429.68L307.66 426.197C308.315 427.48 308.697 428.997 308.795 430.714L301.921 434.829ZM310.02 429.981C309.927 428.272 309.57 426.739 308.959 425.42L313.745 422.556C314.61 423.666 315.125 425.104 315.276 426.834L310.02 429.981ZM315.321 428C315.312 429.811 314.942 431.779 314.225 433.852L309.361 436.764C309.802 434.876 310.033 432.992 310.046 431.159L315.321 428ZM293.589 446.204L288.582 449.201C287.815 448.017 287.394 446.523 287.329 444.755L292.748 441.512C292.816 443.296 293.099 444.873 293.589 446.204ZM295.42 432.331C295.876 431.035 296.433 429.715 297.078 428.404C298.331 425.858 299.596 423.964 300.117 423.219C300.246 423.133 300.374 423.049 300.504 422.967L300.598 429.231L295.42 432.331ZM300.618 430.413L300.696 435.562L293.964 439.591C294.01 437.794 294.339 435.851 294.941 433.81L300.618 430.413ZM289.396 435.937C291.338 431.734 294.447 427.714 298.014 424.783C297.321 425.918 296.674 427.096 296.083 428.291C295.284 429.911 294.613 431.538 294.086 433.129L289.396 435.937ZM300.714 436.743L300.791 441.892L294.863 445.441C294.342 444.146 294.043 442.578 293.974 440.778L300.714 436.743ZM287.339 443.556C287.436 441.68 287.899 439.656 288.716 437.537L293.642 434.588C293.082 436.608 292.778 438.536 292.737 440.325L287.339 443.556ZM293.993 447.154C294.658 448.51 295.571 449.553 296.71 450.253C297.298 450.615 297.938 450.885 298.616 451.057C294.704 452.59 291.235 452.21 289.213 450.015L293.993 447.154ZM300.81 443.075L300.914 449.882C299.979 449.879 297.056 449.595 295.302 446.372L300.81 443.075Z" fill="#586197"/>
<path d="M275.611 479.183L244.196 460.67V406.631L275.611 424.769V479.183Z" fill="#26246C"/>
</svg>
