<svg width="1136" height="138" viewBox="0 0 1136 138" fill="none" xmlns="http://www.w3.org/2000/svg">
<path d="M68.7018 137.33C56.1618 137.33 44.6351 134.417 34.1218 128.59C23.7351 122.763 15.4385 114.657 9.2318 104.27C3.1518 93.7567 0.111797 81.9767 0.111797 68.93C0.111797 55.8833 3.1518 44.1667 9.2318 33.78C15.4385 23.3933 23.7351 15.2867 34.1218 9.46C44.6351 3.63333 56.1618 0.719998 68.7018 0.719998C81.2418 0.719998 92.7051 3.63333 103.092 9.46C113.605 15.2867 121.838 23.3933 127.792 33.78C133.872 44.1667 136.912 55.8833 136.912 68.93C136.912 81.9767 133.872 93.7567 127.792 104.27C121.712 114.657 113.478 122.763 103.092 128.59C92.7051 134.417 81.2418 137.33 68.7018 137.33ZM68.7018 107.69C79.3418 107.69 87.8285 104.143 94.1618 97.05C100.622 89.9567 103.852 80.5833 103.852 68.93C103.852 57.15 100.622 47.7767 94.1618 40.81C87.8285 33.7167 79.3418 30.17 68.7018 30.17C57.9351 30.17 49.3218 33.6533 42.8618 40.62C36.5285 47.5867 33.3618 57.0233 33.3618 68.93C33.3618 80.71 36.5285 90.1467 42.8618 97.24C49.3218 104.207 57.9351 107.69 68.7018 107.69ZM196.407 2.62V82.42C196.407 90.4 198.37 96.5433 202.297 100.85C206.224 105.157 211.987 107.31 219.587 107.31C227.187 107.31 233.014 105.157 237.067 100.85C241.12 96.5433 243.147 90.4 243.147 82.42V2.62H275.637V82.23C275.637 94.1367 273.104 104.207 268.037 112.44C262.97 120.673 256.13 126.88 247.517 131.06C239.03 135.24 229.53 137.33 219.017 137.33C208.504 137.33 199.067 135.303 190.707 131.25C182.474 127.07 175.95 120.863 171.137 112.63C166.324 104.27 163.917 94.1367 163.917 82.23V2.62H196.407ZM375.972 136L348.232 85.65H340.442V136H307.952V2.62H362.482C372.995 2.62 381.925 4.45666 389.272 8.12999C396.745 11.8033 402.319 16.87 405.992 23.33C409.665 29.6633 411.502 36.7567 411.502 44.61C411.502 53.4767 408.969 61.3933 403.902 68.36C398.962 75.3267 391.615 80.2667 381.862 83.18L412.642 136H375.972ZM340.442 62.66H360.582C366.535 62.66 370.969 61.2033 373.882 58.29C376.922 55.3767 378.442 51.26 378.442 45.94C378.442 40.8733 376.922 36.8833 373.882 33.97C370.969 31.0567 366.535 29.6 360.582 29.6H340.442V62.66ZM571.911 67.6C579.638 69.2467 585.844 73.11 590.531 79.19C595.218 85.1433 597.561 91.9833 597.561 99.71C597.561 110.857 593.634 119.723 585.781 126.31C578.054 132.77 567.224 136 553.291 136H491.161V2.62H551.201C564.754 2.62 575.331 5.72333 582.931 11.93C590.658 18.1367 594.521 26.56 594.521 37.2C594.521 45.0533 592.431 51.5767 588.251 56.77C584.198 61.9633 578.751 65.5733 571.911 67.6ZM523.651 56.58H544.931C550.251 56.58 554.304 55.44 557.091 53.16C560.004 50.7533 561.461 47.27 561.461 42.71C561.461 38.15 560.004 34.6667 557.091 32.26C554.304 29.8533 550.251 28.65 544.931 28.65H523.651V56.58ZM547.591 109.78C553.038 109.78 557.218 108.577 560.131 106.17C563.171 103.637 564.691 100.027 564.691 95.34C564.691 90.6533 563.108 86.98 559.941 84.32C556.901 81.66 552.658 80.33 547.211 80.33H523.651V109.78H547.591ZM658.395 110.92H700.955V136H625.905V2.62H658.395V110.92ZM789.032 137.33C776.492 137.33 764.965 134.417 754.452 128.59C744.065 122.763 735.769 114.657 729.562 104.27C723.482 93.7567 720.442 81.9767 720.442 68.93C720.442 55.8833 723.482 44.1667 729.562 33.78C735.769 23.3933 744.065 15.2867 754.452 9.46C764.965 3.63333 776.492 0.719998 789.032 0.719998C801.572 0.719998 813.035 3.63333 823.422 9.46C833.935 15.2867 842.169 23.3933 848.122 33.78C854.202 44.1667 857.242 55.8833 857.242 68.93C857.242 81.9767 854.202 93.7567 848.122 104.27C842.042 114.657 833.809 122.763 823.422 128.59C813.035 134.417 801.572 137.33 789.032 137.33ZM789.032 107.69C799.672 107.69 808.159 104.143 814.492 97.05C820.952 89.9567 824.182 80.5833 824.182 68.93C824.182 57.15 820.952 47.7767 814.492 40.81C808.159 33.7167 799.672 30.17 789.032 30.17C778.265 30.17 769.652 33.6533 763.192 40.62C756.859 47.5867 753.692 57.0233 753.692 68.93C753.692 80.71 756.859 90.1467 763.192 97.24C769.652 104.207 778.265 107.69 789.032 107.69ZM973.357 44.8C970.95 40.3667 967.467 37.01 962.907 34.73C958.474 32.3233 953.217 31.12 947.137 31.12C936.624 31.12 928.2 34.6033 921.867 41.57C915.534 48.41 912.367 57.5933 912.367 69.12C912.367 81.4067 915.66 91.0333 922.247 98C928.96 104.84 938.144 108.26 949.797 108.26C957.777 108.26 964.49 106.233 969.937 102.18C975.51 98.1267 979.564 92.3 982.097 84.7H940.867V60.76H1011.55V90.97C1009.14 99.0767 1005.02 106.613 999.197 113.58C993.497 120.547 986.214 126.183 977.347 130.49C968.48 134.797 958.474 136.95 947.327 136.95C934.154 136.95 922.374 134.1 911.987 128.4C901.727 122.573 893.684 114.53 887.857 104.27C882.157 94.01 879.307 82.2933 879.307 69.12C879.307 55.9467 882.157 44.23 887.857 33.97C893.684 23.5833 901.727 15.54 911.987 9.83999C922.247 4.01333 933.964 1.09999 947.137 1.09999C963.097 1.09999 976.524 4.96333 987.417 12.69C998.437 20.4167 1005.72 31.12 1009.27 44.8H973.357ZM1087.3 137.33C1077.55 137.33 1068.81 135.747 1061.08 132.58C1053.36 129.413 1047.15 124.727 1042.46 118.52C1037.9 112.313 1035.5 104.84 1035.24 96.1H1069.82C1070.33 101.04 1072.04 104.84 1074.95 107.5C1077.87 110.033 1081.67 111.3 1086.35 111.3C1091.17 111.3 1094.97 110.223 1097.75 108.07C1100.54 105.79 1101.93 102.687 1101.93 98.76C1101.93 95.4667 1100.79 92.7433 1098.51 90.59C1096.36 88.4367 1093.64 86.6633 1090.34 85.27C1087.18 83.8767 1082.62 82.2933 1076.66 80.52C1068.05 77.86 1061.02 75.2 1055.57 72.54C1050.13 69.88 1045.44 65.9533 1041.51 60.76C1037.59 55.5667 1035.62 48.79 1035.62 40.43C1035.62 28.0167 1040.12 18.3267 1049.11 11.36C1058.11 4.26666 1069.82 0.719998 1084.26 0.719998C1098.96 0.719998 1110.8 4.26666 1119.79 11.36C1128.79 18.3267 1133.6 28.08 1134.23 40.62H1099.08C1098.83 36.3133 1097.25 32.9567 1094.33 30.55C1091.42 28.0167 1087.68 26.75 1083.12 26.75C1079.2 26.75 1076.03 27.8267 1073.62 29.98C1071.22 32.0067 1070.01 34.9833 1070.01 38.91C1070.01 43.2167 1072.04 46.5733 1076.09 48.98C1080.15 51.3867 1086.48 53.9833 1095.09 56.77C1103.71 59.6833 1110.67 62.47 1115.99 65.13C1121.44 67.79 1126.13 71.6533 1130.05 76.72C1133.98 81.7867 1135.94 88.31 1135.94 96.29C1135.94 103.89 1133.98 110.793 1130.05 117C1126.25 123.207 1120.68 128.147 1113.33 131.82C1105.99 135.493 1097.31 137.33 1087.3 137.33Z" fill="#F7F7F7"/>
</svg>
