<svg width="1324" height="138" viewBox="0 0 1324 138" fill="none" xmlns="http://www.w3.org/2000/svg">
<path d="M69.5387 137.33C56.9987 137.33 45.472 134.417 34.9587 128.59C24.572 122.763 16.2754 114.657 10.0687 104.27C3.98871 93.7567 0.948711 81.9767 0.948711 68.93C0.948711 55.8833 3.98871 44.1667 10.0687 33.78C16.2754 23.3933 24.572 15.2867 34.9587 9.46C45.472 3.63333 56.9987 0.719998 69.5387 0.719998C82.0787 0.719998 93.5421 3.63333 103.929 9.46C114.442 15.2867 122.675 23.3933 128.629 33.78C134.709 44.1667 137.749 55.8833 137.749 68.93C137.749 81.9767 134.709 93.7567 128.629 104.27C122.549 114.657 114.315 122.763 103.929 128.59C93.5421 134.417 82.0787 137.33 69.5387 137.33ZM69.5387 107.69C80.1787 107.69 88.6654 104.143 94.9987 97.05C101.459 89.9567 104.689 80.5833 104.689 68.93C104.689 57.15 101.459 47.7767 94.9987 40.81C88.6654 33.7167 80.1787 30.17 69.5387 30.17C58.772 30.17 50.1587 33.6533 43.6987 40.62C37.3654 47.5867 34.1987 57.0233 34.1987 68.93C34.1987 80.71 37.3654 90.1467 43.6987 97.24C50.1587 104.207 58.772 107.69 69.5387 107.69ZM197.244 2.62V82.42C197.244 90.4 199.207 96.5433 203.134 100.85C207.061 105.157 212.824 107.31 220.424 107.31C228.024 107.31 233.851 105.157 237.904 100.85C241.957 96.5433 243.984 90.4 243.984 82.42V2.62H276.474V82.23C276.474 94.1367 273.941 104.207 268.874 112.44C263.807 120.673 256.967 126.88 248.354 131.06C239.867 135.24 230.367 137.33 219.854 137.33C209.341 137.33 199.904 135.303 191.544 131.25C183.311 127.07 176.787 120.863 171.974 112.63C167.161 104.27 164.754 94.1367 164.754 82.23V2.62H197.244ZM376.809 136L349.069 85.65H341.279V136H308.789V2.62H363.319C373.832 2.62 382.762 4.45666 390.109 8.12999C397.582 11.8033 403.155 16.87 406.829 23.33C410.502 29.6633 412.339 36.7567 412.339 44.61C412.339 53.4767 409.805 61.3933 404.739 68.36C399.799 75.3267 392.452 80.2667 382.699 83.18L413.479 136H376.809ZM341.279 62.66H361.419C367.372 62.66 371.805 61.2033 374.719 58.29C377.759 55.3767 379.279 51.26 379.279 45.94C379.279 40.8733 377.759 36.8833 374.719 33.97C371.805 31.0567 367.372 29.6 361.419 29.6H341.279V62.66ZM643.048 2.62V136H610.558V56.01L580.728 136H554.508L524.488 55.82V136H491.998V2.62H530.378L567.808 94.96L604.858 2.62H643.048ZM708.402 28.65V55.63H751.912V80.71H708.402V109.97H757.612V136H675.912V2.62H757.612V28.65H708.402ZM939.255 2.62V136H906.765V56.01L876.935 136H850.715L820.695 55.82V136H788.205V2.62H826.585L864.015 94.96L901.065 2.62H939.255ZM1052.87 67.6C1060.6 69.2467 1066.8 73.11 1071.49 79.19C1076.18 85.1433 1078.52 91.9833 1078.52 99.71C1078.52 110.857 1074.59 119.723 1066.74 126.31C1059.01 132.77 1048.18 136 1034.25 136H972.119V2.62H1032.16C1045.71 2.62 1056.29 5.72333 1063.89 11.93C1071.62 18.1367 1075.48 26.56 1075.48 37.2C1075.48 45.0533 1073.39 51.5767 1069.21 56.77C1065.16 61.9633 1059.71 65.5733 1052.87 67.6ZM1004.61 56.58H1025.89C1031.21 56.58 1035.26 55.44 1038.05 53.16C1040.96 50.7533 1042.42 47.27 1042.42 42.71C1042.42 38.15 1040.96 34.6667 1038.05 32.26C1035.26 29.8533 1031.21 28.65 1025.89 28.65H1004.61V56.58ZM1028.55 109.78C1034 109.78 1038.18 108.577 1041.09 106.17C1044.13 103.637 1045.65 100.027 1045.65 95.34C1045.65 90.6533 1044.07 86.98 1040.9 84.32C1037.86 81.66 1033.62 80.33 1028.17 80.33H1004.61V109.78H1028.55ZM1139.35 28.65V55.63H1182.86V80.71H1139.35V109.97H1188.56V136H1106.86V2.62H1188.56V28.65H1139.35ZM1287.18 136L1259.44 85.65H1251.65V136H1219.16V2.62H1273.69C1284.2 2.62 1293.13 4.45666 1300.48 8.12999C1307.95 11.8033 1313.52 16.87 1317.2 23.33C1320.87 29.6633 1322.71 36.7567 1322.71 44.61C1322.71 53.4767 1320.17 61.3933 1315.11 68.36C1310.17 75.3267 1302.82 80.2667 1293.07 83.18L1323.85 136H1287.18ZM1251.65 62.66H1271.79C1277.74 62.66 1282.17 61.2033 1285.09 58.29C1288.13 55.3767 1289.65 51.26 1289.65 45.94C1289.65 40.8733 1288.13 36.8833 1285.09 33.97C1282.17 31.0567 1277.74 29.6 1271.79 29.6H1251.65V62.66Z" fill="#F7F7F7"/>
</svg>
