<svg width="42" height="42" viewBox="0 0 42 42" fill="none" xmlns="http://www.w3.org/2000/svg">
<g clip-path="url(#clip0_32_617)">
<path d="M40.7242 16.4832C38.01 12.0627 31.836 4.64624 21 4.64624C10.164 4.64624 3.98997 12.0627 1.27572 16.4832C0.436642 17.8404 -0.0078125 19.4044 -0.0078125 21C-0.0078125 22.5956 0.436642 24.1596 1.27572 25.5167C3.98997 29.9372 10.164 37.3537 21 37.3537C31.836 37.3537 38.01 29.9372 40.7242 25.5167C41.5633 24.1596 42.0077 22.5956 42.0077 21C42.0077 19.4044 41.5633 17.8404 40.7242 16.4832ZM37.7405 23.6845C35.4095 27.475 30.1332 33.8537 21 33.8537C11.8667 33.8537 6.59047 27.475 4.25947 23.6845C3.76095 22.8778 3.49691 21.9483 3.49691 21C3.49691 20.0517 3.76095 19.1222 4.25947 18.3155C6.59047 14.525 11.8667 8.14624 21 8.14624C30.1332 8.14624 35.4095 14.518 37.7405 18.3155C38.239 19.1222 38.503 20.0517 38.503 21C38.503 21.9483 38.239 22.8778 37.7405 23.6845Z" fill="white"/>
<path d="M21 12.25C19.2694 12.25 17.5777 12.7632 16.1388 13.7246C14.6998 14.6861 13.5783 16.0527 12.9161 17.6515C12.2538 19.2504 12.0805 21.0097 12.4181 22.707C12.7558 24.4044 13.5891 25.9635 14.8128 27.1872C16.0365 28.4109 17.5956 29.2443 19.293 29.5819C20.9903 29.9195 22.7496 29.7462 24.3485 29.0839C25.9473 28.4217 27.3139 27.3002 28.2754 25.8612C29.2368 24.4223 29.75 22.7306 29.75 21C29.7472 18.6802 28.8245 16.4562 27.1841 14.8159C25.5438 13.1755 23.3198 12.2528 21 12.25ZM21 26.25C19.9617 26.25 18.9466 25.9421 18.0833 25.3652C17.2199 24.7883 16.547 23.9684 16.1496 23.0091C15.7523 22.0498 15.6483 20.9942 15.8509 19.9758C16.0535 18.9574 16.5535 18.0219 17.2877 17.2877C18.0219 16.5535 18.9574 16.0534 19.9758 15.8509C20.9942 15.6483 22.0498 15.7523 23.0091 16.1496C23.9684 16.547 24.7883 17.2199 25.3652 18.0833C25.9421 18.9466 26.25 19.9616 26.25 21C26.25 22.3924 25.6969 23.7277 24.7123 24.7123C23.7277 25.6969 22.3924 26.25 21 26.25Z" fill="white"/>
</g>
<defs>
<clipPath id="clip0_32_617">
<rect width="42" height="42" fill="white"/>
</clipPath>
</defs>
</svg>
