<svg width="1145" height="145" viewBox="0 0 1145 145" fill="none" xmlns="http://www.w3.org/2000/svg">
<path d="M107.341 47.8C107.341 55.9333 105.475 63.4 101.741 70.2C98.0081 76.8667 92.2747 82.2667 84.5414 86.4C76.8081 90.5333 67.2081 92.6 55.7414 92.6H34.5414V143H0.341407V2.6H55.7414C66.9414 2.6 76.4081 4.53333 84.1414 8.39999C91.8747 12.2667 97.6747 17.6 101.541 24.4C105.408 31.2 107.341 39 107.341 47.8ZM53.1414 65.4C59.6747 65.4 64.5414 63.8667 67.7414 60.8C70.9414 57.7333 72.5414 53.4 72.5414 47.8C72.5414 42.2 70.9414 37.8667 67.7414 34.8C64.5414 31.7333 59.6747 30.2 53.1414 30.2H34.5414V65.4H53.1414ZM222.546 118.2H170.146L161.746 143H125.946L176.746 2.6H216.346L267.146 143H230.946L222.546 118.2ZM213.746 91.8L196.346 40.4L179.146 91.8H213.746ZM286.807 72.6C286.807 58.7333 289.807 46.4 295.807 35.6C301.807 24.6667 310.14 16.2 320.807 10.2C331.607 4.06666 343.807 0.999992 357.407 0.999992C374.074 0.999992 388.34 5.39999 400.207 14.2C412.074 23 420.007 35 424.007 50.2H386.407C383.607 44.3333 379.607 39.8667 374.407 36.8C369.34 33.7333 363.54 32.2 357.007 32.2C346.474 32.2 337.94 35.8667 331.407 43.2C324.874 50.5333 321.607 60.3333 321.607 72.6C321.607 84.8667 324.874 94.6667 331.407 102C337.94 109.333 346.474 113 357.007 113C363.54 113 369.34 111.467 374.407 108.4C379.607 105.333 383.607 100.867 386.407 95H424.007C420.007 110.2 412.074 122.2 400.207 131C388.34 139.667 374.074 144 357.407 144C343.807 144 331.607 141 320.807 135C310.14 128.867 301.807 120.4 295.807 109.6C289.807 98.8 286.807 86.4667 286.807 72.6ZM536.351 143L489.151 81V143H454.951V2.6H489.151V64.2L535.951 2.6H576.151L521.751 71.4L578.151 143H536.351ZM691.804 118.2H639.404L631.004 143H595.204L646.004 2.6H685.604L736.404 143H700.204L691.804 118.2ZM683.004 91.8L665.604 40.4L648.404 91.8H683.004ZM855.065 47C852.532 42.3333 848.865 38.8 844.065 36.4C839.398 33.8667 833.865 32.6 827.465 32.6C816.398 32.6 807.532 36.2667 800.865 43.6C794.198 50.8 790.865 60.4667 790.865 72.6C790.865 85.5333 794.332 95.6667 801.265 103C808.332 110.2 817.998 113.8 830.265 113.8C838.665 113.8 845.732 111.667 851.465 107.4C857.332 103.133 861.598 97 864.265 89H820.865V63.8H895.265V95.6C892.732 104.133 888.398 112.067 882.265 119.4C876.265 126.733 868.598 132.667 859.265 137.2C849.932 141.733 839.398 144 827.665 144C813.798 144 801.398 141 790.465 135C779.665 128.867 771.198 120.4 765.065 109.6C759.065 98.8 756.065 86.4667 756.065 72.6C756.065 58.7333 759.065 46.4 765.065 35.6C771.198 24.6667 779.665 16.2 790.465 10.2C801.265 4.06666 813.598 0.999992 827.465 0.999992C844.265 0.999992 858.398 5.06666 869.865 13.2C881.465 21.3333 889.132 32.6 892.865 47H855.065ZM958.409 30V58.4H1004.21V84.8H958.409V115.6H1010.21V143H924.209V2.6H1010.21V30H958.409ZM1093.21 144.4C1082.95 144.4 1073.75 142.733 1065.61 139.4C1057.48 136.067 1050.95 131.133 1046.01 124.6C1041.21 118.067 1038.68 110.2 1038.41 101H1074.81C1075.35 106.2 1077.15 110.2 1080.21 113C1083.28 115.667 1087.28 117 1092.21 117C1097.28 117 1101.28 115.867 1104.21 113.6C1107.15 111.2 1108.61 107.933 1108.61 103.8C1108.61 100.333 1107.41 97.4667 1105.01 95.2C1102.75 92.9333 1099.88 91.0667 1096.41 89.6C1093.08 88.1333 1088.28 86.4667 1082.01 84.6C1072.95 81.8 1065.55 79 1059.81 76.2C1054.08 73.4 1049.15 69.2667 1045.01 63.8C1040.88 58.3333 1038.81 51.2 1038.81 42.4C1038.81 29.3333 1043.55 19.1333 1053.01 11.8C1062.48 4.33333 1074.81 0.599998 1090.01 0.599998C1105.48 0.599998 1117.95 4.33333 1127.41 11.8C1136.88 19.1333 1141.95 29.4 1142.61 42.6H1105.61C1105.35 38.0667 1103.68 34.5333 1100.61 32C1097.55 29.3333 1093.61 28 1088.81 28C1084.68 28 1081.35 29.1333 1078.81 31.4C1076.28 33.5333 1075.01 36.6667 1075.01 40.8C1075.01 45.3333 1077.15 48.8667 1081.41 51.4C1085.68 53.9333 1092.35 56.6667 1101.41 59.6C1110.48 62.6667 1117.81 65.6 1123.41 68.4C1129.15 71.2 1134.08 75.2667 1138.21 80.6C1142.35 85.9333 1144.41 92.8 1144.41 101.2C1144.41 109.2 1142.35 116.467 1138.21 123C1134.21 129.533 1128.35 134.733 1120.61 138.6C1112.88 142.467 1103.75 144.4 1093.21 144.4Z" fill="#F7F7F7"/>
</svg>
