<svg width="1080" height="145" viewBox="0 0 1080 145" fill="none" xmlns="http://www.w3.org/2000/svg">
<path d="M107.459 47.8C107.459 55.9333 105.592 63.4 101.859 70.2C98.1253 76.8667 92.3919 82.2667 84.6586 86.4C76.9253 90.5333 67.3253 92.6 55.8586 92.6H34.6586V143H0.458594V2.6H55.8586C67.0586 2.6 76.5253 4.53333 84.2586 8.39999C91.9919 12.2667 97.7919 17.6 101.659 24.4C105.525 31.2 107.459 39 107.459 47.8ZM53.2586 65.4C59.7919 65.4 64.6586 63.8667 67.8586 60.8C71.0586 57.7333 72.6586 53.4 72.6586 47.8C72.6586 42.2 71.0586 37.8667 67.8586 34.8C64.6586 31.7333 59.7919 30.2 53.2586 30.2H34.6586V65.4H53.2586ZM206.863 143L177.663 90H169.463V143H135.263V2.6H192.663C203.73 2.6 213.13 4.53333 220.863 8.39999C228.73 12.2667 234.597 17.6 238.463 24.4C242.33 31.0667 244.263 38.5333 244.263 46.8C244.263 56.1333 241.597 64.4667 236.263 71.8C231.063 79.1333 223.33 84.3333 213.063 87.4L245.463 143H206.863ZM169.463 65.8H190.663C196.93 65.8 201.597 64.2667 204.663 61.2C207.863 58.1333 209.463 53.8 209.463 48.2C209.463 42.8667 207.863 38.6667 204.663 35.6C201.597 32.5333 196.93 31 190.663 31H169.463V65.8ZM342.132 144.4C328.932 144.4 316.799 141.333 305.732 135.2C294.799 129.067 286.065 120.533 279.532 109.6C273.132 98.5333 269.932 86.1333 269.932 72.4C269.932 58.6667 273.132 46.3333 279.532 35.4C286.065 24.4667 294.799 15.9333 305.732 9.8C316.799 3.66666 328.932 0.599998 342.132 0.599998C355.332 0.599998 367.399 3.66666 378.332 9.8C389.399 15.9333 398.065 24.4667 404.332 35.4C410.732 46.3333 413.932 58.6667 413.932 72.4C413.932 86.1333 410.732 98.5333 404.332 109.6C397.932 120.533 389.265 129.067 378.332 135.2C367.399 141.333 355.332 144.4 342.132 144.4ZM342.132 113.2C353.332 113.2 362.265 109.467 368.932 102C375.732 94.5333 379.132 84.6667 379.132 72.4C379.132 60 375.732 50.1333 368.932 42.8C362.265 35.3333 353.332 31.6 342.132 31.6C330.799 31.6 321.732 35.2667 314.932 42.6C308.265 49.9333 304.932 59.8667 304.932 72.4C304.932 84.8 308.265 94.7333 314.932 102.2C321.732 109.533 330.799 113.2 342.132 113.2ZM530.959 2.6V98.2C530.959 113 526.759 124.4 518.359 132.4C510.092 140.4 498.892 144.4 484.759 144.4C469.959 144.4 458.092 140.2 449.159 131.8C440.225 123.4 435.759 111.467 435.759 96H469.759C469.759 101.867 470.959 106.333 473.359 109.4C475.759 112.333 479.225 113.8 483.759 113.8C487.892 113.8 491.092 112.467 493.359 109.8C495.625 107.133 496.759 103.267 496.759 98.2V2.6H530.959ZM602.784 30V58.4H648.584V84.8H602.784V115.6H654.584V143H568.584V2.6H654.584V30H602.784ZM680.987 72.6C680.987 58.7333 683.987 46.4 689.987 35.6C695.987 24.6667 704.32 16.2 714.987 10.2C725.787 4.06666 737.987 0.999992 751.587 0.999992C768.253 0.999992 782.52 5.39999 794.387 14.2C806.253 23 814.187 35 818.187 50.2H780.587C777.787 44.3333 773.787 39.8667 768.587 36.8C763.52 33.7333 757.72 32.2 751.187 32.2C740.653 32.2 732.12 35.8667 725.587 43.2C719.053 50.5333 715.787 60.3333 715.787 72.6C715.787 84.8667 719.053 94.6667 725.587 102C732.12 109.333 740.653 113 751.187 113C757.72 113 763.52 111.467 768.587 108.4C773.787 105.333 777.787 100.867 780.587 95H818.187C814.187 110.2 806.253 122.2 794.387 131C782.52 139.667 768.253 144 751.587 144C737.987 144 725.787 141 714.987 135C704.32 128.867 695.987 120.4 689.987 109.6C683.987 98.8 680.987 86.4667 680.987 72.6ZM950.13 2.6V30H912.93V143H878.73V30H841.53V2.6H950.13ZM1028.09 144.4C1017.83 144.4 1008.63 142.733 1000.49 139.4C992.361 136.067 985.828 131.133 980.895 124.6C976.095 118.067 973.561 110.2 973.295 101H1009.69C1010.23 106.2 1012.03 110.2 1015.09 113C1018.16 115.667 1022.16 117 1027.09 117C1032.16 117 1036.16 115.867 1039.09 113.6C1042.03 111.2 1043.49 107.933 1043.49 103.8C1043.49 100.333 1042.29 97.4667 1039.89 95.2C1037.63 92.9333 1034.76 91.0667 1031.29 89.6C1027.96 88.1333 1023.16 86.4667 1016.89 84.6C1007.83 81.8 1000.43 79 994.695 76.2C988.961 73.4 984.028 69.2667 979.895 63.8C975.761 58.3333 973.695 51.2 973.695 42.4C973.695 29.3333 978.428 19.1333 987.895 11.8C997.361 4.33333 1009.69 0.599998 1024.89 0.599998C1040.36 0.599998 1052.83 4.33333 1062.29 11.8C1071.76 19.1333 1076.83 29.4 1077.49 42.6H1040.49C1040.23 38.0667 1038.56 34.5333 1035.49 32C1032.43 29.3333 1028.49 28 1023.69 28C1019.56 28 1016.23 29.1333 1013.69 31.4C1011.16 33.5333 1009.89 36.6667 1009.89 40.8C1009.89 45.3333 1012.03 48.8667 1016.29 51.4C1020.56 53.9333 1027.23 56.6667 1036.29 59.6C1045.36 62.6667 1052.69 65.6 1058.29 68.4C1064.03 71.2 1068.96 75.2667 1073.09 80.6C1077.23 85.9333 1079.29 92.8 1079.29 101.2C1079.29 109.2 1077.23 116.467 1073.09 123C1069.09 129.533 1063.23 134.733 1055.49 138.6C1047.76 142.467 1038.63 144.4 1028.09 144.4Z" fill="#F7F7F7"/>
</svg>
