<svg width="28" height="28" viewBox="0 0 28 28" fill="none" xmlns="http://www.w3.org/2000/svg">
<path d="M25.375 7.875V20.125C25.375 20.5891 25.1906 21.0342 24.8624 21.3624C24.5342 21.6906 24.0891 21.875 23.625 21.875H4.375C3.91087 21.875 3.46575 21.6906 3.13756 21.3624C2.80937 21.0342 2.625 20.5891 2.625 20.125V7.875M25.375 7.875C25.375 7.41087 25.1906 6.96575 24.8624 6.63756C24.5342 6.30937 24.0891 6.125 23.625 6.125H4.375C3.91087 6.125 3.46575 6.30937 3.13756 6.63756C2.80937 6.96575 2.625 7.41087 2.625 7.875M25.375 7.875L14.9958 15.0605C14.7032 15.263 14.3558 15.3714 14 15.3714C13.6442 15.3714 13.2968 15.263 13.0043 15.0605L2.625 7.875" stroke="#4169E1" stroke-width="2" stroke-linecap="round" stroke-linejoin="round"/>
</svg>
