<svg width="905" height="135" viewBox="0 0 1005 145" fill="none" xmlns="http://www.w3.org/2000/svg">
<path d="M55.5047 144.4C45.238 144.4 36.038 142.733 27.9047 139.4C19.7714 136.067 13.238 131.133 8.30469 124.6C3.50469 118.067 0.971355 110.2 0.704688 101H37.1047C37.638 106.2 39.438 110.2 42.5047 113C45.5714 115.667 49.5714 117 54.5047 117C59.5714 117 63.5714 115.867 66.5047 113.6C69.438 111.2 70.9047 107.933 70.9047 103.8C70.9047 100.333 69.7047 97.4667 67.3047 95.2C65.038 92.9333 62.1714 91.0667 58.7047 89.6C55.3714 88.1333 50.5714 86.4667 44.3047 84.6C35.238 81.8 27.838 79 22.1047 76.2C16.3714 73.4 11.438 69.2667 7.30469 63.8C3.17135 58.3333 1.10469 51.2 1.10469 42.4C1.10469 29.3333 5.83802 19.1333 15.3047 11.8C24.7714 4.33333 37.1047 0.599998 52.3047 0.599998C67.7714 0.599998 80.238 4.33333 89.7047 11.8C99.1714 19.1333 104.238 29.4 104.905 42.6H67.9047C67.638 38.0667 65.9714 34.5333 62.9047 32C59.838 29.3333 55.9047 28 51.1047 28C46.9714 28 43.638 29.1333 41.1047 31.4C38.5714 33.5333 37.3047 36.6667 37.3047 40.8C37.3047 45.3333 39.438 48.8667 43.7047 51.4C47.9714 53.9333 54.638 56.6667 63.7047 59.6C72.7714 62.6667 80.1047 65.6 85.7047 68.4C91.438 71.2 96.3714 75.2667 100.505 80.6C104.638 85.9333 106.705 92.8 106.705 101.2C106.705 109.2 104.638 116.467 100.505 123C96.5047 129.533 90.638 134.733 82.9047 138.6C75.1714 142.467 66.038 144.4 55.5047 144.4ZM171.952 30V58.4H217.752V84.8H171.952V115.6H223.752V143H137.752V2.6H223.752V30H171.952ZM327.555 143L298.355 90H290.155V143H255.955V2.6H313.355C324.421 2.6 333.821 4.53333 341.555 8.39999C349.421 12.2667 355.288 17.6 359.155 24.4C363.021 31.0667 364.955 38.5333 364.955 46.8C364.955 56.1333 362.288 64.4667 356.955 71.8C351.755 79.1333 344.021 84.3333 333.755 87.4L366.155 143H327.555ZM290.155 65.8H311.355C317.621 65.8 322.288 64.2667 325.355 61.2C328.555 58.1333 330.155 53.8 330.155 48.2C330.155 42.8667 328.555 38.6667 325.355 35.6C322.288 32.5333 317.621 31 311.355 31H290.155V65.8ZM528.223 2.6L478.423 143H435.623L385.823 2.6H422.223L457.023 108.6L492.023 2.6H528.223ZM586.717 2.6V143H552.517V2.6H586.717ZM615.702 72.6C615.702 58.7333 618.702 46.4 624.702 35.6C630.702 24.6667 639.035 16.2 649.702 10.2C660.502 4.06666 672.702 0.999992 686.302 0.999992C702.968 0.999992 717.235 5.39999 729.102 14.2C740.968 23 748.902 35 752.902 50.2H715.302C712.502 44.3333 708.502 39.8667 703.302 36.8C698.235 33.7333 692.435 32.2 685.902 32.2C675.368 32.2 666.835 35.8667 660.302 43.2C653.768 50.5333 650.502 60.3333 650.502 72.6C650.502 84.8667 653.768 94.6667 660.302 102C666.835 109.333 675.368 113 685.902 113C692.435 113 698.235 111.467 703.302 108.4C708.502 105.333 712.502 100.867 715.302 95H752.902C748.902 110.2 740.968 122.2 729.102 131C717.235 139.667 702.968 144 686.302 144C672.702 144 660.502 141 649.702 135C639.035 128.867 630.702 120.4 624.702 109.6C618.702 98.8 615.702 86.4667 615.702 72.6ZM818.045 30V58.4H863.845V84.8H818.045V115.6H869.845V143H783.845V2.6H869.845V30H818.045ZM952.848 144.4C942.582 144.4 933.382 142.733 925.248 139.4C917.115 136.067 910.582 131.133 905.648 124.6C900.848 118.067 898.315 110.2 898.048 101H934.448C934.982 106.2 936.782 110.2 939.848 113C942.915 115.667 946.915 117 951.848 117C956.915 117 960.915 115.867 963.848 113.6C966.782 111.2 968.248 107.933 968.248 103.8C968.248 100.333 967.048 97.4667 964.648 95.2C962.382 92.9333 959.515 91.0667 956.048 89.6C952.715 88.1333 947.915 86.4667 941.648 84.6C932.582 81.8 925.182 79 919.448 76.2C913.715 73.4 908.782 69.2667 904.648 63.8C900.515 58.3333 898.448 51.2 898.448 42.4C898.448 29.3333 903.182 19.1333 912.648 11.8C922.115 4.33333 934.448 0.599998 949.648 0.599998C965.115 0.599998 977.582 4.33333 987.048 11.8C996.515 19.1333 1001.58 29.4 1002.25 42.6H965.248C964.982 38.0667 963.315 34.5333 960.248 32C957.182 29.3333 953.248 28 948.448 28C944.315 28 940.982 29.1333 938.448 31.4C935.915 33.5333 934.648 36.6667 934.648 40.8C934.648 45.3333 936.782 48.8667 941.048 51.4C945.315 53.9333 951.982 56.6667 961.048 59.6C970.115 62.6667 977.448 65.6 983.048 68.4C988.782 71.2 993.715 75.2667 997.848 80.6C1001.98 85.9333 1004.05 92.8 1004.05 101.2C1004.05 109.2 1001.98 116.467 997.848 123C993.848 129.533 987.982 134.733 980.248 138.6C972.515 142.467 963.382 144.4 952.848 144.4Z" fill="#F7F7F7"/>
</svg>
