<svg width="50" height="50" viewBox="0 0 50 50" fill="none" xmlns="http://www.w3.org/2000/svg">
<path d="M26.0625 14.375L28.1042 14.7917L23.9375 35.625L21.8958 35.2083L26.0625 14.375ZM19.4375 19.9167L17.9583 18.4375L13.3958 23C12.1875 24.2083 12.1875 26.1667 13.3958 27.375L17.8958 31.875L19.375 30.3958L14.875 25.8958C14.4792 25.5 14.4792 24.8542 14.875 24.4583L19.4375 19.8958V19.9167ZM32.0833 18.3542L30.6042 19.8333L35.1458 24.375C35.5417 24.7708 35.5417 25.4167 35.1458 25.8125L30.6042 30.3542L32.0833 31.8333L36.625 27.2917C37.8333 26.0833 37.8333 24.125 36.625 22.9167L32.0833 18.375V18.3542ZM43.3125 28.9583L49.5625 32.8125L43 43.4583L36.75 39.6042C35.0833 40.9583 33.25 41.9792 31.25 42.6875V50H18.75V42.6875C16.7708 41.9792 14.9167 40.9583 13.25 39.6042L7 43.4583L0.4375 32.8125L6.6875 28.9583C6.39583 27.625 6.25 26.2917 6.25 25C6.25 23.7083 6.39583 22.375 6.6875 21.0417L0.4375 17.1875L7 6.54167L13.25 10.3958C14.9167 9.04167 16.75 8.02083 18.75 7.3125V0H31.25V7.3125C33.2292 8.02083 35.0833 9.04167 36.75 10.3958L43 6.54167L49.5625 17.1875L43.3125 21.0417C43.6042 22.375 43.75 23.7083 43.75 25C43.75 26.2917 43.6042 27.625 43.3125 28.9583ZM40.9167 29.9375L41.1042 29.1875C41.4792 27.7708 41.6667 26.375 41.6667 25C41.6667 23.625 41.4792 22.2292 41.1042 20.8125L40.9167 20.0625L46.6875 16.5L42.3125 9.41667L36.5417 12.9792L35.9583 12.4792C34.1667 10.9167 32.125 9.77083 29.8958 9.08333L29.1667 8.85417V2.08333H20.8333V8.83333L20.1042 9.0625C17.875 9.75 15.8333 10.8958 14.0417 12.4583L13.4583 12.9583L7.6875 9.39583L3.3125 16.5L9.08333 20.0625L8.89583 20.8125C8.52083 22.2292 8.33333 23.625 8.33333 25C8.33333 26.375 8.52083 27.7708 8.89583 29.1875L9.08333 29.9375L3.3125 33.5L7.6875 40.5833L13.4583 37.0208L14.0417 37.5208C15.8333 39.0833 17.875 40.2292 20.1042 40.9167L20.8333 41.1458V47.8958H29.1667V41.1458L29.8958 40.9167C32.125 40.2292 34.1667 39.0833 35.9583 37.5208L36.5417 37.0208L42.3125 40.5833L46.6875 33.5L40.9167 29.9375Z" fill="#4169E1"/>
</svg>
