<svg width="28" height="28" viewBox="0 0 28 28" fill="none" xmlns="http://www.w3.org/2000/svg">
<path d="M18.7272 2.08484L19.8542 2.38934C21.2324 2.7623 22.4888 3.49009 23.498 4.50012C24.5073 5.51015 25.234 6.76712 25.6059 8.14567L25.9092 9.27151L23.6575 9.87934L23.353 8.75351C23.0873 7.76881 22.5681 6.87098 21.8471 6.14959C21.1261 5.42819 20.2286 4.90844 19.244 4.64217L18.1182 4.33651L18.7272 2.08484ZM1.16653 2.33334H11.1765L12.9114 10.1383L10.7414 12.3083C12.0167 14.2945 13.7051 15.9825 15.6915 17.2573L17.8615 15.0885L25.6665 16.8233V26.8333H24.4999C20.0087 26.8403 15.6118 25.5452 11.8415 23.1047C9.06167 21.3056 6.6943 18.9382 4.8952 16.1583C2.45476 12.3881 1.15961 7.99118 1.16653 3.50001V2.33334ZM3.53136 4.66667C3.72764 8.30663 4.87358 11.8318 6.8552 14.8913C8.47496 17.3937 10.6061 19.5249 13.1085 21.1447C16.1681 23.1264 19.6932 24.2723 23.3332 24.4685V18.6947L18.6047 17.6447L16.0684 20.1822L15.2949 19.7423C12.358 18.0732 9.92663 15.6418 8.25753 12.705L7.8177 11.9315L10.3552 9.39517L9.3052 4.66667H3.53136ZM17.6609 6.02584L18.7879 6.33034C19.477 6.51682 20.1052 6.88071 20.6098 7.38573C21.1144 7.89074 21.4778 8.51923 21.6637 9.20851L21.967 10.3343L19.7154 10.9422L19.4109 9.81634C19.3311 9.52092 19.1752 9.25158 18.9588 9.0352C18.7425 8.81882 18.4731 8.66296 18.1777 8.58317L17.0519 8.27867L17.6609 6.02584Z" fill="#4169E1"/>
</svg>
