<svg width="1341" height="158" viewBox="0 0 1341 158" fill="none" xmlns="http://www.w3.org/2000/svg">
<path d="M103.453 2.62V28.65H68.1127V136H35.6227V28.65H0.282656V2.62H103.453ZM161.749 28.65V55.63H205.259V80.71H161.749V109.97H210.959V136H129.259V2.62H210.959V28.65H161.749ZM289.811 137.33C280.058 137.33 271.318 135.747 263.591 132.58C255.865 129.413 249.658 124.727 244.971 118.52C240.411 112.313 238.005 104.84 237.751 96.1H272.331C272.838 101.04 274.548 104.84 277.461 107.5C280.375 110.033 284.175 111.3 288.861 111.3C293.675 111.3 297.475 110.223 300.261 108.07C303.048 105.79 304.441 102.687 304.441 98.76C304.441 95.4667 303.301 92.7433 301.021 90.59C298.868 88.4367 296.145 86.6633 292.851 85.27C289.685 83.8767 285.125 82.2933 279.171 80.52C270.558 77.86 263.528 75.2 258.081 72.54C252.635 69.88 247.948 65.9533 244.021 60.76C240.095 55.5667 238.131 48.79 238.131 40.43C238.131 28.0167 242.628 18.3267 251.621 11.36C260.615 4.26666 272.331 0.719998 286.771 0.719998C301.465 0.719998 313.308 4.26666 322.301 11.36C331.295 18.3267 336.108 28.08 336.741 40.62H301.591C301.338 36.3133 299.755 32.9567 296.841 30.55C293.928 28.0167 290.191 26.75 285.631 26.75C281.705 26.75 278.538 27.8267 276.131 29.98C273.725 32.0067 272.521 34.9833 272.521 38.91C272.521 43.2167 274.548 46.5733 278.601 48.98C282.655 51.3867 288.988 53.9833 297.601 56.77C306.215 59.6833 313.181 62.47 318.501 65.13C323.948 67.79 328.635 71.6533 332.561 76.72C336.488 81.7867 338.451 88.31 338.451 96.29C338.451 103.89 336.488 110.793 332.561 117C328.761 123.207 323.188 128.147 315.841 131.82C308.495 135.493 299.818 137.33 289.811 137.33ZM463.896 2.62V28.65H428.556V136H396.066V28.65H360.726V2.62H463.896ZM522.192 2.62V136H489.702V2.62H522.192ZM706.287 2.62V136H673.797V56.01L643.967 136H617.747L587.727 55.82V136H555.237V2.62H593.617L631.047 94.96L668.097 2.62H706.287ZM802.231 137.33C789.691 137.33 778.164 134.417 767.651 128.59C757.264 122.763 748.968 114.657 742.761 104.27C736.681 93.7567 733.641 81.9767 733.641 68.93C733.641 55.8833 736.681 44.1667 742.761 33.78C748.968 23.3933 757.264 15.2867 767.651 9.46C778.164 3.63333 789.691 0.719998 802.231 0.719998C814.771 0.719998 826.234 3.63333 836.621 9.46C847.134 15.2867 855.368 23.3933 861.321 33.78C867.401 44.1667 870.441 55.8833 870.441 68.93C870.441 81.9767 867.401 93.7567 861.321 104.27C855.241 114.657 847.008 122.763 836.621 128.59C826.234 134.417 814.771 137.33 802.231 137.33ZM802.231 107.69C812.871 107.69 821.358 104.143 827.691 97.05C834.151 89.9567 837.381 80.5833 837.381 68.93C837.381 57.15 834.151 47.7767 827.691 40.81C821.358 33.7167 812.871 30.17 802.231 30.17C791.464 30.17 782.851 33.6533 776.391 40.62C770.058 47.5867 766.891 57.0233 766.891 68.93C766.891 80.71 770.058 90.1467 776.391 97.24C782.851 104.207 791.464 107.69 802.231 107.69ZM1017.34 136H984.846L930.506 53.73V136H898.016V2.62H930.506L984.846 85.27V2.62H1017.34V136ZM1082.88 2.62V136H1050.39V2.62H1082.88ZM1198.95 112.44H1149.17L1141.19 136H1107.18L1155.44 2.62H1193.06L1241.32 136H1206.93L1198.95 112.44ZM1190.59 87.36L1174.06 38.53L1157.72 87.36H1190.59ZM1298 110.92H1340.56V136H1265.51V2.62H1298V110.92Z" fill="#F7F7F7"/>
</svg>
