<svg width="50" height="50" viewBox="0 0 50 50" fill="none" xmlns="http://www.w3.org/2000/svg">
<g clip-path="url(#clip0_32_501)">
<path d="M36.2875 31.25C31.2104 31.25 27.0833 35.4563 27.0833 40.625C27.0833 45.9917 32.5375 50 37.4146 50H45.4896C46.9604 50 48.3396 49.3063 49.1833 48.1458C49.9896 47.0375 50.2104 45.6625 49.7917 44.3708C48.2 39.4708 44.3312 31.2521 36.2875 31.2521V31.25ZM47.4979 46.9208C47.0458 47.5438 46.2937 47.9167 45.4896 47.9167H37.4146C33.6 47.9167 29.1667 44.7313 29.1667 40.625C29.1667 36.6042 32.3625 33.3333 36.2875 33.3333C43.0146 33.3333 46.3937 40.65 47.8104 45.0125C48.0229 45.6625 47.9062 46.3583 47.4979 46.9208ZM49.9979 6.75209C49.9979 4.94584 49.2979 3.25 48.0229 1.97709H48.0208C45.4729 -0.572912 41.0146 -0.572912 38.4708 1.97709L2.97917 37.4688C1.05833 39.3896 0 41.9417 0 44.6583V48.9563C0 49.5313 0.466667 49.9979 1.04167 49.9979H5.34167C8.05833 49.9979 10.6104 48.9396 12.5312 47.0188L48.025 11.5292C49.2979 10.2563 50 8.56042 50 6.75417L49.9979 6.75209ZM11.0583 45.5479C9.53125 47.075 7.5 47.9167 5.34167 47.9167H2.08333V44.6604C2.08333 42.5 2.925 40.4708 4.45208 38.9438L32.1437 11.25L38.75 17.8563L11.0583 45.5479ZM46.5521 10.0563L40.2229 16.3854L33.6167 9.77917L39.9458 3.45C41.7021 1.68959 44.7896 1.68959 46.5479 3.45C47.4271 4.33334 47.9146 5.50625 47.9146 6.75417C47.9146 8.00209 47.4312 9.17709 46.5521 10.0563ZM1.68333 11.2292C0.46875 9.82709 -0.110417 8.08542 0.01875 6.28334C0.147917 4.48125 0.96875 2.83959 2.32708 1.66042C3.69167 0.479171 5.425 -0.097912 7.2375 0.0312546C9.03958 0.160421 10.6812 0.981255 11.8583 2.34167L20.5938 12.8771C20.9604 13.3208 20.9 13.9771 20.4583 14.3438C20.0104 14.7125 19.3562 14.65 18.9917 14.2083L10.2687 3.68959C9.46875 2.76459 8.33542 2.19792 7.0875 2.10834C5.85208 2.02084 4.6375 2.41667 3.69583 3.23334C2.75208 4.05209 2.18542 5.1875 2.09583 6.43334C2.00833 7.68125 2.40625 8.88542 3.22292 9.825L13.1896 20.175C13.5875 20.5896 13.5771 21.2479 13.1604 21.6479C12.9583 21.8417 12.6979 21.9396 12.4375 21.9396C12.1646 21.9396 11.8917 21.8333 11.6875 21.6208L1.68333 11.2292Z" fill="#4169E1"/>
</g>
<defs>
<clipPath id="clip0_32_501">
<rect width="50" height="50" fill="white"/>
</clipPath>
</defs>
</svg>
